<svg width="40" height="40" viewBox="0 0 40 40" fill="none" xmlns="http://www.w3.org/2000/svg">
<rect width="40" height="40" rx="5" fill="white" fill-opacity="0.1"/>
<path d="M27.1854 14.6621L25.7479 13.2121C25.5147 12.9701 25.2351 12.7777 24.9259 12.6462C24.6166 12.5148 24.284 12.447 23.9479 12.447C23.6119 12.447 23.2793 12.5148 22.97 12.6462C22.6607 12.7777 22.3812 12.9701 22.1479 13.2121L17.7729 17.5871C17.3391 18.0076 17.0722 18.571 17.0217 19.173C16.9711 19.7751 17.1403 20.3751 17.4979 20.8621L19.1104 22.5121L20.3604 21.2621L18.7979 19.6371C18.7447 19.4882 18.7341 19.3275 18.7672 19.1729C18.8003 19.0183 18.8759 18.8761 18.9854 18.7621L23.3604 14.4246C23.44 14.3382 23.5367 14.2693 23.6443 14.2222C23.7518 14.175 23.868 14.1507 23.9854 14.1507C24.1029 14.1507 24.2191 14.175 24.3266 14.2222C24.4342 14.2693 24.5308 14.3382 24.6104 14.4246L26.0479 15.8746C26.1258 15.9513 26.1876 16.0428 26.2298 16.1437C26.272 16.2445 26.2937 16.3528 26.2937 16.4621C26.2937 16.5714 26.272 16.6797 26.2298 16.7805C26.1876 16.8814 26.1258 16.9728 26.0479 17.0496L23.8729 19.2371C24.2312 19.7969 24.422 20.4474 24.4229 21.1121L27.2604 18.2621C27.4976 18.0239 27.6843 17.7403 27.8094 17.4283C27.9344 17.1162 27.9953 16.7822 27.9882 16.4461C27.9812 16.1101 27.9065 15.7789 27.7686 15.4723C27.6307 15.1658 27.4323 14.8902 27.1854 14.6621Z" fill="white" fill-opacity="0.9"/>
<path d="M22.8479 19.5246L21.5979 18.2746L20.3479 19.5246L21.5979 20.7746C21.6496 20.9166 21.6605 21.0703 21.6296 21.2182C21.5987 21.3662 21.5271 21.5026 21.4229 21.6121L17.0479 25.9746C16.9712 26.0524 16.8797 26.1143 16.7789 26.1565C16.678 26.1987 16.5698 26.2204 16.4604 26.2204C16.3511 26.2204 16.2429 26.1987 16.142 26.1565C16.0412 26.1143 15.9497 26.0524 15.8729 25.9746L14.4229 24.5371C14.268 24.3783 14.1812 24.1652 14.1812 23.9433C14.1812 23.7215 14.268 23.5084 14.4229 23.3496L16.5854 21.2621C16.1722 20.7288 15.9758 20.0591 16.0354 19.3871L13.1854 22.2246C12.7114 22.7063 12.4457 23.355 12.4457 24.0308C12.4457 24.7067 12.7114 25.3554 13.1854 25.8371L14.6104 27.2121C14.8437 27.454 15.1233 27.6465 15.4325 27.778C15.7418 27.9094 16.0744 27.9772 16.4104 27.9772C16.7465 27.9772 17.0791 27.9094 17.3884 27.778C17.6976 27.6465 17.9772 27.454 18.2104 27.2121L22.5854 22.8496C23.0174 22.4275 23.282 21.8633 23.3302 21.2613C23.3785 20.6592 23.2072 20.0601 22.8479 19.5746V19.5246Z" fill="white" fill-opacity="0.9"/>
</svg>
