<svg width="237" height="66" viewBox="0 0 237 66" fill="none" xmlns="http://www.w3.org/2000/svg">
<path d="M16.4529 0.735157H33.5423V6.59338H23.6977V25H16.4529V0.735157ZM23.1777 10.6491H32.849V16.23H23.1777V10.6491ZM38.6325 0.735157H45.8773V25H38.6325V0.735157ZM51.6721 0.735157H57.669L69.9748 16.438H67.2363V0.735157H74.3078V25H68.3456L56.0051 9.29718H58.7783V25H51.6721V0.735157ZM80.0804 0.735157H89.1624C91.7969 0.735157 94.1078 1.23201 96.0952 2.22571C98.0826 3.19631 99.6078 4.59442 100.671 6.42006C101.757 8.2457 102.3 10.3949 102.3 12.8676C102.3 15.3403 101.757 17.4895 100.671 19.3151C99.6078 21.1407 98.0826 22.5504 96.0952 23.5441C94.1078 24.5147 91.7969 25 89.1624 25H80.0804V0.735157ZM89.0237 18.5178C90.3179 18.5178 91.4156 18.3098 92.3168 17.8939C93.2181 17.4779 93.8998 16.8539 94.362 16.022C94.8242 15.167 95.0553 14.1155 95.0553 12.8676C95.0553 11.6197 94.8242 10.5798 94.362 9.74781C93.8998 8.89277 93.2181 8.25726 92.3168 7.84129C91.4156 7.42532 90.3179 7.21734 89.0237 7.21734H87.3252V18.5178H89.0237ZM126.015 12.3823L127.783 16.6806L117.28 0.735157H124.767L132.254 11.5503H127.159L134.681 0.735157H142.03L131.457 16.6806L133.26 12.3823V25H126.015V12.3823ZM155.87 25.4853C153.351 25.4853 151.11 24.9538 149.145 23.8908C147.181 22.8046 145.644 21.3025 144.535 19.3844C143.426 17.4663 142.871 15.2941 142.871 12.8676C142.871 10.418 143.426 8.2457 144.535 6.35073C145.644 4.43266 147.181 2.9421 149.145 1.87907C151.11 0.792931 153.351 0.24986 155.87 0.24986C158.366 0.24986 160.596 0.792931 162.56 1.87907C164.525 2.9421 166.061 4.43266 167.171 6.35073C168.28 8.2457 168.834 10.418 168.834 12.8676C168.834 15.2941 168.28 17.4663 167.171 19.3844C166.061 21.3025 164.525 22.8046 162.56 23.8908C160.596 24.9538 158.366 25.4853 155.87 25.4853ZM155.87 18.8645C156.956 18.8645 157.938 18.6218 158.817 18.1365C159.695 17.6281 160.388 16.9233 160.896 16.022C161.405 15.0976 161.659 14.0462 161.659 12.8676C161.659 11.689 161.405 10.6491 160.896 9.74781C160.388 8.82344 159.695 8.1186 158.817 7.6333C157.938 7.1249 156.945 6.8707 155.835 6.8707C154.749 6.8707 153.756 7.1249 152.854 7.6333C151.976 8.1186 151.283 8.81188 150.775 9.71315C150.266 10.6144 150.012 11.6659 150.012 12.8676C150.012 14.0693 150.266 15.1207 150.775 16.022C151.283 16.9233 151.976 17.6281 152.854 18.1365C153.756 18.6218 154.761 18.8645 155.87 18.8645ZM184.284 25.4853C181.973 25.4853 179.997 25.0809 178.356 24.2721C176.739 23.4632 175.491 22.2269 174.613 20.563C173.757 18.8991 173.33 16.8308 173.33 14.3581V0.735157H180.575V14.0808C180.575 15.2594 180.725 16.2184 181.025 16.9579C181.326 17.6743 181.753 18.2058 182.308 18.5525C182.863 18.876 183.544 19.0378 184.353 19.0378C185.162 19.0378 185.844 18.876 186.398 18.5525C186.953 18.2058 187.38 17.6743 187.681 16.9579C187.981 16.2184 188.132 15.2594 188.132 14.0808V0.735157H195.272V14.3581C195.272 16.8308 194.833 18.8991 193.955 20.563C193.1 22.2269 191.852 23.4632 190.211 24.2721C188.594 25.0809 186.618 25.4853 184.284 25.4853ZM200.829 0.735157H210.708C212.881 0.735157 214.753 1.07024 216.324 1.74042C217.895 2.38748 219.097 3.35807 219.929 4.6522C220.784 5.92321 221.212 7.47154 221.212 9.29718C221.212 11.1228 220.784 12.6827 219.929 13.9768C219.097 15.2478 217.895 16.2184 216.324 16.8886C214.753 17.5357 212.881 17.8592 210.708 17.8592H208.074V25H200.829V0.735157ZM207.762 14.8088H215.735L223.395 25H214.729L207.762 14.8088ZM210.292 11.897C211.124 11.897 211.806 11.8161 212.338 11.6543C212.869 11.4926 213.262 11.2268 213.516 10.8571C213.794 10.4642 213.932 9.94424 213.932 9.29718C213.932 8.65012 213.794 8.14171 213.516 7.77196C213.262 7.40221 212.869 7.13645 212.338 6.97469C211.806 6.81292 211.124 6.73204 210.292 6.73204H208.074V11.897H210.292Z" fill="#81B64C"/>
<path d="M42.2082 29.9387H56.1027C65.1167 29.9387 70.8936 34.3855 70.8936 42.2413C70.8936 50.0972 65.1167 54.544 56.1027 54.544H52.1186V64.5244H42.2082V29.9387ZM55.5051 46.2434C59.0908 46.2434 60.9334 45.2058 60.9334 42.2413C60.9334 39.2769 59.0908 38.2393 55.5051 38.2393H52.1186V46.2434H55.5051Z" fill="white" fill-opacity="0.95"/>
<path d="M99.0238 56.7179V64.5244H75.1193V29.9387H98.725V38.0911H84.8803V43.7236H97.3803V50.5913H84.8803V56.7179H99.0238Z" fill="white" fill-opacity="0.95"/>
<path d="M104.877 29.9387H112.995L128.234 48.3186V29.9387H137.895V64.5244H129.778L114.539 46.1446V64.5244H104.877V29.9387Z" fill="white" fill-opacity="0.95"/>
<path d="M145.442 29.9387H155.303V64.5244H145.442V29.9387Z" fill="white" fill-opacity="0.95"/>
<path d="M162.899 29.9387H171.017L186.256 48.3186V29.9387H195.917V64.5244H187.8L172.561 46.1446V64.5244H162.899V29.9387Z" fill="white" fill-opacity="0.95"/>
<path d="M200.901 46.9846C200.901 34.6325 210.861 29 220.722 29C224.856 29 228.591 29.8893 231.678 31.421V39.6228C228.541 38.3381 224.856 37.3994 221.22 37.3994C215.344 37.3994 210.363 40.2157 210.363 47.2316C210.363 52.9136 214.348 56.7674 219.925 56.7674C223.76 56.7674 227.993 55.2851 228.242 50.1961H218.232V43.0813H236.16C236.658 45.0082 236.957 46.9352 236.957 48.8127C236.957 57.7061 231.13 65.2162 219.925 65.2162C208.122 65.2162 200.901 57.2615 200.901 46.9846Z" fill="white" fill-opacity="0.95"/>
<path d="M10.3471 63.5438C10.9294 63.0003 11.4581 62.4036 11.9178 61.7461C12.9329 60.2943 13.588 58.6258 13.8294 56.8737H10.6689C9.99468 55.9046 9.59244 54.7796 9.5005 53.6052V52.9211L13.0632 50.5457C11.5883 49.0862 10.7532 47.1061 10.7455 45.0386C10.7455 43.009 11.5577 41.0593 13.0057 39.6265C14.4538 38.1898 16.4152 37.3841 18.4609 37.3841C20.5065 37.3841 22.4718 38.1898 23.916 39.6265C25.3641 41.0631 26.1762 43.009 26.1762 45.0386C26.1839 46.0685 25.9847 47.0909 25.5939 48.0449C25.2032 48.9988 24.6247 49.8692 23.8968 50.6027L27.5362 52.9211V53.6052C27.4634 54.7796 27.0573 55.9122 26.3677 56.8737H23.2264C23.4716 58.6106 24.1152 60.2715 25.1112 61.7195C25.5633 62.377 26.0804 62.9775 26.6551 63.521C32.8993 60.7238 36.9945 54.6922 36.9945 47.2277C36.9945 36.852 29.0762 29.2432 18.4685 29.2432C7.8609 29.2432 -7.7155e-06 36.8558 -7.7155e-06 47.2315C-7.7155e-06 54.7112 4.09134 60.7542 10.3471 63.5438Z" fill="white" fill-opacity="0.95"/>
</svg>
