<svg width="362" height="101" viewBox="0 0 362 101" fill="none" xmlns="http://www.w3.org/2000/svg">
<g clip-path="url(#clip0_1118_10642)">
<path d="M3.54381 0.0277361H29.5828V8.9539H14.5827V37H3.54381V0.0277361ZM13.7904 15.1335H28.5265V23.6372H13.7904V15.1335ZM37.3388 0.0277361H48.3776V37H37.3388V0.0277361ZM57.2072 0.0277361H66.3447L85.0949 23.9541H80.9223V0.0277361H91.6971V37H82.6125L63.8094 13.0737H68.0348V37H57.2072V0.0277361ZM100.493 0.0277361H114.331C118.345 0.0277361 121.866 0.784788 124.895 2.29889C127.923 3.77778 130.247 5.90809 131.866 8.68981C133.521 11.4715 134.349 14.7462 134.349 18.5139C134.349 22.2815 133.521 25.5562 131.866 28.3379C130.247 31.1196 127.923 33.2676 124.895 34.7817C121.866 36.2606 118.345 37 114.331 37H100.493V0.0277361ZM114.12 27.1231C116.092 27.1231 117.764 26.8062 119.137 26.1724C120.511 25.5386 121.549 24.5879 122.254 23.3203C122.958 22.0174 123.31 20.4153 123.31 18.5139C123.31 16.6124 122.958 15.0279 122.254 13.7603C121.549 12.4575 120.511 11.4891 119.137 10.8553C117.764 10.2215 116.092 9.90461 114.12 9.90461H111.532V27.1231H114.12ZM170.483 17.7744L173.177 24.3238L157.173 0.0277361H168.582L179.99 16.5068H172.226L183.687 0.0277361H194.885L178.775 24.3238L181.522 17.7744V37H170.483V17.7744ZM215.973 37.7394C212.135 37.7394 208.72 36.9296 205.727 35.3098C202.734 33.6549 200.392 31.3661 198.702 28.4436C197.012 25.521 196.167 22.2111 196.167 18.5139C196.167 14.7814 197.012 11.4715 198.702 8.58417C200.392 5.6616 202.734 3.39045 205.727 1.77071C208.72 0.115765 212.135 -0.711709 215.973 -0.711709C219.776 -0.711709 223.174 0.115765 226.167 1.77071C229.16 3.39045 231.502 5.6616 233.192 8.58417C234.882 11.4715 235.727 14.7814 235.727 18.5139C235.727 22.2111 234.882 25.521 233.192 28.4436C231.502 31.3661 229.16 33.6549 226.167 35.3098C223.174 36.9296 219.776 37.7394 215.973 37.7394ZM215.973 27.6513C217.628 27.6513 219.125 27.2816 220.463 26.5421C221.801 25.7675 222.857 24.6935 223.632 23.3203C224.407 21.9118 224.794 20.3097 224.794 18.5139C224.794 16.7181 224.407 15.1335 223.632 13.7603C222.857 12.3518 221.801 11.2779 220.463 10.5384C219.125 9.76377 217.611 9.37644 215.921 9.37644C214.266 9.37644 212.752 9.76377 211.378 10.5384C210.04 11.2779 208.984 12.3342 208.209 13.7075C207.435 15.0807 207.047 16.6829 207.047 18.5139C207.047 20.3449 207.435 21.947 208.209 23.3203C208.984 24.6935 210.04 25.7675 211.378 26.5421C212.752 27.2816 214.283 27.6513 215.973 27.6513ZM259.267 37.7394C255.746 37.7394 252.735 37.1232 250.235 35.8908C247.771 34.6584 245.869 32.7746 244.531 30.2394C243.228 27.7041 242.577 24.5527 242.577 20.785V0.0277361H253.616V20.3625C253.616 22.1583 253.845 23.6196 254.302 24.7463C254.76 25.8379 255.412 26.6478 256.257 27.1759C257.102 27.6689 258.14 27.9154 259.373 27.9154C260.605 27.9154 261.644 27.6689 262.489 27.1759C263.334 26.6478 263.986 25.8379 264.443 24.7463C264.901 23.6196 265.13 22.1583 265.13 20.3625V0.0277361H276.01V20.785C276.01 24.5527 275.341 27.7041 274.003 30.2394C272.701 32.7746 270.799 34.6584 268.299 35.8908C265.834 37.1232 262.824 37.7394 259.267 37.7394ZM284.477 0.0277361H299.53C302.84 0.0277361 305.692 0.538306 308.087 1.55945C310.481 2.54537 312.312 4.02426 313.58 5.99612C314.883 7.93276 315.534 10.2919 315.534 13.0737C315.534 15.8554 314.883 18.2322 313.58 20.204C312.312 22.1407 310.481 23.6196 308.087 24.6407C305.692 25.6266 302.84 26.1196 299.53 26.1196H295.516V37H284.477V0.0277361ZM295.041 21.4717H307.189L318.862 37H305.657L295.041 21.4717ZM298.896 17.035C300.164 17.035 301.203 16.9117 302.013 16.6653C302.823 16.4188 303.421 16.0138 303.809 15.4505C304.231 14.8519 304.442 14.0596 304.442 13.0737C304.442 12.0877 304.231 11.3131 303.809 10.7497C303.421 10.1863 302.823 9.78137 302.013 9.53489C301.203 9.28841 300.164 9.16517 298.896 9.16517H295.516V17.035H298.896Z" fill="#81B64C"/>
<path d="M64.3125 46.4302H85.4835C99.2181 46.4302 108.02 53.2056 108.02 65.1757C108.02 77.1457 99.2181 83.9211 85.4835 83.9211H79.413V99.1283H64.3125V46.4302ZM84.573 71.2736C90.0364 71.2736 92.8441 69.6926 92.8441 65.1757C92.8441 60.6587 90.0364 59.0777 84.573 59.0777H79.413V71.2736H84.573Z" fill="white" fill-opacity="0.95"/>
<path d="M150.882 87.2336V99.1283H114.459V46.4302H150.427V58.8519H129.332V67.4341H148.378V77.8985H129.332V87.2336H150.882Z" fill="white" fill-opacity="0.95"/>
<path d="M159.801 46.4302H172.17L195.389 74.4355V46.4302H210.111V99.1283H197.742L174.522 71.123V99.1283H159.801V46.4302Z" fill="white" fill-opacity="0.95"/>
<path d="M221.609 46.4302H236.634V99.1283H221.609V46.4302Z" fill="white" fill-opacity="0.95"/>
<path d="M248.209 46.4302H260.578L283.797 74.4355V46.4302H298.519V99.1283H286.15L262.93 71.123V99.1283H248.209V46.4302Z" fill="white" fill-opacity="0.95"/>
<path d="M306.113 72.4029C306.113 53.5821 321.289 44.9999 336.314 44.9999C342.612 44.9999 348.303 46.355 353.008 48.6887V61.1857C348.227 59.2284 342.612 57.798 337.072 57.798C328.118 57.798 320.53 62.0891 320.53 72.7793C320.53 81.4369 326.601 87.309 335.099 87.309C340.942 87.309 347.392 85.0505 347.772 77.2963H332.519V66.4556H359.837C360.596 69.3916 361.051 72.3276 361.051 75.1884C361.051 88.7393 352.173 100.182 335.099 100.182C317.115 100.182 306.113 88.0618 306.113 72.4029Z" fill="white" fill-opacity="0.95"/>
<path d="M15.7659 97.6341C16.6531 96.8059 17.4586 95.8968 18.1591 94.8949C19.7059 92.6827 20.704 90.1405 21.0718 87.4708H16.2562C15.2289 85.9941 14.616 84.28 14.4759 82.4906V81.4482L19.9043 77.8288C17.6571 75.6051 16.3846 72.588 16.3729 69.4377C16.3729 66.3453 17.6104 63.3745 19.8168 61.1913C22.0232 59.0023 25.0118 57.7746 28.1288 57.7746C31.2458 57.7746 34.2402 59.0023 36.4407 61.1913C38.6471 63.3803 39.8846 66.3453 39.8846 69.4377C39.8963 71.007 39.5927 72.5648 38.9974 74.0183C38.402 75.4719 37.5206 76.798 36.4115 77.9157L41.9567 81.4482V82.4906C41.8458 84.28 41.2271 86.0057 40.1764 87.4708H35.3901C35.7636 90.1173 36.7443 92.648 38.2619 94.8544C38.9507 95.8562 39.7387 96.7712 40.6142 97.5993C50.1286 93.3371 56.3684 84.1468 56.3684 72.7733C56.3684 56.9638 44.3032 45.3702 28.1404 45.3702C11.9776 45.3702 -1.20379e-05 56.9696 -1.20379e-05 72.7791C-1.20379e-05 84.1758 6.23396 93.3835 15.7659 97.6341Z" fill="white" fill-opacity="0.95"/>
</g>
<defs>
<clipPath id="clip0_1118_10642">
<rect width="361.051" height="100.182" fill="white"/>
</clipPath>
</defs>
</svg>
