<svg width="48" height="48" viewBox="0 0 48 48" fill="none" xmlns="http://www.w3.org/2000/svg">
<path d="M42.0889 9.3335H5.91111C3.75106 9.3335 2 11.0846 2 13.2446V39.6446C2 41.8047 3.75106 43.5557 5.91111 43.5557H42.0889C44.2489 43.5557 46 41.8047 46 39.6446V13.2446C46 11.0846 44.2489 9.3335 42.0889 9.3335Z" fill="#543426"/>
<path d="M42.0889 7.37793H5.91111C3.75106 7.37793 2 9.12899 2 11.289V37.689C2 39.8491 3.75106 41.6002 5.91111 41.6002H42.0889C44.2489 41.6002 46 39.8491 46 37.689V11.289C46 9.12899 44.2489 7.37793 42.0889 7.37793Z" fill="#9D6C3E"/>
<path fill-rule="evenodd" clip-rule="evenodd" d="M2 11.289V17.4433L2.32841 11.6853C2.44027 9.72416 3.98943 8.15023 5.94856 8.00728L14.5745 7.37793H5.91111C3.75107 7.37793 2 9.12898 2 11.289ZM46 37.689V31.5348L45.6716 37.2927C45.5598 39.2539 44.0106 40.8279 42.0514 40.9708L33.4255 41.6002H42.0889C44.2489 41.6002 46 39.8491 46 37.689Z" fill="#CA9350"/>
<path d="M44.0444 37.689C44.0444 38.769 43.1689 39.6446 42.0889 39.6446H5.91112C4.8311 39.6446 3.95557 38.769 3.95557 37.689V9.33349C3.95557 8.25348 4.8311 7.37793 5.91112 7.37793H42.0889C43.1689 7.37793 44.0445 8.25348 44.0445 9.33349L44.0444 37.689Z" fill="#6A4632"/>
<path d="M44.0444 35.2446C44.0444 36.5946 42.95 37.689 41.6 37.689H6.40001C5.04998 37.689 3.95557 36.5946 3.95557 35.2446V7.86681C3.95557 6.51678 5.04998 5.42236 6.40001 5.42236H41.6C42.95 5.42236 44.0445 6.51678 44.0445 7.86681L44.0444 35.2446Z" fill="#BEBDB9"/>
<path d="M41.6 34.6393C41.6 35.6666 40.8051 36.5188 39.7803 36.5902L24 37.689L8.21972 36.5902C7.19491 36.5188 6.40002 35.6666 6.40002 34.6393V7.37792C6.40002 6.29789 7.27558 5.42236 8.35558 5.42236H39.6445C40.7245 5.42236 41.6 6.29789 41.6 7.37792V34.6393Z" fill="#8B8987"/>
<path d="M24 37.6889L7.9322 34.8632C6.76344 34.6577 5.91113 33.6424 5.91113 32.4557V3.16661C5.91113 2.52231 6.43344 2 7.07772 2C7.60264 2 8.12648 2.04723 8.6429 2.14113L24 4.93333V37.6889Z" fill="#E7E6E5"/>
<path d="M24 37.6889L40.0678 34.8632C41.2366 34.6577 42.0889 33.6424 42.0889 32.4557V3.16661C42.0889 2.52231 41.5666 2 40.9223 2C40.3974 2 39.8735 2.04723 39.3571 2.14113L24 4.93333V37.6889Z" fill="#F8F8F8"/>
<path d="M20.0889 18.1089L9.82227 16.3842V5.91113L20.0889 7.63588V18.1089Z" fill="#10777C"/>
<path d="M14.9556 12.01L9.82227 11.1476V5.91113L14.9556 6.7735V12.01Z" fill="#26C2A3"/>
<path d="M20.0889 18.0997L14.9556 17.2463V12.0098L20.0889 12.8633V18.0997Z" fill="#26C2A3"/>
<path d="M38.1778 16.3617L27.9111 18.2191V14.7297L38.1778 12.8782V16.3617Z" fill="#DAD8D6"/>
<path d="M38.1778 23.3287L27.9111 25.198V21.7086L38.1778 19.8452V23.3287Z" fill="#DAD8D6"/>
<path d="M38.1778 30.2958L27.9111 32.1768V28.6874L38.1778 26.8123V30.2958Z" fill="#DAD8D6"/>
<path d="M38.1778 9.39466L27.9111 11.2404V7.75097L38.1778 5.91113V9.39466Z" fill="#DAD8D6"/>
<path d="M27.417 42.661L30.8444 45.939L30.8341 3.51562L24 4.68898V45.939L27.4222 42.6561L27.417 42.661Z" fill="#26C2A3"/>
<path d="M27.417 42.6814L30.8444 46.0001L30.8341 37.689H24V46.0001L27.4222 42.6764L27.417 42.6814Z" fill="#10777C"/>
<path opacity="0.5" d="M30.8444 35.7334H24V39.6445H30.8444V35.7334Z" fill="#109888"/>
<path d="M9.82227 23.3287L20.0889 25.198V21.7086L9.82227 19.8452V23.3287Z" fill="#BEBDB9"/>
<path d="M9.82227 30.2955L20.0889 32.1765V28.6871L9.82227 26.812V30.2955Z" fill="#BEBDB9"/>
<path fill-rule="evenodd" clip-rule="evenodd" d="M31.8223 31.4602L30.8445 31.6393V28.1516L31.8223 27.973V31.4602ZM31.8223 24.4858L30.8445 24.6639V21.1761L31.8223 20.9987V24.4858ZM31.8223 17.5115L30.8445 17.6884V14.2007L31.8223 14.0244V17.5115ZM31.8223 10.5372L30.8445 10.713V7.22527L31.8223 7.05005V10.5372Z" fill="#8B8987"/>
</svg>
