<svg width="362" height="102" viewBox="0 0 362 102" fill="none" xmlns="http://www.w3.org/2000/svg">
<path d="M3.54381 1.02774H29.5828V9.9539H14.5827V38H3.54381V1.02774ZM13.7904 16.1335H28.5265V24.6372H13.7904V16.1335ZM37.3388 1.02774H48.3776V38H37.3388V1.02774ZM57.2072 1.02774H66.3447L85.0949 24.9541H80.9223V1.02774H91.6971V38H82.6125L63.8094 14.0737H68.0348V38H57.2072V1.02774ZM100.493 1.02774H114.331C118.345 1.02774 121.866 1.78479 124.895 3.29889C127.923 4.77778 130.247 6.90809 131.866 9.68981C133.521 12.4715 134.349 15.7462 134.349 19.5139C134.349 23.2815 133.521 26.5562 131.866 29.3379C130.247 32.1196 127.923 34.2676 124.895 35.7817C121.866 37.2606 118.345 38 114.331 38H100.493V1.02774ZM114.12 28.1231C116.092 28.1231 117.764 27.8062 119.137 27.1724C120.511 26.5386 121.549 25.5879 122.254 24.3203C122.958 23.0174 123.31 21.4153 123.31 19.5139C123.31 17.6124 122.958 16.0279 122.254 14.7603C121.549 13.4575 120.511 12.4891 119.137 11.8553C117.764 11.2215 116.092 10.9046 114.12 10.9046H111.532V28.1231H114.12ZM170.483 18.7744L173.177 25.3238L157.173 1.02774H168.582L179.99 17.5068H172.226L183.687 1.02774H194.885L178.775 25.3238L181.522 18.7744V38H170.483V18.7744ZM215.973 38.7394C212.135 38.7394 208.72 37.9296 205.727 36.3098C202.734 34.6549 200.392 32.3661 198.702 29.4436C197.012 26.521 196.167 23.2111 196.167 19.5139C196.167 15.7814 197.012 12.4715 198.702 9.58417C200.392 6.6616 202.734 4.39045 205.727 2.77071C208.72 1.11577 212.135 0.288291 215.973 0.288291C219.776 0.288291 223.174 1.11577 226.167 2.77071C229.16 4.39045 231.502 6.6616 233.192 9.58417C234.882 12.4715 235.727 15.7814 235.727 19.5139C235.727 23.2111 234.882 26.521 233.192 29.4436C231.502 32.3661 229.16 34.6549 226.167 36.3098C223.174 37.9296 219.776 38.7394 215.973 38.7394ZM215.973 28.6513C217.628 28.6513 219.125 28.2816 220.463 27.5421C221.801 26.7675 222.857 25.6935 223.632 24.3203C224.407 22.9118 224.794 21.3097 224.794 19.5139C224.794 17.7181 224.407 16.1335 223.632 14.7603C222.857 13.3518 221.801 12.2779 220.463 11.5384C219.125 10.7638 217.611 10.3764 215.921 10.3764C214.266 10.3764 212.752 10.7638 211.378 11.5384C210.04 12.2779 208.984 13.3342 208.209 14.7075C207.435 16.0807 207.047 17.6829 207.047 19.5139C207.047 21.3449 207.435 22.947 208.209 24.3203C208.984 25.6935 210.04 26.7675 211.378 27.5421C212.752 28.2816 214.283 28.6513 215.973 28.6513ZM259.267 38.7394C255.746 38.7394 252.735 38.1232 250.235 36.8908C247.771 35.6584 245.869 33.7746 244.531 31.2394C243.228 28.7041 242.577 25.5527 242.577 21.785V1.02774H253.616V21.3625C253.616 23.1583 253.845 24.6196 254.302 25.7463C254.76 26.8379 255.412 27.6478 256.257 28.1759C257.102 28.6689 258.14 28.9154 259.373 28.9154C260.605 28.9154 261.644 28.6689 262.489 28.1759C263.334 27.6478 263.986 26.8379 264.443 25.7463C264.901 24.6196 265.13 23.1583 265.13 21.3625V1.02774H276.01V21.785C276.01 25.5527 275.341 28.7041 274.003 31.2394C272.701 33.7746 270.799 35.6584 268.299 36.8908C265.834 38.1232 262.824 38.7394 259.267 38.7394ZM284.477 1.02774H299.53C302.84 1.02774 305.692 1.53831 308.087 2.55945C310.481 3.54537 312.312 5.02426 313.58 6.99612C314.883 8.93276 315.534 11.2919 315.534 14.0737C315.534 16.8554 314.883 19.2322 313.58 21.204C312.312 23.1407 310.481 24.6196 308.087 25.6407C305.692 26.6266 302.84 27.1196 299.53 27.1196H295.516V38H284.477V1.02774ZM295.041 22.4717H307.189L318.862 38H305.657L295.041 22.4717ZM298.896 18.035C300.164 18.035 301.203 17.9117 302.013 17.6653C302.823 17.4188 303.421 17.0138 303.809 16.4505C304.231 15.8519 304.442 15.0596 304.442 14.0737C304.442 13.0877 304.231 12.3131 303.809 11.7497C303.421 11.1863 302.823 10.7814 302.013 10.5349C301.203 10.2884 300.164 10.1652 298.896 10.1652H295.516V18.035H298.896Z" fill="#81B64C"/>
<path d="M64.3125 47.4302H85.4835C99.2181 47.4302 108.02 54.2056 108.02 66.1757C108.02 78.1457 99.2181 84.9211 85.4835 84.9211H79.413V100.128H64.3125V47.4302ZM84.573 72.2736C90.0364 72.2736 92.8441 70.6926 92.8441 66.1757C92.8441 61.6587 90.0364 60.0777 84.573 60.0777H79.413V72.2736H84.573Z" fill="white" fill-opacity="0.95"/>
<path d="M150.882 88.2336V100.128H114.459V47.4302H150.427V59.8519H129.332V68.4341H148.378V78.8985H129.332V88.2336H150.882Z" fill="white" fill-opacity="0.95"/>
<path d="M159.801 47.4302H172.17L195.389 75.4355V47.4302H210.111V100.128H197.742L174.522 72.123V100.128H159.801V47.4302Z" fill="white" fill-opacity="0.95"/>
<path d="M221.609 47.4302H236.634V100.128H221.609V47.4302Z" fill="white" fill-opacity="0.95"/>
<path d="M248.209 47.4302H260.578L283.797 75.4355V47.4302H298.519V100.128H286.15L262.93 72.123V100.128H248.209V47.4302Z" fill="white" fill-opacity="0.95"/>
<path d="M306.113 73.4029C306.113 54.5821 321.289 45.9999 336.314 45.9999C342.612 45.9999 348.303 47.355 353.008 49.6887V62.1857C348.227 60.2284 342.612 58.798 337.072 58.798C328.118 58.798 320.53 63.0891 320.53 73.7793C320.53 82.4369 326.601 88.309 335.099 88.309C340.942 88.309 347.392 86.0505 347.772 78.2963H332.519V67.4556H359.837C360.596 70.3916 361.051 73.3276 361.051 76.1884C361.051 89.7393 352.173 101.182 335.099 101.182C317.115 101.182 306.113 89.0618 306.113 73.4029Z" fill="white" fill-opacity="0.95"/>
<path d="M15.7659 98.6341C16.6531 97.8059 17.4586 96.8968 18.1591 95.8949C19.7059 93.6827 20.704 91.1405 21.0718 88.4708H16.2562C15.2289 86.9941 14.616 85.28 14.4759 83.4906V82.4482L19.9044 78.8288C17.6571 76.6051 16.3846 73.588 16.3729 70.4377C16.3729 67.3453 17.6104 64.3745 19.8168 62.1913C22.0232 60.0023 25.0118 58.7746 28.1288 58.7746C31.2458 58.7746 34.2402 60.0023 36.4407 62.1913C38.6471 64.3803 39.8846 67.3453 39.8846 70.4377C39.8963 72.007 39.5927 73.5648 38.9974 75.0183C38.402 76.4719 37.5206 77.798 36.4115 78.9157L41.9567 82.4482V83.4906C41.8458 85.28 41.2271 87.0057 40.1764 88.4708H35.3901C35.7636 91.1173 36.7443 93.648 38.2619 95.8544C38.9507 96.8562 39.7387 97.7712 40.6142 98.5993C50.1286 94.3371 56.3684 85.1468 56.3684 73.7733C56.3684 57.9638 44.3032 46.3702 28.1404 46.3702C11.9776 46.3702 -1.20379e-05 57.9696 -1.20379e-05 73.7791C-1.20379e-05 85.1758 6.23396 94.3835 15.7659 98.6341Z" fill="white" fill-opacity="0.95"/>
</svg>
