<svg width="406" height="94" viewBox="0 0 406 94" fill="none" xmlns="http://www.w3.org/2000/svg">
<path d="M72.4257 1.6344H96.2129C111.645 1.6344 121.535 9.37678 121.535 23.055C121.535 36.7332 111.645 44.4756 96.2129 44.4756H89.3922V61.853H72.4257V1.6344ZM95.1898 30.0231C101.328 30.0231 104.483 28.2166 104.483 23.055C104.483 17.8934 101.328 16.0868 95.1898 16.0868H89.3922V30.0231H95.1898Z" fill="white"/>
<path d="M169.693 48.2608V61.853H128.769V1.6344H169.182V15.8288H145.48V25.6358H166.88V37.5935H145.48V48.2608H169.693Z" fill="white"/>
<path d="M179.714 1.6344H193.611L219.701 33.6363V1.6344H236.241V61.853H222.344L196.254 29.8511V61.853H179.714V1.6344Z" fill="white"/>
<path d="M249.161 1.6344H266.042V61.853H249.161V1.6344Z" fill="white"/>
<path d="M279.047 1.6344H292.945L319.034 33.6363V1.6344H335.574V61.853H321.677L295.588 29.8511V61.853H279.047V1.6344Z" fill="white"/>
<path d="M344.107 31.3136C344.107 9.80702 361.159 0 378.04 0C385.116 0 391.511 1.54848 396.797 4.2153V18.4957C391.426 16.259 385.116 14.6245 378.893 14.6245C368.832 14.6245 360.306 19.528 360.306 31.7438C360.306 41.6368 367.127 48.3469 376.676 48.3469C383.241 48.3469 390.488 45.7661 390.914 36.9054H373.777V24.5176H404.47C405.323 27.8726 405.834 31.2276 405.834 34.4966C405.834 49.9814 395.859 63.0574 376.676 63.0574C356.469 63.0574 344.107 49.2072 344.107 31.3136Z" fill="white"/>
<path d="M17.8794 60.1456C18.8763 59.1993 19.7814 58.1604 20.5684 57.0155C22.3064 54.4877 23.4278 51.5826 23.841 48.532H18.4303C17.2761 46.8446 16.5874 44.8858 16.43 42.841V41.6499L22.5293 37.514C20.0044 34.9729 18.5746 31.5252 18.5615 27.9253C18.5615 24.3916 19.9519 20.9969 22.431 18.5021C24.91 16.0008 28.2679 14.5979 31.7701 14.5979C35.2723 14.5979 38.6368 16.0008 41.1093 18.5021C43.5883 21.0035 44.9787 24.3916 44.9787 27.9253C44.9918 29.7187 44.6508 31.4988 43.9818 33.1597C43.3129 34.8207 42.3226 36.3361 41.0765 37.6133L47.307 41.6499V42.841C47.1823 44.8858 46.4872 46.8578 45.3066 48.532H39.9288C40.3485 51.5562 41.4503 54.448 43.1555 56.9692C43.9294 58.114 44.8148 59.1596 45.7985 60.1059C56.4887 55.2355 63.4996 44.7336 63.4996 31.737C63.4996 13.6714 49.9434 0.42334 31.7832 0.42334C13.623 0.42334 0.165222 13.678 0.165222 31.7436C0.165222 44.7667 7.16959 55.2884 17.8794 60.1456Z" fill="white"/>
<path d="M3.68 73.2574H13.208C15.176 73.2574 16.792 73.4574 18.056 73.8574C19.32 74.2574 20.264 74.8814 20.888 75.7294C21.512 76.5614 21.824 77.6254 21.824 78.9214C21.824 80.2654 21.512 81.3614 20.888 82.2094C20.264 83.0574 19.32 83.6814 18.056 84.0814C16.792 84.4814 15.176 84.6814 13.208 84.6814H8.264V90.0574H3.68V73.2574ZM9.92 82.9774H15.488L22.952 90.0574H17.168L9.92 82.9774ZM12.92 80.9614C13.976 80.9614 14.8 80.9054 15.392 80.7934C16 80.6814 16.456 80.4814 16.76 80.1934C17.064 79.9054 17.216 79.4814 17.216 78.9214C17.216 78.4094 17.064 78.0174 16.76 77.7454C16.456 77.4574 16 77.2574 15.392 77.1454C14.784 77.0334 13.96 76.9774 12.92 76.9774H8.264V80.9614H12.92ZM25.5228 73.2574H41.7708V76.9534H30.0348V80.0494H40.8348V83.2414H30.0348V86.4094H41.9868V90.0574H25.5228V73.2574ZM56.9369 90.2734C54.4089 90.2734 52.2329 89.9134 50.4089 89.1934C48.5849 88.4574 47.1929 87.4414 46.2329 86.1454C45.2729 84.8334 44.7929 83.3374 44.7929 81.6574C44.7929 79.9774 45.2729 78.4894 46.2329 77.1934C47.1929 75.8814 48.5849 74.8654 50.4089 74.1454C52.2329 73.4094 54.4089 73.0414 56.9369 73.0414C57.7849 73.0414 58.6569 73.1054 59.5529 73.2334C60.4649 73.3614 61.3289 73.5454 62.1449 73.7854V77.6734C61.3289 77.4174 60.4809 77.2334 59.6009 77.1214C58.7369 76.9934 57.9129 76.9294 57.1289 76.9294C55.6089 76.9294 54.2729 77.1214 53.1209 77.5054C51.9689 77.8894 51.0649 78.4414 50.4089 79.1614C49.7689 79.8654 49.4489 80.6974 49.4489 81.6574C49.4489 82.6174 49.7689 83.4574 50.4089 84.1774C51.0649 84.8814 51.9689 85.4254 53.1209 85.8094C54.2729 86.1934 55.6089 86.3854 57.1289 86.3854C57.9129 86.3854 58.7289 86.3214 59.5769 86.1934C60.4409 86.0654 61.2969 85.8814 62.1449 85.6414V89.5294C61.3289 89.7694 60.4729 89.9534 59.5769 90.0814C58.6809 90.2094 57.8009 90.2734 56.9369 90.2734ZM76.2729 90.3934C74.0169 90.3934 72.0489 90.0414 70.3689 89.3374C68.6889 88.6174 67.3849 87.6014 66.4569 86.2894C65.5449 84.9774 65.0889 83.4334 65.0889 81.6574C65.0889 79.8814 65.5449 78.3374 66.4569 77.0254C67.3849 75.7134 68.6889 74.7054 70.3689 74.0014C72.0489 73.2814 74.0169 72.9214 76.2729 72.9214C78.5289 72.9214 80.4889 73.2814 82.1529 74.0014C83.8329 74.7054 85.1289 75.7134 86.0409 77.0254C86.9689 78.3374 87.4329 79.8814 87.4329 81.6574C87.4329 83.4334 86.9689 84.9774 86.0409 86.2894C85.1289 87.6014 83.8329 88.6174 82.1529 89.3374C80.4889 90.0414 78.5289 90.3934 76.2729 90.3934ZM76.2729 86.4334C77.5689 86.4334 78.7049 86.2334 79.6809 85.8334C80.6569 85.4334 81.4089 84.8814 81.9369 84.1774C82.4809 83.4574 82.7529 82.6174 82.7529 81.6574C82.7529 80.6974 82.4809 79.8654 81.9369 79.1614C81.4089 78.4414 80.6569 77.8814 79.6809 77.4814C78.7049 77.0814 77.5689 76.8814 76.2729 76.8814C74.9769 76.8814 73.8329 77.0814 72.8409 77.4814C71.8649 77.8814 71.1049 78.4414 70.5609 79.1614C70.0169 79.8814 69.7449 80.7134 69.7449 81.6574C69.7449 82.6014 70.0169 83.4334 70.5609 84.1534C71.1049 84.8734 71.8649 85.4334 72.8409 85.8334C73.8169 86.2334 74.9609 86.4334 76.2729 86.4334ZM91.0512 73.2574H96.1152L104.443 82.9534H102.283L110.587 73.2574H115.627L115.651 90.0574H111.187L111.139 79.0654L111.355 79.0414L103.387 88.3054L95.2752 79.0174L95.5632 79.0414L95.5152 90.0574H91.0512V73.2574ZM119.972 73.2574H125.036L133.364 82.9534H131.204L139.508 73.2574H144.548L144.572 90.0574H140.108L140.06 79.0654L140.276 79.0414L132.308 88.3054L124.196 79.0174L124.484 79.0414L124.436 90.0574H119.972V73.2574ZM148.893 73.2574H165.141V76.9534H153.405V80.0494H164.205V83.2414H153.405V86.4094H165.357V90.0574H148.893V73.2574ZM168.955 73.2574H172.867L186.379 85.2334H184.627V73.2574H189.187V90.0574H185.275L171.787 78.0814H173.539V90.0574H168.955V73.2574ZM193.516 73.2574H202.132C204.356 73.2574 206.26 73.6014 207.844 74.2894C209.444 74.9614 210.66 75.9294 211.492 77.1934C212.34 78.4574 212.764 79.9454 212.764 81.6574C212.764 83.3694 212.34 84.8574 211.492 86.1214C210.66 87.3854 209.444 88.3614 207.844 89.0494C206.26 89.7214 204.356 90.0574 202.132 90.0574H193.516V73.2574ZM201.844 86.1454C203.268 86.1454 204.444 85.9774 205.372 85.6414C206.3 85.2894 206.98 84.7854 207.412 84.1294C207.86 83.4574 208.084 82.6334 208.084 81.6574C208.084 80.6814 207.86 79.8654 207.412 79.2094C206.98 78.5374 206.3 78.0334 205.372 77.6974C204.444 77.3454 203.268 77.1694 201.844 77.1694H198.1V86.1454H201.844ZM222.768 73.2574H228.312L238.152 90.0574H232.92L224.832 75.6814H226.224L218.16 90.0574H212.976L222.768 73.2574ZM219.96 83.0014H231.408L232.848 86.6734H218.592L219.96 83.0014ZM243.794 77.0494H236.546V73.2574H255.554V77.0494H248.33V90.0574H243.794V77.0494ZM258.904 73.2574H263.488V90.0574H258.904V73.2574ZM278.225 90.3934C275.969 90.3934 274.001 90.0414 272.321 89.3374C270.641 88.6174 269.337 87.6014 268.409 86.2894C267.497 84.9774 267.041 83.4334 267.041 81.6574C267.041 79.8814 267.497 78.3374 268.409 77.0254C269.337 75.7134 270.641 74.7054 272.321 74.0014C274.001 73.2814 275.969 72.9214 278.225 72.9214C280.481 72.9214 282.441 73.2814 284.105 74.0014C285.785 74.7054 287.081 75.7134 287.993 77.0254C288.921 78.3374 289.385 79.8814 289.385 81.6574C289.385 83.4334 288.921 84.9774 287.993 86.2894C287.081 87.6014 285.785 88.6174 284.105 89.3374C282.441 90.0414 280.481 90.3934 278.225 90.3934ZM278.225 86.4334C279.521 86.4334 280.657 86.2334 281.633 85.8334C282.609 85.4334 283.361 84.8814 283.889 84.1774C284.433 83.4574 284.705 82.6174 284.705 81.6574C284.705 80.6974 284.433 79.8654 283.889 79.1614C283.361 78.4414 282.609 77.8814 281.633 77.4814C280.657 77.0814 279.521 76.8814 278.225 76.8814C276.929 76.8814 275.785 77.0814 274.793 77.4814C273.817 77.8814 273.057 78.4414 272.513 79.1614C271.969 79.8814 271.697 80.7134 271.697 81.6574C271.697 82.6014 271.969 83.4334 272.513 84.1534C273.057 84.8734 273.817 85.4334 274.793 85.8334C275.769 86.2334 276.913 86.4334 278.225 86.4334ZM293.004 73.2574H296.916L310.428 85.2334H308.676V73.2574H313.236V90.0574H309.324L295.836 78.0814H297.588V90.0574H293.004V73.2574ZM339.254 90.3934C336.998 90.3934 335.03 90.0414 333.35 89.3374C331.67 88.6174 330.366 87.6014 329.438 86.2894C328.526 84.9774 328.07 83.4334 328.07 81.6574C328.07 79.8814 328.526 78.3374 329.438 77.0254C330.366 75.7134 331.67 74.7054 333.35 74.0014C335.03 73.2814 336.998 72.9214 339.254 72.9214C341.51 72.9214 343.47 73.2814 345.134 74.0014C346.814 74.7054 348.11 75.7134 349.022 77.0254C349.95 78.3374 350.414 79.8814 350.414 81.6574C350.414 83.4334 349.95 84.9774 349.022 86.2894C348.11 87.6014 346.814 88.6174 345.134 89.3374C343.47 90.0414 341.51 90.3934 339.254 90.3934ZM339.254 86.4334C340.55 86.4334 341.686 86.2334 342.662 85.8334C343.638 85.4334 344.39 84.8814 344.918 84.1774C345.462 83.4574 345.734 82.6174 345.734 81.6574C345.734 80.6974 345.462 79.8654 344.918 79.1614C344.39 78.4414 343.638 77.8814 342.662 77.4814C341.686 77.0814 340.55 76.8814 339.254 76.8814C337.958 76.8814 336.814 77.0814 335.822 77.4814C334.846 77.8814 334.086 78.4414 333.542 79.1614C332.998 79.8654 332.726 80.6974 332.726 81.6574C332.726 82.6174 332.998 83.4574 333.542 84.1774C334.086 84.8814 334.846 85.4334 335.822 85.8334C336.814 86.2334 337.958 86.4334 339.254 86.4334ZM351.806 93.6574C350.174 93.6734 348.798 93.5694 347.678 93.3454C346.558 93.1214 345.534 92.7454 344.606 92.2174C343.694 91.6894 342.678 90.9454 341.558 89.9854L343.838 87.3454C344.766 88.1454 345.574 88.7454 346.262 89.1454C346.95 89.5294 347.71 89.8014 348.542 89.9614C349.374 90.1054 350.454 90.1694 351.782 90.1534L351.806 93.6574ZM363.37 90.3934C361.306 90.3934 359.562 90.0894 358.138 89.4814C356.714 88.8734 355.626 87.9214 354.874 86.6254C354.122 85.3294 353.746 83.6654 353.746 81.6334V73.2574H358.33V81.0574C358.33 82.3534 358.522 83.3934 358.906 84.1774C359.306 84.9614 359.874 85.5294 360.61 85.8814C361.362 86.2174 362.282 86.3854 363.37 86.3854C364.49 86.3854 365.418 86.2174 366.154 85.8814C366.906 85.5294 367.474 84.9614 367.858 84.1774C368.258 83.3934 368.458 82.3534 368.458 81.0574V73.2574H372.994V81.6334C372.994 83.6654 372.61 85.3294 371.842 86.6254C371.09 87.9214 370.002 88.8734 368.578 89.4814C367.154 90.0894 365.418 90.3934 363.37 90.3934ZM377.094 73.2574H381.678V90.0574H377.094V73.2574ZM385.639 87.0574L398.047 75.2494L398.599 77.0494H385.639V73.2574H402.511V76.2574L390.055 88.0654L389.503 86.2654H402.559V90.0574H385.639V87.0574Z" fill="#81B64C"/>
</svg>
