<svg width="25" height="24" viewBox="0 0 25 24" fill="none" xmlns="http://www.w3.org/2000/svg">
<path d="M13.5 22.4667C19.5667 22.4667 24 17.6 24 12C24 6.06667 19.2 1.50001 13.5 1.50001C10.8 1.50001 8.13332 2.53334 6.06666 4.56668L4.59999 6.03334L6.73332 8.16667L8.19999 6.70001C9.66666 5.23334 11.6 4.50001 13.5 4.50001C17.6333 4.50001 21 7.86667 21 12C21 16.1333 17.6333 19.5 13.5 19.5C10.9667 19.5 8.99999 18.3333 7.49999 16.5333C6.86666 15.6667 6.29999 15.5667 5.39999 16.2C4.53332 16.8667 4.43332 17.4 5.06666 18.3C7.09999 20.8667 9.89999 22.4667 13.5 22.4667ZM2.66666 11.6333L8.49999 11.3667C9.43332 11.3333 9.56666 10.9 8.93332 10.2667L2.59999 3.93334C1.96666 3.30001 1.53332 3.43334 1.49999 4.36667L1.23332 10.2C1.19999 11.3 1.56666 11.6667 2.66666 11.6333Z" fill="white" fill-opacity="0.5"/>
</svg>
