<svg width="44" height="44" viewBox="0 0 44 44" fill="none" xmlns="http://www.w3.org/2000/svg">
<g clip-path="url(#clip0_989_6303)">
<mask id="mask0_989_6303" style="mask-type:luminance" maskUnits="userSpaceOnUse" x="0" y="0" width="44" height="44">
<path d="M44 0H0V44H44V0Z" fill="white"/>
</mask>
<g mask="url(#mask0_989_6303)">
<path d="M43.032 40.7172C41.4136 36.8031 31.8866 33.9871 29.0476 32.9502C29.0476 32.9502 24.2842 31.7029 21.537 31.7029C18.7899 31.7029 14.0264 32.9502 14.0264 32.9502C11.7729 33.7729 5.5746 35.5022 2.19234 38.2226C0.994773 39.1868 0.187469 41.1036 0.179817 42.6379L0.15686 46.705H44.2296L43.032 40.7134V40.7172Z" fill="#F6F6F6"/>
<path d="M15.5875 29.5106C15.5875 29.5106 12.0981 29.5259 11.0842 31.879C11.0842 31.879 5.90366 33.1033 6.2174 35.9193L21.7743 42.7757V39.183L15.0595 33.6504L15.5875 29.5144V29.5106Z" fill="#F9F9F9"/>
<path d="M0.990942 40.8014C2.61703 36.9447 12.1899 34.1669 15.0442 33.1415C15.0442 33.1415 19.8306 31.9095 22.593 31.9095C25.3555 31.9095 30.1419 33.1415 30.1419 33.1415C32.4031 33.9527 37.9433 35.0163 42.1329 38.4407C43.3343 39.3895 43.9311 41.1266 43.9388 42.6379L44.2296 46.705H44.0421H1.14399H-0.210449L0.990942 40.7975V40.8014Z" fill="#F6F6F6"/>
<path d="M28.5005 29.7555C28.5005 29.7555 32.0397 29.6445 33.0498 31.9631C33.0498 31.9631 38.303 33.1033 38.0849 36.2101L22.3099 42.8292V39.2863L29.0247 33.8303L28.4967 29.7555H28.5005Z" fill="#F9F9F9"/>
<path d="M42.2515 38.8807C39.0567 35.9269 32.0129 33.8188 29.6407 32.9502C29.6407 32.9502 24.8772 31.7029 22.1301 31.7029C19.3829 31.7029 14.6195 32.9502 14.6195 32.9502C12.2473 33.8188 5.20729 35.9269 2.00868 38.8807C1.20138 39.6268 0.654248 40.6101 0.439987 41.6852L-0.34436 46.7089H44.4323L43.8622 42.0563C43.7589 41.2108 43.4567 40.3958 42.9669 39.6995C42.7603 39.4049 42.5193 39.1294 42.2515 38.8807Z" fill="#D2D2D5"/>
<path d="M31.615 14.3364C32.0052 13.487 32.2348 12.4501 32.2348 11.3291C32.2348 8.47481 30.7464 6.16003 28.9137 6.16003C28.9061 6.16003 28.8984 6.16003 28.887 6.16003C28.3131 4.07481 27.1423 0.80351 24.2191 1.60316C23.7562 1.72942 23.431 1.46542 23.0254 1.62612C22.1722 0.340554 19.4404 -0.290751 18.1127 1.11725C17.095 2.20003 16.0849 2.62855 15.2852 2.93081C14.7572 3.11064 14.168 3.12212 13.6017 2.93081C13.1082 2.76247 12.871 2.33012 12.8251 1.99342C12.2894 2.64768 12.2473 3.82612 12.8059 4.5569C12.6261 4.51864 12.4424 4.49568 12.2511 4.49568C10.7972 4.49568 9.62262 5.6856 9.62262 7.15481C9.62262 8.08455 10.0932 8.90334 10.8087 9.37777C10.6633 9.82925 10.5868 10.3113 10.5868 10.8087C10.5868 11.8112 10.9005 12.7371 11.4362 13.4908C11.2028 14.4167 11.0957 15.4804 11.44 16.9802C11.44 16.9802 12.5917 19.7503 12.7332 20.0334H29.9927L30.3944 19.2567L30.8497 19.5131L31.0219 18.7708L31.2132 18.8397C31.4925 18.2543 31.7718 17.5044 31.8598 16.7277C31.9134 16.7545 31.6035 15.576 31.6226 14.3326L31.615 14.3364Z" fill="#7A594A"/>
<path d="M29.8664 16.4292C31.7238 16.4292 33.2296 14.1886 33.2296 11.4247C33.2296 8.66077 31.7238 6.42017 29.8664 6.42017C28.009 6.42017 26.5033 8.66077 26.5033 11.4247C26.5033 14.1886 28.009 16.4292 29.8664 16.4292Z" fill="#7A594A"/>
<path d="M30.1381 7.63687C30.1381 7.63687 29.0706 1.76382 25.9294 1.35443C25.8146 1.6873 25.6998 2.024 25.5927 2.35687C25.0915 3.91408 24.6821 5.49426 24.4525 7.11652C24.399 7.54504 24.3569 7.97356 24.3263 8.40208C24.2077 10.097 24.288 11.7996 24.5061 13.4831C24.6362 14.4205 24.816 15.3464 25.015 16.2723C25.0915 16.6396 25.168 17.0031 25.2483 17.3704H32.4529C32.4682 17.16 32.4797 16.9457 32.5064 16.72C32.5638 16.7468 32.5753 15.5033 32.6059 14.279C32.5868 13.4908 32.4643 12.8595 32.6595 12.1057L32.4031 11.7308L32.7398 11.7767C32.7437 11.7537 32.7513 11.7308 32.7551 11.7078L32.4299 11.2066L32.8125 11.4438C33.088 10.032 32.8967 8.7273 30.1419 7.63687H30.1381Z" fill="#7A594A"/>
<path d="M29.5297 16.4981C31.385 16.4981 32.889 14.1839 32.889 11.3291C32.889 8.47429 31.385 6.16003 29.5297 6.16003C27.6744 6.16003 26.1704 8.47429 26.1704 11.3291C26.1704 14.1839 27.6744 16.4981 29.5297 16.4981Z" fill="#654638"/>
<path d="M15.6257 15.4344C18.1826 15.4344 20.2553 13.3617 20.2553 10.8049C20.2553 8.24802 18.1826 6.17529 15.6257 6.17529C13.0689 6.17529 10.9962 8.24802 10.9962 10.8049C10.9962 13.3617 13.0689 15.4344 15.6257 15.4344Z" fill="#654638"/>
<path d="M13.7777 16.5364C12.6528 16.3298 11.6351 16.3833 11.1875 17.0797C11.0956 17.2212 11.0268 17.3858 10.9847 17.5847C10.7628 18.6637 11.1721 20.1405 12.2894 22.4706C12.76 23.3965 14.3172 22.5012 14.3172 22.5012L13.7815 16.5364H13.7777Z" fill="#EEC1AF"/>
<path d="M14.0953 16.6588C12.9704 16.456 11.9527 16.5096 11.505 17.1945C11.4132 17.3322 11.3443 17.4967 11.3022 17.688C11.0803 18.744 11.8341 21.1812 12.3238 22.2602C12.3659 22.352 12.4042 22.4324 12.4386 22.5012C12.9092 23.408 14.6309 22.5089 14.6309 22.5089L14.0953 16.655V16.6588Z" fill="#E3A692"/>
<path d="M30.2376 16.8692C31.2936 16.6703 32.2501 16.7276 32.6671 17.3857C32.7551 17.5196 32.8163 17.6765 32.8546 17.864C33.0612 18.8856 32.3534 21.2386 31.8981 22.2831C31.8598 22.3711 31.8254 22.4515 31.7871 22.5165C31.3433 23.3927 29.7325 22.5242 29.7325 22.5242L30.2376 16.8692Z" fill="#EEC1AF"/>
<path d="M30.0271 16.2456C31.152 16.0428 32.1697 16.0964 32.6174 16.7813C32.7092 16.919 32.7781 17.0835 32.8201 17.2748C33.0421 18.3308 32.2883 20.768 31.7986 21.847C31.7565 21.9388 31.7182 22.0192 31.6838 22.088C31.2132 22.9948 29.4915 22.0957 29.4915 22.0957L30.0271 16.2418V16.2456Z" fill="#E3A692"/>
<path d="M30.888 19.2452C30.888 19.2452 31.3969 19.536 31.0563 20.1443C30.7158 20.7527 30.7426 21.2616 31.1788 20.6302C31.615 19.9989 32.3763 19.4059 32.0435 18.0629C31.7106 16.72 31.2744 17.401 30.888 19.2452Z" fill="#D9927A"/>
<path d="M13.1579 19.6584C13.1579 19.6584 12.649 19.9492 12.9896 20.5575C13.3301 21.1659 13.3033 21.6748 12.8671 21.0435C12.431 20.4122 11.6696 19.8191 12.0024 18.4762C12.3353 17.1332 12.7715 17.8142 13.1579 19.6584Z" fill="#D9927A"/>
<path d="M29.8014 7.41494C29.8014 7.41494 28.4852 -0.0765359 24.4755 1.01007C21.055 1.93599 19.1993 4.02503 18.0285 4.1092C16.8577 4.19338 12.3736 6.43164 12.649 9.33181C12.9245 12.232 10.9962 13.2765 11.857 16.984L12.3277 17.2365L12.0101 17.4929L12.3277 17.7798L12.079 17.7607C12.0943 17.8028 12.1057 17.841 12.121 17.8831L12.561 18.2963L12.2511 18.2313C12.6146 19.1496 13.024 19.7579 13.1656 20.041H30.6202L31.0257 19.2643L31.4849 19.5207L31.657 18.7784L31.8522 18.8473C32.1353 18.2619 32.4184 17.512 32.5026 16.7353C32.56 16.7621 32.2348 15.5454 32.2616 14.2789C32.2424 13.4678 32.12 12.8097 32.3151 12.033L32.0588 11.6466L32.3955 11.6925C32.3993 11.6696 32.407 11.6466 32.4108 11.6198L32.0856 11.1033L32.4643 11.3482C32.7398 9.88659 32.5485 8.53981 29.7976 7.41494H29.8014Z" fill="#654638"/>
<path d="M28.7454 33.8418L27.7544 15.1666L22.0459 15.5033L16.3374 15.1666L15.3464 33.8418L22.0459 39.3628L28.7454 33.8418Z" fill="#E3A692"/>
<path d="M22.0612 14.9255L16.3527 14.5697L15.6257 28.5158C16.697 29.7784 18.3576 32.472 19.8612 33.0803C20.0525 33.13 20.2438 33.1836 20.4428 33.2257C20.9899 33.3405 21.5294 33.3787 22.0574 33.3673C22.5854 33.3787 23.1249 33.3405 23.672 33.2257C23.8748 33.1836 24.0623 33.13 24.2536 33.0803C25.761 32.472 28.424 28.4622 28.424 28.4622L27.7697 14.5697L22.0612 14.9255Z" fill="#D9927A"/>
<path d="M30.4021 17.2901L29.4609 14.8184C29.4609 14.8184 29.9047 9.90191 27.8042 8.11896L22.5586 9.81774C22.1837 9.94018 21.7819 9.93635 21.407 9.81774L17.6765 8.59339C16.6511 8.2567 15.5339 8.78087 15.159 9.78331C14.719 10.9541 14.6118 12.3468 14.6004 13.3683C14.6118 13.3951 14.6157 13.4104 14.6118 13.4143C14.608 13.4219 14.6042 13.4296 14.6004 13.4372C14.5965 14.256 14.6539 14.8223 14.6539 14.8223L13.64 17.4087C13.64 17.8296 13.6591 18.457 13.6591 18.457C13.6783 20.0678 13.7204 20.6915 13.6898 22.0459C13.6783 22.6466 13.7089 23.232 13.7931 23.7944C13.9729 25.0456 14.5391 26.2163 15.3962 27.1499C16.4484 28.2977 18.2351 30.4901 19.8421 31.1023C20.0334 31.152 20.2247 31.2017 20.4237 31.24C20.9708 31.3471 21.5103 31.3854 22.0383 31.3739C22.5663 31.3854 23.1058 31.3471 23.6529 31.24C23.8557 31.2017 24.0431 31.152 24.2344 31.1023C25.8376 30.4901 27.6282 28.3016 28.6804 27.1499C29.5374 26.2163 30.0998 25.0456 30.2835 23.7944C30.3638 23.2282 30.3983 22.6428 30.3868 22.0459C30.36 20.7565 30.3868 18.8167 30.3983 17.2939L30.4021 17.2901Z" fill="#EEC1AF"/>
<path d="M29.2198 24.9767L27.1002 27.72L27.7123 24.1311C27.8501 23.4845 27.6129 23.0904 27.6129 23.0904C27.6129 23.0904 26.9816 22.8417 25.9256 22.3137C25.1412 21.9197 24.7012 21.1889 24.5252 20.8407H19.5704C19.3983 21.1889 18.9544 21.9197 18.1701 22.3137C17.1141 22.8417 16.4828 23.0904 16.4828 23.0904C16.4828 23.0904 16.2417 23.4845 16.3833 24.1311L16.9955 27.72L14.8758 24.9767L13.7586 23.519C13.7701 23.6376 13.7854 23.7562 13.8045 23.871C13.9843 25.1221 14.5506 26.2929 15.4077 27.2264C16.4598 28.3743 18.2466 30.5666 19.8536 31.1788C20.041 31.2247 20.833 31.439 22.0957 31.4504C22.0957 31.4504 22.111 31.4504 22.1186 31.4504C22.1263 31.4504 22.1339 31.4504 22.1416 31.4504C23.4003 31.439 24.0584 31.2247 24.2459 31.1788C25.849 30.5666 27.6397 28.3781 28.6918 27.2264C29.5489 26.2929 30.1113 25.1221 30.295 23.871C30.3103 23.7523 30.3256 23.6376 30.3409 23.519L29.2237 24.9767H29.2198Z" fill="url(#paint0_linear_989_6303)"/>
<path opacity="0.62" d="M26.7711 17.3627C26.3311 17.0681 25.8911 16.7774 25.4588 16.4751H23.9628L23.2052 16.8041H20.8101L20.1022 16.4751H18.1012C18.1012 16.4751 18.0974 16.4789 18.0935 16.4828C17.4202 17.0949 16.6549 17.6267 15.9892 18.2542H28.0873C27.6473 17.9596 27.2149 17.6535 26.7749 17.3627H26.7711Z" fill="url(#paint1_linear_989_6303)"/>
<path d="M27.5555 17.688C28.1524 17.7377 28.6459 17.9788 29.1624 18.2504C28.5656 18.3652 27.984 18.0936 27.5555 17.688Z" fill="#E3A799"/>
<path d="M22.727 23.1401C22.727 23.1401 22.6007 21.4452 22.6007 21.384L22.153 21.3687H22.1071H22.0612L21.6136 21.384C21.6136 21.4413 21.4873 23.1401 21.4873 23.1401C21.4873 23.1401 21.7207 23.2664 22.1033 23.2587C22.4859 23.2664 22.7193 23.1401 22.7193 23.1401H22.727Z" fill="url(#paint2_linear_989_6303)"/>
<path d="M24.265 20.7948C24.1503 20.4925 23.6873 20.1444 23.6873 20.1444L23.0407 17.0605H20.921L20.2209 20.1138C20.2209 20.1138 19.8 20.5002 19.7273 20.8025C19.6087 21.2807 19.5704 21.8661 20.416 21.8891C21.0741 21.9082 21.1162 21.6557 21.495 21.8164C21.6557 21.8852 21.824 21.9388 22.0038 21.9426H22.023C22.2066 21.9465 22.3826 21.9005 22.551 21.8393C22.968 21.6863 23.1134 21.9809 23.6414 21.9273C24.5673 21.8355 24.4487 21.2578 24.2727 20.7948H24.265Z" fill="url(#paint3_linear_989_6303)"/>
<path opacity="0.34" d="M22.6543 20.68C22.6543 20.8904 22.375 21.0626 22.0344 21.0626C21.6939 21.0626 21.4146 20.8904 21.4146 20.68C21.4146 20.4696 22.0344 17.6689 22.0344 17.6689C22.0344 17.6689 22.6543 20.4696 22.6543 20.68Z" fill="url(#paint4_linear_989_6303)"/>
<path d="M16.4636 17.577C16.1537 18.1012 15.4268 18.392 14.8567 18.1395C15.4497 17.9673 15.8821 17.7836 16.4636 17.577Z" fill="#E3A799"/>
<path d="M19.8115 15.7596L19.5513 15.2584C19.5513 15.2584 19.5054 15.4421 19.5437 15.5109L19.2682 15.0786C19.1343 15.0365 18.9889 15.0021 18.8167 14.9562L17.424 14.8376C17.0605 14.8146 16.1193 14.9562 15.8821 15.2431C15.312 15.9356 15.0748 16.2838 14.9677 16.4981H15.9739C16.0045 16.4828 16.0313 16.4675 16.0619 16.4522C15.9816 16.3833 15.8821 16.2991 15.8821 16.2991L16.2685 16.3527C16.3412 16.3221 16.609 16.2379 16.6817 16.2111L16.0657 15.9548C16.0657 15.9548 17.3934 16.0849 17.4967 16.0849H19.7885C19.8344 16.0849 19.8803 16.0963 19.9263 16.1116L19.8077 15.7558L19.8115 15.7596Z" fill="#654638"/>
<path d="M24.2306 15.7597L24.4908 15.2585C24.4908 15.2585 24.5367 15.4421 24.4984 15.511L24.7739 15.0786C24.9078 15.0365 25.0532 15.0021 25.2254 14.9562L27.2073 14.8261C27.5708 14.8032 27.9228 14.9562 28.1562 15.2432C28.7263 15.9357 28.9635 16.2838 29.0706 16.4981H28.0643C28.0337 16.4828 28.007 16.4675 27.9763 16.4522C28.0567 16.3833 28.1562 16.2992 28.1562 16.2992L27.7697 16.3527C27.697 16.3221 27.4292 16.2379 27.3565 16.2112L27.9725 15.9548C27.9725 15.9548 26.6449 16.0849 26.5416 16.0849H24.2497C24.2038 16.0849 24.1579 16.0964 24.112 16.1117L24.2306 15.7558V15.7597Z" fill="#654638"/>
<path d="M20.3548 20.1635C20.1214 20.4122 19.8612 20.6609 19.8153 20.9823C19.647 21.5485 19.9416 21.7819 20.4849 21.7857C20.833 21.801 21.1659 21.5179 21.5447 21.6786C21.7054 21.736 21.847 21.7704 21.9885 21.7704C22.2525 21.7896 22.4324 21.648 22.7078 21.6021C23.0024 21.5791 23.2167 21.7437 23.4922 21.7398C24.0317 21.7934 24.3531 21.583 24.2612 21.0052C24.2612 20.6762 24.0317 20.4007 23.8212 20.1329C23.959 20.2362 24.089 20.351 24.2038 20.4887C24.441 20.7757 24.5405 21.1583 24.464 21.537C24.2765 22.1684 23.431 22.1339 22.9297 21.9924C22.7652 21.9503 22.7346 21.9579 22.551 22.0383C22.2143 22.199 21.7513 22.1798 21.4223 22.0306C21.2922 21.9809 21.2004 21.9924 21.032 22.0421C20.6838 22.1607 20.2591 22.1454 19.911 21.9732C19.1037 21.5332 19.735 20.4581 20.3548 20.1597V20.1635Z" fill="#CA8075"/>
<path d="M20.8292 17.577C20.7909 17.4087 20.7795 17.248 20.7871 17.0911L20.833 17.2097C20.4236 16.9533 20.0525 16.6549 19.7694 16.2532C20.2591 16.4253 20.6685 16.7238 21.0435 17.0758C20.9937 17.2518 20.9287 17.4163 20.8292 17.5808V17.577Z" fill="#CA8075"/>
<path d="M23.1899 17.577C23.0943 17.4125 23.0369 17.2442 22.9948 17.0682L23.056 17.0108C23.4157 16.6894 23.8021 16.4101 24.265 16.2494C23.9819 16.6511 23.6108 16.9496 23.2014 17.2059L23.2473 17.0911C23.2473 17.248 23.232 17.4087 23.1861 17.5732L23.1899 17.577Z" fill="#CA8075"/>
<path d="M21.9426 29.568C22.5662 29.5336 22.792 30.5054 22.3022 30.8268C22.2181 30.3639 22.1798 29.9812 21.9426 29.568Z" fill="#D29D94"/>
<path d="M24.0929 17.5005C25.1833 17.6115 27.3604 17.5656 27.3604 17.5656C27.3604 17.5656 27.2609 17.3092 26.775 17.1447C25.9791 16.8731 25.5009 16.655 25.5009 16.655C25.5009 16.655 24.4104 16.5517 24.0891 17.5005H24.0929Z" fill="white"/>
<path d="M23.8863 17.47C23.9322 16.8654 24.5214 16.4637 25.0647 16.326C25.8988 16.3145 26.7405 16.5555 27.4445 16.9993C27.6703 17.1524 27.8922 17.3131 28.072 17.512C27.8463 17.3628 27.6167 17.2327 27.3718 17.1256C26.6564 16.7927 25.8797 16.6206 25.0953 16.6053C24.7739 16.6856 24.0814 16.984 23.8824 17.47H23.8863Z" fill="#CA8075"/>
<mask id="mask1_989_6303" style="mask-type:luminance" maskUnits="userSpaceOnUse" x="24" y="16" width="4" height="2">
<path d="M24.1043 17.5005C24.9116 17.5656 26.1283 17.5732 27.4216 17.5656C27.4216 17.5656 27.0275 17.2327 26.5416 17.0682C25.3057 16.5746 25.08 16.6932 25.08 16.6932C25.08 16.6932 24.1694 16.9955 24.1043 17.5044V17.5005Z" fill="white"/>
</mask>
<g mask="url(#mask1_989_6303)">
<path d="M25.7266 17.8602C26.1661 17.8602 26.5224 17.5484 26.5224 17.1638C26.5224 16.7792 26.1661 16.4675 25.7266 16.4675C25.2871 16.4675 24.9308 16.7792 24.9308 17.1638C24.9308 17.5484 25.2871 17.8602 25.7266 17.8602Z" fill="#644537"/>
</g>
<path d="M27.6396 17.6651C26.8094 17.2251 25.9791 16.9075 25.0762 16.7851L25.1144 16.7774C24.9537 16.831 24.793 16.8999 24.6362 16.9687C24.4831 17.0453 24.3263 17.1218 24.2076 17.2557C24.288 17.095 24.441 16.9802 24.5826 16.8769C24.728 16.7698 24.881 16.6856 25.0456 16.6014H25.057L25.0838 16.5938C25.5621 16.5708 26.048 16.6588 26.488 16.8463C26.928 17.03 27.3374 17.2978 27.6435 17.6651H27.6396Z" fill="#644537"/>
<path d="M26.136 17.4508C26.2522 17.4508 26.3464 17.36 26.3464 17.248C26.3464 17.136 26.2522 17.0452 26.136 17.0452C26.0198 17.0452 25.9256 17.136 25.9256 17.248C25.9256 17.36 26.0198 17.4508 26.136 17.4508Z" fill="white"/>
<path d="M19.9569 17.5005C18.8664 17.6115 16.6894 17.5656 16.6894 17.5656C16.6894 17.5656 16.7889 17.3092 17.2748 17.1447C18.0706 16.8731 18.5489 16.655 18.5489 16.655C18.5489 16.655 19.6393 16.5517 19.9607 17.5005H19.9569Z" fill="white"/>
<path d="M20.1635 17.4699C19.9683 16.984 19.272 16.6855 18.9506 16.6052C18.1663 16.6205 17.3896 16.7965 16.6741 17.1255C16.4292 17.2327 16.1996 17.3628 15.9739 17.512C16.3489 17.1179 16.8271 16.8271 17.336 16.6281C17.8525 16.4254 18.4111 16.3259 18.9697 16.3182C19.5207 16.456 20.1176 16.8577 20.1635 17.4661V17.4699Z" fill="#CA8075"/>
<mask id="mask2_989_6303" style="mask-type:luminance" maskUnits="userSpaceOnUse" x="16" y="16" width="4" height="2">
<path d="M19.9415 17.5005C19.1342 17.5656 17.9175 17.5732 16.6243 17.5656C16.6243 17.5656 17.0184 17.2327 17.5043 17.0682C18.7402 16.5746 18.9659 16.6932 18.9659 16.6932C18.9659 16.6932 19.8765 16.9955 19.9415 17.5044V17.5005Z" fill="white"/>
</mask>
<g mask="url(#mask2_989_6303)">
<path d="M18.3193 17.9252C18.7884 17.9252 19.1687 17.5929 19.1687 17.1829C19.1687 16.773 18.7884 16.4407 18.3193 16.4407C17.8502 16.4407 17.4699 16.773 17.4699 17.1829C17.4699 17.5929 17.8502 17.9252 18.3193 17.9252Z" fill="#644537"/>
</g>
<path d="M16.4062 17.6651C16.7123 17.3016 17.1179 17.03 17.5617 16.8463C18.0017 16.6588 18.4876 16.5708 18.9659 16.5938H18.9927L19.0042 16.6014C19.1649 16.6818 19.3217 16.7698 19.4671 16.8769C19.6087 16.984 19.7617 17.095 19.8421 17.2557C19.7235 17.1256 19.5666 17.0453 19.4136 16.9687C19.2567 16.8999 19.096 16.831 18.9353 16.7774L18.9736 16.7851C18.0706 16.9075 17.2403 17.2251 16.4101 17.6651H16.4062Z" fill="#644537"/>
<path d="M18.809 17.3819C18.9253 17.3819 19.0195 17.2911 19.0195 17.1791C19.0195 17.0671 18.9253 16.9763 18.809 16.9763C18.6928 16.9763 18.5986 17.0671 18.5986 17.1791C18.5986 17.2911 18.6928 17.3819 18.809 17.3819Z" fill="white"/>
<path d="M18.9276 9.02194C18.9276 9.02194 16.7085 8.96455 16.0466 10.0205C15.3847 11.0765 14.8069 10.7628 14.8069 10.7628C14.8069 10.7628 14.2866 9.05255 14.9217 8.62402C15.5568 8.1955 16.1614 7.85498 16.3909 7.85498C16.6205 7.85498 17.4278 7.91237 17.4278 7.91237L18.5221 8.39828L18.9238 9.02576L18.9276 9.02194Z" fill="#654638"/>
<path d="M16.8156 18.2505C17.8602 18.2734 18.8435 18.3806 19.8497 18.04C19.0348 18.7517 17.7492 18.6713 16.8156 18.2505Z" fill="#E3A799"/>
<path d="M27.1002 18.2505C26.1666 18.6713 24.8811 18.7555 24.0661 18.04C25.0724 18.3767 26.0557 18.2696 27.1002 18.2505Z" fill="#E3A799"/>
<path d="M28.3169 19.1419C29.5183 19.2796 30.3983 20.592 30.1036 21.7628C29.9583 20.6379 29.3308 19.6699 28.3169 19.1419Z" fill="#E3A799"/>
<path d="M15.817 19.1419C14.8069 19.6737 14.1795 20.6417 14.0303 21.7628C13.7356 20.592 14.6156 19.2758 15.817 19.1419Z" fill="#E3A799"/>
<path d="M27.081 23.7294C27.081 23.7294 26.4421 23.7715 26.3808 23.7715C25.8031 23.7715 25.2636 23.5917 24.6897 23.4004C24.112 23.2091 23.5151 23.0101 22.8685 23.0101C22.5739 23.0101 22.2984 23.0484 22.0229 23.1326C21.7475 23.0484 21.4681 23.0101 21.1774 23.0101C20.5346 23.0101 19.9377 23.2091 19.3561 23.4004C18.7822 23.5917 18.2428 23.7715 17.665 23.7715C17.6038 23.7715 16.9648 23.7294 16.9648 23.7294C16.9648 23.7294 18.8435 27.3757 20.4581 28.271C20.7412 28.1065 21.0511 27.9879 21.3801 27.919V26.4498H22.7001V27.919C23.0254 27.9879 23.3353 28.1065 23.6146 28.2672C25.2598 27.3527 27.0848 23.7294 27.0848 23.7294H27.081Z" fill="#F2CCBA"/>
<path d="M18.7478 25.3173C18.8855 25.4627 19.0424 25.6157 19.2146 25.7611C20.1022 26.5263 21.0741 26.9127 22.0995 26.9127C23.1248 26.9127 24.0967 26.5301 24.9843 25.7802C25.1642 25.6272 25.3248 25.4703 25.4741 25.3173H18.7516H18.7478Z" fill="#F2CCBA"/>
<path d="M17.5923 24.0393C17.5579 24.0393 17.5235 24.0393 17.489 24.0316C17.7033 24.3033 19.2758 26.6563 22.0077 26.6563C24.7395 26.6563 26.3005 24.353 26.5492 24.0393H17.5923Z" fill="#E7AD9C"/>
<path d="M26.5607 24.0393L26.576 24.0202C24.9843 24.1273 23.6796 22.8685 22.0383 23.3965H22.0076C20.3663 22.8685 19.0577 24.1273 17.4699 24.0202C17.4699 24.0202 17.4737 24.0278 17.4852 24.0393H26.5645H26.5607Z" fill="#D77F71"/>
<path d="M22.0727 23.7102H22.0421C20.5843 23.4118 19.4059 24.1235 18.0285 24.1655V24.2421C18.6981 24.6553 20.2744 25.4243 22.0421 25.4243C23.8097 25.4243 25.3095 24.7088 26.0174 24.2803V24.1617C24.6706 24.1005 23.5036 23.4156 22.0727 23.7102Z" fill="white"/>
<path d="M21.8661 9.14431C21.8661 9.14431 24.4755 11.329 23.1861 13.2994C22.3405 14.5927 22.6351 14.9829 22.6351 14.9829C22.6351 14.9829 21.4605 14.0417 21.9464 12.7332C22.6581 10.8087 21.2042 10.6824 19.8842 9.14431C18.5642 7.60622 22.1224 5.86918 21.8699 9.14431H21.8661Z" fill="#654638"/>
<path d="M14.8567 9.4887C16.2767 9.4887 17.4278 8.33756 17.4278 6.91757C17.4278 5.49757 16.2767 4.34644 14.8567 4.34644C13.4367 4.34644 12.2856 5.49757 12.2856 6.91757C12.2856 8.33756 13.4367 9.4887 14.8567 9.4887Z" fill="#654638"/>
<path d="M24.0623 2.71268C24.5137 4.27372 22.792 6.14086 20.2209 6.88694C17.6459 7.6292 13.7012 6.73007 13.9231 5.11929C14.3096 2.31477 16.3642 3.56972 18.5871 1.23581C20.4351 -0.704015 23.6108 1.15546 24.0623 2.71268Z" fill="#654638"/>
<path d="M21.1965 8.04242C21.1965 8.04242 19.601 12.4271 13.529 10.5141C7.45704 8.5972 20.9823 5.11929 21.1965 8.04242Z" fill="#654638"/>
<path d="M17.6038 10.801C18.0476 10.5179 18.5412 10.384 19.0309 10.384C18.5603 9.64556 17.7301 9.15582 16.7889 9.15582C15.3196 9.15582 14.1297 10.3457 14.1297 11.815C14.1297 13.2842 15.3196 14.4741 16.7889 14.4741C16.0007 13.2344 16.3642 11.593 17.6038 10.8049V10.801Z" fill="#654638"/>
<path d="M13.4946 6.13704C13.9384 5.85391 14.432 5.72 14.9217 5.72C14.4511 4.98156 13.6209 4.49182 12.6796 4.49182C11.2104 4.49182 10.0205 5.68173 10.0205 7.15095C10.0205 8.62017 11.2104 9.81008 12.6796 9.81008C11.8915 8.57043 12.2549 6.92904 13.4946 6.14086V6.13704Z" fill="#654638"/>
<path d="M16.3795 4.85914C16.2188 4.20105 16.0504 3.54297 15.8591 2.89253C15.2967 3.11062 14.6615 3.1374 14.0494 2.93079C13.552 2.76245 13.1349 2.46018 12.8289 2.07758C12.5495 2.90784 12.6835 3.86053 13.2727 4.59514C14.0609 5.57845 15.4038 5.8501 16.4942 5.32975C16.456 5.17288 16.4177 5.01601 16.3795 4.85914Z" fill="#654638"/>
<path d="M17.7262 9.45046C17.2327 9.27063 16.8233 8.96072 16.5249 8.57046C16.2264 9.39689 16.345 10.3496 16.9189 11.0957C17.8142 12.2588 19.4824 12.4769 20.6455 11.5816C21.8087 10.6863 22.0268 9.01811 21.1315 7.85498C20.6302 9.2362 19.1075 9.94785 17.7262 9.45046Z" fill="#654638"/>
<path d="M22.3252 4.33874C21.1506 5.54779 19.3753 5.81561 17.9329 5.13457C18.0591 5.55161 18.2887 5.94187 18.6254 6.26709C19.6776 7.28866 21.361 7.2657 22.3864 6.21353C23.121 5.45596 23.3123 4.37318 22.9718 3.44727C22.8035 3.76483 22.5892 4.06709 22.3252 4.33874Z" fill="#7A594A"/>
<path d="M20.8407 7.64831C19.6661 8.85736 17.8908 9.12518 16.4484 8.44414C16.5746 8.86118 16.8042 9.25145 17.1409 9.57666C18.1931 10.5982 19.8765 10.5753 20.9019 9.5231C21.6365 8.76553 21.8278 7.68275 21.4873 6.75684C21.319 7.0744 21.1047 7.37666 20.8407 7.64831Z" fill="#7A594A"/>
<path d="M12.3123 7.90088C12.6567 6.83723 13.5176 6.08731 14.5238 5.83096C14.3478 5.6894 14.145 5.57844 13.9155 5.50575C12.8862 5.17288 11.7805 5.73531 11.4476 6.76453C11.1798 7.59097 11.4936 8.46714 12.1631 8.95305C12.1555 8.60488 12.1976 8.25288 12.3123 7.90088Z" fill="#7A594A"/>
<path d="M30.6202 12.8748C31.3662 12.5037 31.8254 11.792 31.9057 11.0192C32.0282 11.1339 32.1353 11.2717 32.2118 11.4324C32.5676 12.1555 32.273 13.0317 31.5499 13.3875C30.9683 13.6745 30.2873 13.5406 29.8588 13.1006C30.1151 13.0699 30.3715 12.9973 30.6163 12.8786L30.6202 12.8748Z" fill="#7A594A"/>
<path d="M14.233 9.20171C14.5468 8.97979 14.9064 8.86501 15.2623 8.84971C14.8911 8.32553 14.2713 7.99266 13.5826 8.0271C12.5075 8.07684 11.6772 8.98745 11.7269 10.0588C11.7767 11.1301 12.6873 11.9641 13.7586 11.9144C13.1388 11.0344 13.353 9.82153 14.2292 9.20553L14.233 9.20171Z" fill="#7A594A"/>
<path d="M28.5235 8.1534C28.4546 7.63305 28.5426 7.12418 28.7492 6.68036C27.8807 6.79514 27.0849 7.33845 26.687 8.19549C26.0671 9.52697 26.6449 11.1071 27.9763 11.727C29.3078 12.3468 30.888 11.7691 31.5078 10.4376C30.0539 10.6289 28.7148 9.60732 28.5235 8.14958V8.1534Z" fill="#654638"/>
<path d="M15.576 29.4991C15.576 29.4991 12.3812 29.7211 11.3711 32.0703C11.3711 32.0703 6.20974 33.1951 6.52348 36.0111L22.0612 42.9631V39.3705L15.3464 33.8379L15.576 29.4991Z" fill="#E1E1E3"/>
<path d="M28.5235 29.5106C28.5235 29.5106 31.8177 29.721 32.8278 32.0703C32.8278 32.0703 37.9892 33.1951 37.6755 36.0111L22.1377 42.9631L21.1315 42.5461L22.0612 39.3704L28.6995 33.7882L28.5235 29.5068V29.5106Z" fill="#E1E1E3"/>
<path d="M17.8831 40.9085C18.3755 40.9085 18.7746 40.5094 18.7746 40.017C18.7746 39.5247 18.3755 39.1255 17.8831 39.1255C17.3908 39.1255 16.9916 39.5247 16.9916 40.017C16.9916 40.5094 17.3908 40.9085 17.8831 40.9085Z" fill="#B2B2B5"/>
<path d="M17.8831 47.2215C17.6 47.2215 17.3743 46.992 17.3743 46.7127V40.0208C17.3743 39.7377 17.6038 39.512 17.8831 39.512C18.1624 39.512 18.392 39.7415 18.392 40.0208V46.7127C18.392 46.9958 18.1624 47.2215 17.8831 47.2215Z" fill="#E6E7E8"/>
<path d="M26.2087 40.9085C26.701 40.9085 27.1002 40.5094 27.1002 40.017C27.1002 39.5247 26.701 39.1255 26.2087 39.1255C25.7163 39.1255 25.3172 39.5247 25.3172 40.017C25.3172 40.5094 25.7163 40.9085 26.2087 40.9085Z" fill="#B2B2B5"/>
<path d="M26.2087 47.2215C25.9256 47.2215 25.6998 46.992 25.6998 46.7127V40.0208C25.6998 39.7377 25.9294 39.512 26.2087 39.512C26.488 39.512 26.7176 39.7415 26.7176 40.0208V46.7127C26.7176 46.9958 26.488 47.2215 26.2087 47.2215Z" fill="#E6E7E8"/>
</g>
</g>
<defs>
<linearGradient id="paint0_linear_989_6303" x1="22.0497" y1="21.6557" x2="22.0497" y2="33.4668" gradientUnits="userSpaceOnUse">
<stop offset="0.64" stop-color="#E0B4A2"/>
<stop offset="1" stop-color="#EEC1AF"/>
</linearGradient>
<linearGradient id="paint1_linear_989_6303" x1="22.0344" y1="16.1231" x2="22.0344" y2="19.0309" gradientUnits="userSpaceOnUse">
<stop offset="0.27" stop-color="#CA8075"/>
<stop offset="0.38" stop-color="#CF897D"/>
<stop offset="0.56" stop-color="#DDA293"/>
<stop offset="0.73" stop-color="#EEC1AF"/>
</linearGradient>
<linearGradient id="paint2_linear_989_6303" x1="22.0803" y1="13.464" x2="22.1339" y2="32.1161" gradientUnits="userSpaceOnUse">
<stop offset="0.64" stop-color="#D3A998"/>
<stop offset="1" stop-color="#E0B5A4"/>
</linearGradient>
<linearGradient id="paint3_linear_989_6303" x1="22.023" y1="25.8567" x2="22.023" y2="16.5058" gradientUnits="userSpaceOnUse">
<stop stop-color="#DE9284"/>
<stop offset="0.15" stop-color="#E3A192"/>
<stop offset="0.42" stop-color="#EBB9A8"/>
<stop offset="0.67" stop-color="#F0C7B5"/>
<stop offset="0.89" stop-color="#F2CCBA"/>
</linearGradient>
<linearGradient id="paint4_linear_989_6303" x1="22.0344" y1="20.9172" x2="22.0344" y2="17.7378" gradientUnits="userSpaceOnUse">
<stop stop-color="white"/>
<stop offset="0.89" stop-color="#F2CCBA"/>
</linearGradient>
<clipPath id="clip0_989_6303">
<path d="M0 5C0 2.23858 2.23858 0 5 0H39C41.7614 0 44 2.23858 44 5V39C44 41.7614 41.7614 44 39 44H5C2.23858 44 0 41.7614 0 39V5Z" fill="white"/>
</clipPath>
</defs>
</svg>
