<svg width="48" height="49" viewBox="0 0 48 49" fill="none" xmlns="http://www.w3.org/2000/svg">
<g clip-path="url(#clip0_977_12990)">
<mask id="mask0_977_12990" style="mask-type:luminance" maskUnits="userSpaceOnUse" x="0" y="0" width="48" height="49">
<path d="M48 0.859619H0V48.8596H48V0.859619Z" fill="white"/>
</mask>
<g mask="url(#mask0_977_12990)">
<path d="M30.9287 33.5414L32.0974 33.9588L33.6417 37.1727L34.393 41.0962H27.6313V36.2544L30.9287 33.5414Z" fill="#F2F1F1"/>
<path d="M17.1548 33.5414L15.6522 34.084L14.567 37.1309L13.6904 41.0962H20.4522V36.2544L17.1548 33.5414Z" fill="#F2F1F1"/>
<path d="M33.1409 39.5518H15.4435V44.9362H33.1409V39.5518Z" fill="#1E2122"/>
<path d="M29.9687 32.7483L31.5965 34.0839L30.8035 36.6718L29.9687 32.7483Z" fill="#898785"/>
<path d="M33.5165 20.477C33.8087 17.9309 34.5183 17.9727 34.6852 16.7205C34.7687 16.1362 36.5635 7.66311 28.4661 5.78485V20.477H33.5583H33.5165Z" fill="#866241"/>
<path d="M33.2661 25.2353C33.2661 25.2353 33.8504 25.277 34.3096 24.8596C34.5183 24.6509 34.727 23.9831 34.7687 23.7744C34.8939 23.2318 35.687 19.5588 35.2696 18.6405C35.1861 18.4736 35.1026 18.3066 34.9774 18.1814C34.4765 17.597 33.5165 18.0144 33.5165 18.0144L33.3078 25.1936L33.2661 25.2353Z" fill="#CDA98B"/>
<path d="M33.2661 24.7344C33.2661 24.7344 33.8504 24.7761 34.3096 24.3588C34.5183 24.1501 34.727 23.4822 34.7687 23.3153C34.8939 22.7727 35.687 19.1831 35.2696 18.2648C35.1861 18.0979 35.1026 17.9309 34.9774 17.8057C34.4765 17.2214 33.5165 17.6388 33.5165 17.6388L33.3078 24.6927L33.2661 24.7344Z" fill="#B88C69"/>
<path d="M18.0313 32.7483L16.4035 34.0839L17.1965 36.6718L18.0313 32.7483Z" fill="#898785"/>
<path d="M30.4696 23.2736L24 23.9414L17.5304 23.2736L16.6539 38.5501C16.6539 38.5501 19.2417 42.1814 24 42.1814C28.7583 42.1814 31.3461 38.5501 31.3461 38.5501L30.4696 23.2736Z" fill="#B88C69"/>
<path d="M46.3304 43.9762C44.7861 39.5518 34.8104 37.1309 31.9304 36.0875L28.633 40.4701C28.633 40.4701 29.0922 41.5553 27.4226 43.3501C27.4226 43.3501 26.4626 43.8509 25.0435 43.9762V50.0701H47.0817L46.3304 43.9344V43.9762Z" fill="#53636A"/>
<path d="M1.66956 43.9762C3.21391 39.5518 13.1896 37.1309 16.0696 36.0875L19.367 40.4701C19.367 40.4701 18.9078 41.5553 20.5774 43.3501C20.5774 43.3501 21.5374 43.8509 22.9565 43.9762V50.0701H0.918259L1.66956 43.9344V43.9762Z" fill="#53636A"/>
<path d="M45.5791 44.0179C43.9513 40.0527 34.56 37.1727 31.6383 36.1292L28.3409 40.5118C28.3409 40.5118 28.8 41.597 27.1304 43.3918C27.1304 43.3918 25.8365 44.0596 24 44.0596C22.1635 44.0596 20.8696 43.3918 20.8696 43.3918C19.2417 41.597 19.6591 40.5118 19.6591 40.5118L16.3617 36.1292C13.4817 37.1727 4.09044 40.0527 2.42087 44.0179L0.876526 50.1118H47.0817L45.5374 44.0179H45.5791Z" fill="#3E5058"/>
<path d="M27.1304 43.3919L28.2156 39.051L32.5148 37.7153L27.1304 43.3919Z" fill="#898785"/>
<path d="M14.1496 22.3971H17.9061C18.1565 19.684 18.6157 16.971 19.2417 14.3414C19.9096 11.7536 20.5357 9.16576 21.4122 6.66141C21.5791 6.16054 21.7878 5.61794 21.9965 5.11707C11.0191 5.91011 13.0644 14.8423 13.1896 15.5101C13.3565 16.4701 13.9409 19.7258 14.1913 22.3971H14.1496Z" fill="#866241"/>
<path d="M29.8852 9.4579C25.5026 11.1275 16.32 13.5901 11.9374 10.084C11.9374 10.084 14.1496 7.99703 14.8591 7.32921C17.1548 5.15877 19.4922 4.49095 21.8713 4.32399C26.9635 3.94834 30.9287 5.78486 31.1791 6.16051C31.7217 6.99529 31.4713 8.87355 29.8852 9.4579Z" fill="#866241"/>
<path d="M28.2157 39.0509L32.3896 42.0979L33.6417 36.9222L31.5965 34.084L28.2157 39.0509Z" fill="#F0F0F1"/>
<path d="M20.8278 43.3919L19.7426 39.051L15.4852 37.7153L20.8278 43.3919Z" fill="#898785"/>
<path d="M19.7426 39.0509L15.6104 42.0979L14.3583 36.9222L16.4035 34.084L19.7426 39.0509Z" fill="#F0F0F1"/>
<path d="M14.6922 24.9848C14.6922 24.9848 14.1078 25.0683 13.6487 24.6509C13.44 24.4422 13.2313 23.7744 13.1896 23.5657C13.0226 23.0231 12.1461 19.3083 12.5217 18.3483C12.6052 18.1814 12.6887 18.0144 12.8139 17.8892C13.3148 17.2631 14.2748 17.6805 14.2748 17.6805L14.7339 24.9848H14.6922Z" fill="#CDA98B"/>
<path d="M14.8174 25.277C14.8174 25.277 14.2331 25.3188 13.7739 24.9014C13.5652 24.6927 13.3565 23.9831 13.3148 23.8162C13.1896 23.2735 12.3965 19.517 12.8139 18.5988C12.8974 18.4318 12.9809 18.2648 13.1061 18.1396C13.607 17.5553 14.567 17.9727 14.567 17.9727L14.7757 25.277H14.8174Z" fill="#B88C69"/>
<path d="M34.1009 23.6075C34.3096 23.3988 34.56 22.4805 34.6017 22.3135C34.727 21.8127 35.4783 19.684 35.0609 18.8492C34.9774 18.6822 34.7687 18.3066 34.4348 18.6822C33.767 19.6005 33.8504 21.3118 33.8504 21.3118C33.8504 21.3118 34.8104 21.437 34.1426 23.5657L34.1009 23.6075Z" fill="#997050"/>
<path d="M13.5235 19.0162C13.1896 18.6405 12.9809 19.0162 12.8974 19.1831C12.48 20.0596 13.2313 22.2718 13.3565 22.7727C13.3941 22.9188 13.5903 23.6784 13.7781 23.9998C13.177 21.9337 14.1037 21.7709 14.1037 21.7709C14.1037 21.7709 14.1871 19.9762 13.5193 19.0162H13.5235Z" fill="#997050"/>
<path d="M17.2383 31.8718C18.9078 33.7501 20.953 35.7118 21.5374 36.004C21.9965 36.2127 22.9148 36.3379 23.8748 36.3379C24.9183 36.3379 25.9617 36.3379 26.4209 36.0875C27.0052 35.7953 29.0504 33.7918 30.7617 31.8718H17.2383Z" fill="#A37148"/>
<path d="M24 23.9831L17.5304 23.2736L16.9878 32.7483C18.3652 34.084 21.287 36.5883 21.9548 36.8388C22.3304 36.964 23.1235 37.0475 23.9583 37.0475C24.8348 37.0475 25.7113 37.0475 26.1287 36.8805C26.7965 36.6301 29.593 34.084 31.0122 32.7483L30.553 23.2736L24.0835 23.9831H24Z" fill="#976F50"/>
<path d="M14.5378 21.3619C14.5378 21.3619 14.7089 28.3532 14.88 28.8875C15.3517 30.3567 18.3068 32.8443 21.2244 34.6182C21.5457 34.8144 26.5753 34.7769 26.8967 34.5807C29.8184 32.8068 32.6066 30.3525 33.0783 28.8833C33.2494 28.349 33.4205 21.604 33.4205 21.604L14.5378 21.3577V21.3619Z" fill="#866241"/>
<path d="M24 5.07532C11.1444 5.07532 13.7739 15.3849 13.8574 16.0527C14.1496 18.0144 15.1931 27.6979 15.2348 28.1571C15.36 29.0753 16.0278 30.0771 16.5287 30.8284C17.3217 31.9136 21.0783 34.7101 21.8713 35.0023C22.247 35.1275 23.04 35.211 23.8748 35.211C24.7513 35.211 25.6278 35.211 26.0452 35.044C26.8383 34.7936 30.6365 31.9136 31.4296 30.8284C31.9722 30.0771 32.64 29.0753 32.7235 28.1571C32.807 27.6562 33.8087 18.0144 34.1009 16.0527C34.1844 15.3849 36.8139 5.07532 23.9583 5.07532H24Z" fill="#563C24"/>
<path d="M29.9186 9.12401H30.0021C28.5037 8.20992 27.1346 8.41444 23.9499 8.41444C20.7819 8.41444 19.4129 8.2141 17.9186 9.12401H18.0021C14.5795 11.1692 14.9134 15.5936 14.9134 15.5936C15.2056 28.5744 18.3777 28.1571 18.3777 28.1571C18.1315 23.5073 22.7144 24.9557 23.9708 25.0224C25.2647 24.9348 29.785 23.5324 29.543 28.1529C29.543 28.1529 32.7151 28.5703 33.0073 15.5894C33.0073 15.5894 33.3412 11.1651 29.9186 9.11984V9.12401Z" fill="#CDA98B"/>
<path d="M25.3858 17.0336C25.1854 17.4593 25.0226 17.9351 24.8891 18.4151C24.4717 19.8844 25.8866 21.2784 27.7732 21.2993L28.8042 21.3077C30.1524 21.3202 31.3503 20.6148 31.7134 19.5797C32.0515 18.6155 32.3186 17.5011 32.0264 16.9334C31.4421 15.7689 26.7673 16.4993 25.3899 17.0336H25.3858Z" fill="url(#paint0_linear_977_12990)"/>
<path d="M15.8943 16.9376C15.5979 17.5094 15.8692 18.6238 16.2073 19.5838C16.5704 20.619 17.7684 21.3244 19.1165 21.3118L20.1475 21.3035C22.0341 21.2826 23.4449 19.8885 23.0317 18.4193C23.0275 18.3985 23.0191 18.3818 23.015 18.3609C22.7604 17.4802 21.888 16.7957 20.7819 16.5911C18.8744 16.2447 16.32 16.0945 15.8943 16.9376Z" fill="url(#paint1_linear_977_12990)"/>
<path d="M24.0417 26.571C21.3287 26.2788 19.7844 25.8614 19.993 29.0753C19.993 29.0753 21.0365 30.1188 22.2887 30.2023H22.4139C22.6226 29.6597 23.2487 29.2423 23.9583 29.2423C24.6678 29.2423 25.2939 29.6597 25.5026 30.2023H25.6278C26.9635 30.2023 28.0487 29.0753 28.0487 29.0753C28.2157 25.8614 26.713 26.2788 24 26.571H24.0417Z" fill="#CDA98B"/>
<path d="M30.5113 9.41615C26.1704 11.0857 16.8626 12.3379 13.0226 9.75007C13.0226 9.75007 15.0261 7.95528 15.6939 7.28746C17.9478 5.11702 20.2852 4.4492 22.6226 4.28224C27.673 3.90659 31.5548 5.74311 31.7635 6.11876C32.3061 6.95355 32.0557 8.83181 30.5113 9.41615Z" fill="#563C24"/>
<path d="M13.0226 9.66663L11.9374 10.084C12.9391 10.9188 13.7739 10.8353 15.2765 10.7101C13.6487 10.2927 12.9809 9.66663 12.9809 9.66663H13.0226Z" fill="#866241"/>
<path d="M24.9183 17.8474H23.9624H23.0024C23.2529 21.1448 21.9172 23.7744 21.9172 24.1918C21.9172 24.6092 22.9607 25.11 23.9207 25.11C23.9332 25.11 23.9457 25.11 23.9583 25.11C23.9583 25.11 23.9875 25.11 24 25.1142C24.96 25.1142 26.0035 24.6133 26.0035 24.1959C26.0035 23.7785 24.6678 21.149 24.9183 17.8516V17.8474Z" fill="#CDA98B"/>
<path d="M27.1304 9.04053C27.1304 9.04053 16.5704 8.12227 20.7026 5.07532C20.7026 5.07532 19.367 5.20053 17.5722 6.28575C17.2383 6.53619 16.7791 7.03706 16.4452 7.32923C16.2783 7.45445 14.9844 8.62314 14.8174 8.7901C17.4052 10.3762 27.1304 9.04053 27.1304 9.04053Z" fill="#6F5136"/>
<path d="M26.233 23.428C26.9426 24.3462 26.1496 24.8471 25.44 24.8471C25.0643 25.0141 24.7722 25.3897 24.3548 25.348C23.8122 25.348 23.2278 25.4315 22.7687 25.0141C22.6852 24.9306 22.56 24.8888 22.4765 24.8471H22.5183C22.3513 24.8471 22.1426 24.8471 21.9757 24.7636C21.3078 24.5967 21.2661 23.8871 21.6417 23.428C21.6 23.5949 21.5583 23.7619 21.5165 23.9288C21.4748 24.4715 22.0174 24.5967 22.5183 24.5549C22.8104 24.5967 23.0191 24.7636 23.2696 24.8888C23.4365 24.9723 23.687 24.9306 23.9374 24.9306C24.1878 24.9306 24.4383 24.9306 24.6052 24.8888C24.8557 24.7636 25.0643 24.5967 25.3565 24.5549C26.1913 24.6384 26.6087 24.2628 26.233 23.4697V23.428Z" fill="#A97363"/>
<path d="M16.0278 17.8475C17.1965 16.804 22.6226 17.4718 22.6226 17.4718C22.4974 16.7205 22.4139 16.1362 21.913 15.5518H20.7443C19.2417 15.3431 17.7809 15.2179 17.28 15.5518C16.8209 15.844 16.1113 16.3449 15.9026 16.8875C15.7774 17.2214 15.9026 17.6388 16.0278 17.8475Z" fill="url(#paint2_linear_977_12990)"/>
<path d="M26.0452 19.7675C26.4125 18.8534 28.0571 18.6238 29.3927 18.9577C30.1857 19.1664 30.4278 19.517 30.5113 19.6005C29.8017 20.3518 28.8 20.477 27.4644 20.3518C26.5461 20.2683 26.0452 19.7675 26.0452 19.7675Z" fill="white"/>
<mask id="mask1_977_12990" style="mask-type:luminance" maskUnits="userSpaceOnUse" x="26" y="18" width="5" height="3">
<path d="M26.0452 19.7675C26.8383 18.6822 28.1322 18.6405 29.4678 18.9744C30.2609 19.1831 30.4278 19.517 30.5113 19.6005C29.8017 20.3518 28.8 20.477 27.4644 20.3518C26.5461 20.2683 26.0452 19.7675 26.0452 19.7675Z" fill="white"/>
</mask>
<g mask="url(#mask1_977_12990)">
<path d="M29.3844 19.8092C29.3426 20.4353 28.8 20.8944 28.1322 20.8527C27.5061 20.8109 27.0052 20.2683 27.047 19.684C27.0887 19.0579 27.6313 18.5988 28.2991 18.6405C28.9252 18.6823 29.4261 19.2249 29.3844 19.8092Z" fill="url(#paint3_linear_977_12990)"/>
</g>
<path d="M27.2557 19.9762C27.4631 19.9762 27.6313 19.8267 27.6313 19.6423C27.6313 19.4578 27.4631 19.3083 27.2557 19.3083C27.0482 19.3083 26.88 19.4578 26.88 19.6423C26.88 19.8267 27.0482 19.9762 27.2557 19.9762Z" fill="white"/>
<path d="M21.913 19.7675C21.12 18.6822 19.8261 18.6405 18.4904 18.9744C18.0063 19.1372 17.5304 19.517 17.447 19.6005C18.1565 20.3518 19.1583 20.477 20.4939 20.3518C21.8296 20.2266 21.913 19.7675 21.913 19.7675Z" fill="white"/>
<mask id="mask2_977_12990" style="mask-type:luminance" maskUnits="userSpaceOnUse" x="17" y="18" width="5" height="3">
<path d="M21.913 19.7675C21.12 18.6822 19.8261 18.6405 18.4904 18.9744C18.0605 19.1956 17.5304 19.517 17.447 19.6005C18.1565 20.3518 19.1583 20.477 20.4939 20.3518C21.8296 20.2266 21.913 19.7675 21.913 19.7675Z" fill="white"/>
</mask>
<g mask="url(#mask2_977_12990)">
<path d="M18.5739 19.8092C18.6157 20.4353 19.1583 20.8944 19.8261 20.8527C20.4939 20.8109 20.9531 20.2683 20.9113 19.684C20.8696 19.0579 20.327 18.5988 19.6591 18.6405C19.033 18.6823 18.5322 19.2249 18.5739 19.8092Z" fill="url(#paint4_linear_977_12990)"/>
</g>
<path d="M21.2118 19.0287C20.0932 18.2523 18.1691 18.4986 17.4136 19.5921C18.6073 19.0245 19.8428 18.8868 21.0824 19.2541C21.2577 19.2916 21.4289 19.3668 21.6459 19.4043C21.5165 19.2541 21.3871 19.1414 21.2118 19.0328V19.0287Z" fill="#5A4027"/>
<path d="M26.713 19.0287C27.8317 18.2523 29.7558 18.4986 30.5113 19.5921C29.3176 19.0245 28.0821 18.8868 26.8424 19.2541C26.6671 19.2916 26.496 19.3668 26.279 19.4043C26.4084 19.2541 26.5377 19.1414 26.713 19.0328V19.0287Z" fill="#5A4027"/>
<path d="M28.4202 21.9629C27.6146 21.9629 26.6796 21.917 25.657 21.7876C25.465 21.7626 25.3064 21.6207 25.2647 21.4287C25.1269 20.8109 25.2021 19.2916 25.2939 18.7699C25.3231 18.6029 25.4609 18.4735 25.632 18.4568C26.9259 18.3316 28.4035 18.3024 29.689 18.3692C30.2358 18.3984 30.7116 18.4443 31.0622 18.5028C31.2376 18.532 31.3836 18.5612 31.4838 18.5946C31.6007 18.6322 31.7259 18.6864 31.7718 18.8075C31.9179 19.1622 31.9805 20.5146 31.68 21.3953C31.6174 21.5831 31.4546 21.7208 31.2542 21.7542C30.8702 21.8168 29.8476 21.9588 28.416 21.9588L28.4202 21.9629ZM25.6988 18.8742C25.6153 19.3876 25.5527 20.8068 25.6696 21.341C25.6696 21.341 25.6904 21.3744 25.7071 21.3744C28.4828 21.725 30.6031 21.4412 31.1875 21.3452C31.2334 21.3368 31.2709 21.3076 31.2835 21.2617C31.4045 20.9069 31.4713 20.4186 31.4713 19.8843C31.4713 19.4586 31.4296 19.1372 31.3962 19.0078C31.3419 18.9869 31.1916 18.941 30.8243 18.8868C30.4654 18.8367 29.9979 18.7991 29.4803 18.7741C28.7708 18.7407 27.3349 18.7115 25.6946 18.8659L25.6988 18.8742Z" fill="#6F6C6C"/>
<path d="M19.4963 21.9629C18.0647 21.9629 17.0379 21.821 16.6581 21.7584C16.4619 21.725 16.2991 21.5873 16.2323 21.3994C15.9318 20.5187 15.9944 19.1664 16.1405 18.8116C16.1864 18.6906 16.3116 18.6363 16.4285 18.5987C16.5329 18.5653 16.6748 18.5361 16.8501 18.5069C17.2007 18.4485 17.6765 18.4026 18.2233 18.3733C19.5047 18.3066 20.9823 18.3358 22.2803 18.461C22.4515 18.4777 22.5892 18.6071 22.6184 18.774C22.7103 19.2958 22.7854 20.8109 22.6476 21.4328C22.6059 21.6206 22.4473 21.7667 22.2553 21.7918C21.2327 21.9212 20.2977 21.9671 19.4922 21.9671L19.4963 21.9629ZM16.5162 19.012C16.4786 19.1413 16.4369 19.4669 16.441 19.8885C16.441 20.4227 16.5078 20.9111 16.6289 21.2659C16.6456 21.3076 16.6789 21.341 16.7249 21.3493C17.3092 21.4453 19.4296 21.7292 22.2052 21.3786C22.2052 21.3786 22.2386 21.3619 22.2428 21.3452C22.3638 20.8151 22.297 19.396 22.2136 18.8784C20.5732 18.724 19.1416 18.7532 18.4278 18.7866C17.9103 18.8116 17.4428 18.8492 17.0838 18.8993C16.7165 18.9493 16.5663 18.9953 16.512 19.0203L16.5162 19.012Z" fill="#6F6C6C"/>
<path d="M25.2188 20.1139C25.2188 20.1139 25.1019 19.9845 24.889 19.8551C24.6052 19.6881 24.2922 19.6005 23.9583 19.6005C23.1444 19.6005 22.7019 20.1055 22.6977 20.1139L22.3805 19.8426C22.4056 19.8175 22.9565 19.1873 23.9583 19.1873C24.96 19.1873 25.511 19.8175 25.536 19.8426L25.2188 20.1139Z" fill="#6F6C6C"/>
<path d="M18.6991 20.0179C18.9066 20.0179 19.0748 19.8684 19.0748 19.684C19.0748 19.4996 18.9066 19.3501 18.6991 19.3501C18.4917 19.3501 18.3235 19.4996 18.3235 19.684C18.3235 19.8684 18.4917 20.0179 18.6991 20.0179Z" fill="white"/>
<mask id="mask3_977_12990" style="mask-type:luminance" maskUnits="userSpaceOnUse" x="19" y="26" width="10" height="5">
<path d="M24.0209 26.571C21.3203 26.2788 19.7844 25.8614 19.993 29.0753C19.993 29.0753 21.0323 30.1188 22.2762 30.2023H22.1927H22.4014C22.6101 29.6597 23.232 29.2423 23.9374 29.2423C24.6428 29.2423 25.3482 29.6597 25.5569 30.2023H25.6404C26.9677 30.2023 28.0487 29.0753 28.0487 29.0753C28.2157 25.8614 26.7214 26.2788 24.0209 26.571Z" fill="white"/>
</mask>
<g mask="url(#mask3_977_12990)">
<path d="M19.7844 26.4041C19.7844 26.4041 20.9865 29.0336 23.9374 29.0336C26.8884 29.0336 28.0487 26.4041 28.0487 26.4041C28.0487 26.4041 26.2205 27.2806 23.8957 27.2806C21.5708 27.2806 19.7426 26.4041 19.7426 26.4041H19.7844Z" fill="#A97363"/>
<path d="M19.7844 26.4041C19.7844 26.4041 20.9865 27.9067 23.9374 27.9067C26.8884 27.9067 28.0487 26.4041 28.0487 26.4041C28.0487 26.4041 26.2205 26.9049 23.8957 26.9049C21.5708 26.9049 19.7426 26.4041 19.7426 26.4041H19.7844Z" fill="white"/>
<path d="M19.7844 26.404C19.7844 26.404 20.9865 26.308 23.9374 26.308C26.8884 26.308 28.0487 26.404 28.0487 26.404C28.0487 26.404 25.9743 27.1553 23.8957 27.1553C21.8171 27.1553 19.7426 26.404 19.7426 26.404H19.7844Z" fill="#A97363"/>
</g>
<path d="M25.0018 23.3988C25.0018 23.9831 24.5426 24.4422 23.9583 24.4422C23.3739 24.4422 22.9148 23.9831 22.9148 23.3988C22.9148 22.8144 23.3739 20.3936 23.9583 20.3936C24.5426 20.3936 25.0018 22.8562 25.0018 23.3988Z" fill="url(#paint5_linear_977_12990)"/>
<path d="M32.0139 16.8874C31.8052 16.3448 31.0957 15.844 30.6365 15.5518C30.1774 15.2596 28.967 15.3431 27.6313 15.4683L26.9217 16.3031V15.5518H26.0035C25.5443 16.1779 25.4191 16.7622 25.2939 17.5135C25.2939 17.5135 30.72 16.8457 31.8887 17.8892C32.0139 17.6805 32.1391 17.2631 32.0139 16.9292V16.8874Z" fill="url(#paint6_linear_977_12990)"/>
</g>
</g>
<defs>
<linearGradient id="paint0_linear_977_12990" x1="28.4828" y1="16.5077" x2="28.4828" y2="22.1174" gradientUnits="userSpaceOnUse">
<stop stop-color="#A37148"/>
<stop offset="0.3" stop-color="#B1845F"/>
<stop offset="0.8" stop-color="#C59E7E"/>
<stop offset="1" stop-color="#CDA98B"/>
</linearGradient>
<linearGradient id="paint1_linear_977_12990" x1="19.4338" y1="0.859668" x2="19.4338" y2="22.1174" gradientUnits="userSpaceOnUse">
<stop stop-color="#A37148"/>
<stop offset="0.3" stop-color="#B1845F"/>
<stop offset="0.8" stop-color="#C59E7E"/>
<stop offset="1" stop-color="#CDA98B"/>
</linearGradient>
<linearGradient id="paint2_linear_977_12990" x1="20.7513" y1="5.13651" x2="18.8424" y2="20.4616" gradientUnits="userSpaceOnUse">
<stop stop-color="#75553B"/>
<stop offset="0.8" stop-color="#49321B"/>
</linearGradient>
<linearGradient id="paint3_linear_977_12990" x1="25.8913" y1="21.3057" x2="30.013" y2="18.5326" gradientUnits="userSpaceOnUse">
<stop stop-color="#513A24"/>
<stop offset="0.8" stop-color="#231F20"/>
</linearGradient>
<linearGradient id="paint4_linear_977_12990" x1="21.4334" y1="20.8818" x2="17.3118" y2="18.1087" gradientUnits="userSpaceOnUse">
<stop stop-color="#513A24"/>
<stop offset="0.8" stop-color="#231F20"/>
</linearGradient>
<linearGradient id="paint5_linear_977_12990" x1="23.9583" y1="25.9449" x2="23.9583" y2="21.5622" gradientUnits="userSpaceOnUse">
<stop stop-color="#E2CDBB"/>
<stop offset="1" stop-color="#CDA98B"/>
</linearGradient>
<linearGradient id="paint6_linear_977_12990" x1="28.679" y1="7.41265" x2="28.679" y2="20.31" gradientUnits="userSpaceOnUse">
<stop stop-color="#75553B"/>
<stop offset="0.8" stop-color="#49321B"/>
</linearGradient>
<clipPath id="clip0_977_12990">
<path d="M0 5.85962C0 3.0982 2.23858 0.859619 5 0.859619H43C45.7614 0.859619 48 3.0982 48 5.85962V43.8596C48 46.621 45.7614 48.8596 43 48.8596H5C2.23858 48.8596 0 46.621 0 43.8596V5.85962Z" fill="white"/>
</clipPath>
</defs>
</svg>
