<svg width="40" height="40" viewBox="0 0 40 40" fill="none" xmlns="http://www.w3.org/2000/svg">
<rect width="40" height="40" rx="5" fill="#1877F2"/>
<path d="M22.1 14.32C21.69 14.32 21.44 14.38 21.34 14.51C21.2231 14.7488 21.1747 15.0153 21.2 15.28V16.28H23.76C23.8229 16.2831 23.8845 16.299 23.9412 16.3264C23.9979 16.3539 24.0485 16.3925 24.09 16.44C24.1326 16.483 24.1654 16.5349 24.1861 16.5918C24.2068 16.6488 24.215 16.7096 24.21 16.77L24 19.14C24.0026 19.1956 23.9932 19.2512 23.9725 19.303C23.9518 19.3547 23.9202 19.4014 23.88 19.44C23.7914 19.5084 23.6818 19.5438 23.57 19.54H21.2V28.54C21.1998 28.6595 21.1532 28.7742 21.07 28.86C21.0282 28.9021 20.9783 28.9353 20.9233 28.9577C20.8683 28.98 20.8093 28.991 20.75 28.99H17.75C17.6905 28.9913 17.6314 28.9806 17.5762 28.9585C17.5209 28.9364 17.4708 28.9033 17.4287 28.8612C17.3867 28.8191 17.3536 28.769 17.3314 28.7138C17.3093 28.6586 17.2986 28.5994 17.3 28.54V19.54H15.9C15.842 19.5421 15.7842 19.5316 15.7306 19.5091C15.6771 19.4867 15.6291 19.4528 15.59 19.41C15.5468 19.3705 15.5121 19.3227 15.488 19.2694C15.4639 19.2161 15.451 19.1584 15.45 19.1V16.77C15.4494 16.7083 15.4616 16.6472 15.4857 16.5904C15.5098 16.5336 15.5453 16.4824 15.59 16.44C15.6272 16.3941 15.6746 16.3576 15.7284 16.3333C15.7822 16.309 15.841 16.2976 15.9 16.3H17.34V15.12C17.34 12.38 18.74 11 21.54 11C22.4424 10.9941 23.3413 11.1153 24.21 11.36C24.2643 11.3695 24.3161 11.3899 24.3624 11.4199C24.4087 11.45 24.4484 11.489 24.4792 11.5348C24.51 11.5805 24.5313 11.632 24.5417 11.6862C24.5522 11.7403 24.5516 11.796 24.54 11.85L24.23 14.14C24.2023 14.2561 24.1394 14.3609 24.05 14.44C23.997 14.4735 23.9379 14.496 23.876 14.5063C23.8142 14.5166 23.7509 14.5145 23.69 14.5C23.417 14.4356 23.1395 14.3922 22.86 14.37C22.6081 14.3356 22.3542 14.3189 22.1 14.32Z" fill="white" fill-opacity="0.9"/>
</svg>
