<svg width="230" height="56" viewBox="0 0 230 56" fill="none" xmlns="http://www.w3.org/2000/svg">
<path d="M41.2909 0.907227H54.7188C63.4301 0.907227 69.013 5.20463 69.013 12.7967C69.013 20.3888 63.4301 24.6862 54.7188 24.6862H50.8685V34.3315H41.2909V0.907227ZM54.1413 16.6644C57.6065 16.6644 59.3873 15.6617 59.3873 12.7967C59.3873 9.93178 57.6065 8.92905 54.1413 8.92905H50.8685V16.6644H54.1413Z" fill="white"/>
<path d="M96.1984 26.7872V34.3315H73.0966V0.907227H95.9096V8.78581H82.5299V14.2292H94.6102V20.8663H82.5299V26.7872H96.1984Z" fill="white"/>
<path d="M101.855 0.907227H109.7L124.427 18.6698V0.907227H133.764V34.3315H125.919L111.192 16.5689V34.3315H101.855V0.907227Z" fill="white"/>
<path d="M141.058 0.907227H150.587V34.3315H141.058V0.907227Z" fill="white"/>
<path d="M157.929 0.907227H165.774L180.501 18.6698V0.907227H189.838V34.3315H181.993L167.266 16.5689V34.3315H157.929V0.907227Z" fill="white"/>
<path d="M194.655 17.3806C194.655 5.44338 204.28 0 213.81 0C217.805 0 221.414 0.859483 224.398 2.3397V10.266C221.366 9.02456 217.805 8.11733 214.291 8.11733C208.612 8.11733 203.799 10.839 203.799 17.6194C203.799 23.1105 207.649 26.8349 213.04 26.8349C216.746 26.8349 220.837 25.4025 221.077 20.4843H211.403V13.6085H228.73C229.211 15.4707 229.5 17.3329 229.5 19.1473C229.5 27.7422 223.869 35 213.04 35C201.633 35 194.655 27.3124 194.655 17.3806Z" fill="white"/>
<path d="M10.4996 33.3838C11.0624 32.8586 11.5733 32.2819 12.0175 31.6465C12.9986 30.2434 13.6317 28.6309 13.8649 26.9377H10.8106C10.159 26.0011 9.77029 24.9139 9.68143 23.7789V23.1178L13.1245 20.8221C11.6991 19.4117 10.8921 17.4981 10.8847 15.5C10.8847 13.5386 11.6695 11.6543 13.069 10.2696C14.4684 8.88122 16.3639 8.10255 18.3409 8.10255C20.3179 8.10255 22.2171 8.88122 23.6128 10.2696C25.0123 11.658 25.7971 13.5386 25.7971 15.5C25.8045 16.4953 25.612 17.4834 25.2344 18.4053C24.8568 19.3272 24.2977 20.1683 23.5943 20.8772L27.1114 23.1178V23.7789C27.0411 24.9139 26.6487 26.0084 25.9823 26.9377H22.9464C23.1834 28.6162 23.8054 30.2213 24.7679 31.6208C25.2048 32.2562 25.7046 32.8365 26.2599 33.3618C32.2945 30.6584 36.2522 24.8294 36.2522 17.6156C36.2522 7.58833 28.5997 0.234985 18.3483 0.234985C8.09689 0.234985 0.499958 7.592 0.499958 17.6193C0.499958 24.8477 4.45392 30.6878 10.4996 33.3838Z" fill="white"/>
<path d="M0.98 43.2H6.538C7.686 43.2 8.62867 43.3167 9.366 43.55C10.1033 43.7833 10.654 44.1473 11.018 44.642C11.382 45.1273 11.564 45.748 11.564 46.504C11.564 47.288 11.382 47.9273 11.018 48.422C10.654 48.9167 10.1033 49.2807 9.366 49.514C8.62867 49.7473 7.686 49.864 6.538 49.864H3.654V53H0.98V43.2ZM4.62 48.87H7.868L12.222 53H8.848L4.62 48.87ZM6.37 47.694C6.986 47.694 7.46667 47.6613 7.812 47.596C8.16667 47.5307 8.43267 47.414 8.61 47.246C8.78733 47.078 8.876 46.8307 8.876 46.504C8.876 46.2053 8.78733 45.9767 8.61 45.818C8.43267 45.65 8.16667 45.5333 7.812 45.468C7.45733 45.4027 6.97667 45.37 6.37 45.37H3.654V47.694H6.37ZM13.4416 43.2H22.9196V45.356H16.0736V47.162H22.3736V49.024H16.0736V50.872H23.0456V53H13.4416V43.2ZM31.4865 53.126C30.0119 53.126 28.7425 52.916 27.6785 52.496C26.6145 52.0667 25.8025 51.474 25.2425 50.718C24.6825 49.9527 24.4025 49.08 24.4025 48.1C24.4025 47.12 24.6825 46.252 25.2425 45.496C25.8025 44.7307 26.6145 44.138 27.6785 43.718C28.7425 43.2887 30.0119 43.074 31.4865 43.074C31.9812 43.074 32.4899 43.1113 33.0125 43.186C33.5445 43.2607 34.0485 43.368 34.5245 43.508V45.776C34.0485 45.6267 33.5539 45.5193 33.0405 45.454C32.5365 45.3793 32.0559 45.342 31.5985 45.342C30.7119 45.342 29.9325 45.454 29.2605 45.678C28.5885 45.902 28.0612 46.224 27.6785 46.644C27.3052 47.0547 27.1185 47.54 27.1185 48.1C27.1185 48.66 27.3052 49.15 27.6785 49.57C28.0612 49.9807 28.5885 50.298 29.2605 50.522C29.9325 50.746 30.7119 50.858 31.5985 50.858C32.0559 50.858 32.5319 50.8207 33.0265 50.746C33.5305 50.6713 34.0299 50.564 34.5245 50.424V52.692C34.0485 52.832 33.5492 52.9393 33.0265 53.014C32.5039 53.0887 31.9905 53.126 31.4865 53.126ZM42.4858 53.196C41.1698 53.196 40.0218 52.9907 39.0418 52.58C38.0618 52.16 37.3012 51.5673 36.7598 50.802C36.2278 50.0367 35.9618 49.136 35.9618 48.1C35.9618 47.064 36.2278 46.1633 36.7598 45.398C37.3012 44.6327 38.0618 44.0447 39.0418 43.634C40.0218 43.214 41.1698 43.004 42.4858 43.004C43.8018 43.004 44.9452 43.214 45.9158 43.634C46.8958 44.0447 47.6518 44.6327 48.1838 45.398C48.7252 46.1633 48.9958 47.064 48.9958 48.1C48.9958 49.136 48.7252 50.0367 48.1838 50.802C47.6518 51.5673 46.8958 52.16 45.9158 52.58C44.9452 52.9907 43.8018 53.196 42.4858 53.196ZM42.4858 50.886C43.2418 50.886 43.9045 50.7693 44.4738 50.536C45.0432 50.3027 45.4818 49.9807 45.7898 49.57C46.1072 49.15 46.2658 48.66 46.2658 48.1C46.2658 47.54 46.1072 47.0547 45.7898 46.644C45.4818 46.224 45.0432 45.8973 44.4738 45.664C43.9045 45.4307 43.2418 45.314 42.4858 45.314C41.7298 45.314 41.0625 45.4307 40.4838 45.664C39.9145 45.8973 39.4712 46.224 39.1538 46.644C38.8365 47.064 38.6778 47.5493 38.6778 48.1C38.6778 48.6507 38.8365 49.136 39.1538 49.556C39.4712 49.976 39.9145 50.3027 40.4838 50.536C41.0532 50.7693 41.7205 50.886 42.4858 50.886ZM50.8266 43.2H53.7806L58.6386 48.856H57.3786L62.2226 43.2H65.1626L65.1766 53H62.5726L62.5446 46.588L62.6706 46.574L58.0226 51.978L53.2906 46.56L53.4586 46.574L53.4306 53H50.8266V43.2ZM67.4171 43.2H70.3711L75.2291 48.856H73.9691L78.8131 43.2H81.7531L81.7671 53H79.1631L79.1351 46.588L79.2611 46.574L74.6131 51.978L69.8811 46.56L70.0491 46.574L70.0211 53H67.4171V43.2ZM84.0077 43.2H93.4857V45.356H86.6397V47.162H92.9397V49.024H86.6397V50.872H93.6117V53H84.0077V43.2ZM95.4302 43.2H97.7122L105.594 50.186H104.572V43.2H107.232V53H104.95L97.0822 46.014H98.1042V53H95.4302V43.2ZM109.478 43.2H114.504C115.801 43.2 116.912 43.4007 117.836 43.802C118.769 44.194 119.478 44.7587 119.964 45.496C120.458 46.2333 120.706 47.1013 120.706 48.1C120.706 49.0987 120.458 49.9667 119.964 50.704C119.478 51.4413 118.769 52.0107 117.836 52.412C116.912 52.804 115.801 53 114.504 53H109.478V43.2ZM114.336 50.718C115.166 50.718 115.852 50.62 116.394 50.424C116.935 50.2187 117.332 49.9247 117.584 49.542C117.845 49.15 117.976 48.6693 117.976 48.1C117.976 47.5307 117.845 47.0547 117.584 46.672C117.332 46.28 116.935 45.986 116.394 45.79C115.852 45.5847 115.166 45.482 114.336 45.482H112.152V50.718H114.336ZM126.262 43.2H129.496L135.236 53H132.184L127.466 44.614H128.278L123.574 53H120.55L126.262 43.2ZM124.624 48.884H131.302L132.142 51.026H123.826L124.624 48.884ZM138.247 45.412H134.019V43.2H145.107V45.412H140.893V53H138.247V45.412ZM146.781 43.2H149.455V53H146.781V43.2ZM157.771 53.196C156.455 53.196 155.307 52.9907 154.327 52.58C153.347 52.16 152.587 51.5673 152.045 50.802C151.513 50.0367 151.247 49.136 151.247 48.1C151.247 47.064 151.513 46.1633 152.045 45.398C152.587 44.6327 153.347 44.0447 154.327 43.634C155.307 43.214 156.455 43.004 157.771 43.004C159.087 43.004 160.231 43.214 161.201 43.634C162.181 44.0447 162.937 44.6327 163.469 45.398C164.011 46.1633 164.281 47.064 164.281 48.1C164.281 49.136 164.011 50.0367 163.469 50.802C162.937 51.5673 162.181 52.16 161.201 52.58C160.231 52.9907 159.087 53.196 157.771 53.196ZM157.771 50.886C158.527 50.886 159.19 50.7693 159.759 50.536C160.329 50.3027 160.767 49.9807 161.075 49.57C161.393 49.15 161.551 48.66 161.551 48.1C161.551 47.54 161.393 47.0547 161.075 46.644C160.767 46.224 160.329 45.8973 159.759 45.664C159.19 45.4307 158.527 45.314 157.771 45.314C157.015 45.314 156.348 45.4307 155.769 45.664C155.2 45.8973 154.757 46.224 154.439 46.644C154.122 47.064 153.963 47.5493 153.963 48.1C153.963 48.6507 154.122 49.136 154.439 49.556C154.757 49.976 155.2 50.3027 155.769 50.536C156.339 50.7693 157.006 50.886 157.771 50.886ZM166.112 43.2H168.394L176.276 50.186H175.254V43.2H177.914V53H175.632L167.764 46.014H168.786V53H166.112V43.2ZM192.531 53.196C191.215 53.196 190.067 52.9907 189.087 52.58C188.107 52.16 187.347 51.5673 186.805 50.802C186.273 50.0367 186.007 49.136 186.007 48.1C186.007 47.064 186.273 46.1633 186.805 45.398C187.347 44.6327 188.107 44.0447 189.087 43.634C190.067 43.214 191.215 43.004 192.531 43.004C193.847 43.004 194.991 43.214 195.961 43.634C196.941 44.0447 197.697 44.6327 198.229 45.398C198.771 46.1633 199.041 47.064 199.041 48.1C199.041 49.136 198.771 50.0367 198.229 50.802C197.697 51.5673 196.941 52.16 195.961 52.58C194.991 52.9907 193.847 53.196 192.531 53.196ZM192.531 50.886C193.287 50.886 193.95 50.7693 194.519 50.536C195.089 50.3027 195.527 49.9807 195.835 49.57C196.153 49.15 196.311 48.66 196.311 48.1C196.311 47.54 196.153 47.0547 195.835 46.644C195.527 46.224 195.089 45.8973 194.519 45.664C193.95 45.4307 193.287 45.314 192.531 45.314C191.775 45.314 191.108 45.4307 190.529 45.664C189.96 45.8973 189.517 46.224 189.199 46.644C188.882 47.0547 188.723 47.54 188.723 48.1C188.723 48.66 188.882 49.15 189.199 49.57C189.517 49.9807 189.96 50.3027 190.529 50.536C191.108 50.7693 191.775 50.886 192.531 50.886ZM199.853 55.1C198.901 55.1093 198.099 55.0487 197.445 54.918C196.792 54.7873 196.195 54.568 195.653 54.26C195.121 53.952 194.529 53.518 193.875 52.958L195.205 51.418C195.747 51.8847 196.218 52.2347 196.619 52.468C197.021 52.692 197.464 52.8507 197.949 52.944C198.435 53.028 199.065 53.0653 199.839 53.056L199.853 55.1ZM206.319 53.196C205.115 53.196 204.098 53.0187 203.267 52.664C202.436 52.3093 201.802 51.754 201.363 50.998C200.924 50.242 200.705 49.2713 200.705 48.086V43.2H203.379V47.75C203.379 48.506 203.491 49.1127 203.715 49.57C203.948 50.0273 204.28 50.3587 204.709 50.564C205.148 50.76 205.684 50.858 206.319 50.858C206.972 50.858 207.514 50.76 207.943 50.564C208.382 50.3587 208.713 50.0273 208.937 49.57C209.17 49.1127 209.287 48.506 209.287 47.75V43.2H211.933V48.086C211.933 49.2713 211.709 50.242 211.261 50.998C210.822 51.754 210.188 52.3093 209.357 52.664C208.526 53.0187 207.514 53.196 206.319 53.196ZM214.045 43.2H216.719V53H214.045V43.2ZM218.749 51.25L225.987 44.362L226.309 45.412H218.749V43.2H228.591V44.95L221.325 51.838L221.003 50.788H228.619V53H218.749V51.25Z" fill="#81B64C"/>
</svg>
