<svg width="40" height="40" viewBox="0 0 40 40" fill="none" xmlns="http://www.w3.org/2000/svg">
<rect width="40" height="40" rx="5" fill="#0077B5"/>
<path d="M13.58 11.9C13.8445 11.8728 14.1118 11.9014 14.3646 11.9839C14.6174 12.0665 14.85 12.2012 15.0475 12.3794C15.2449 12.5575 15.4028 12.7751 15.5108 13.0181C15.6188 13.2611 15.6747 13.5241 15.6747 13.79C15.6747 14.0559 15.6188 14.3189 15.5108 14.5619C15.4028 14.8049 15.2449 15.0225 15.0475 15.2007C14.85 15.3788 14.6174 15.5135 14.3646 15.5961C14.1118 15.6787 13.8445 15.7073 13.58 15.68C13.322 15.698 13.0631 15.6623 12.8196 15.5752C12.5762 15.488 12.3534 15.3513 12.1654 15.1737C11.9775 14.9961 11.8284 14.7814 11.7276 14.5432C11.6269 14.3051 11.5766 14.0486 11.58 13.79C11.581 13.5327 11.6342 13.2783 11.7365 13.0422C11.8388 12.806 11.988 12.5932 12.175 12.4164C12.362 12.2397 12.583 12.1028 12.8245 12.014C13.066 11.9253 13.323 11.8865 13.58 11.9ZM24.29 16.9C26.68 16.9 28.47 18.47 28.47 21.82V28.1H24.84V22.25C24.84 20.78 24.32 19.78 23 19.78C22.5912 19.785 22.1937 19.9152 21.8612 20.153C21.5286 20.3908 21.2769 20.7248 21.14 21.11C21.0376 21.3952 20.9901 21.6972 21 22V28.1H17.38C17.38 28.1 17.38 18.19 17.38 17.17H21V18.72C21.3263 18.1471 21.8041 17.6752 22.3809 17.3559C22.9577 17.0366 23.6113 16.8824 24.27 16.91L24.29 16.9ZM11.74 17.17H15.37V28.1H11.74V17.17Z" fill="white" fill-opacity="0.9"/>
</svg>
