<svg width="967" height="563" viewBox="0 0 967 563" fill="none" xmlns="http://www.w3.org/2000/svg">
<g clip-path="url(#clip0_938_13548)">
<path d="M57.7309 536.741C-1.26753 501.496 -31.7236 382.542 55.9939 346.261C137.347 312.612 110.211 283.37 90.0728 251.918C35.4102 166.543 109.655 97.0207 271.715 125.486C433.774 153.951 386.372 33.1843 586.697 18.9225C775.479 5.48286 849.318 125.676 851.755 233.711C854.193 341.747 924.645 352.834 939.013 418.621C950.234 469.996 939.153 508.829 912.079 537.696C866.955 585.807 668.343 529.404 563.571 534.071C303.143 545.674 57.7309 536.741 57.7309 536.741Z" fill="black" fill-opacity="0.1"/>
<path d="M50.9969 210.144C50.9969 245.631 6.07611 240.021 6.07611 199.48C6.07611 158.938 50.9969 168.234 50.9969 210.144Z" fill="black" fill-opacity="0.1"/>
<path d="M57.7309 269.544C57.7309 292.427 30.3799 289.843 30.3799 267.336C30.3799 244.829 57.7309 246.659 57.7309 269.544Z" fill="black" fill-opacity="0.1"/>
<path d="M884.362 267.584C884.362 303.551 929.08 345.443 929.08 276.813C929.08 208.184 884.362 211.749 884.362 267.584Z" fill="black" fill-opacity="0.1"/>
<path d="M231.128 195.309L291.166 179.211L290.793 177.816C285.188 156.885 266.772 167.971 259.241 146.227L267.195 144.094C267.742 141.787 267.296 139.497 266.694 137.249L256.936 134.382C259.932 130.338 260.586 125.011 259.424 120.669C257.224 112.452 248.759 107.577 240.428 109.727C232.061 112.054 227.167 120.512 229.367 128.73C230.529 133.07 233.758 137.356 238.373 139.359L231.354 146.725C231.956 148.973 232.714 151.179 234.341 152.903L242.295 150.771C246.637 173.37 225.149 172.983 230.754 193.914L231.128 195.309Z" fill="#4B4847"/>
<path opacity="0.3" d="M589.069 44.0618L566.273 159.254L613.271 49.831L589.069 44.0618Z" fill="url(#paint0_linear_938_13548)"/>
<path opacity="0.3" d="M182.385 102.434L266.827 199.479L191.868 97.566L182.385 102.434Z" fill="url(#paint1_linear_938_13548)"/>
<path opacity="0.3" d="M370.316 89.4131L407.682 195.238L388.676 80.5511L370.316 89.4131Z" fill="url(#paint2_linear_938_13548)"/>
<path opacity="0.3" d="M617.7 113.984L547.658 285.668L634.003 120.673L617.7 113.984Z" fill="url(#paint3_linear_938_13548)"/>
<path opacity="0.3" d="M756.041 191.986L646.158 288.545L764.845 202.106L756.041 191.986Z" fill="url(#paint4_linear_938_13548)"/>
<path opacity="0.3" d="M260.746 240.339L324.398 294.197L270.055 227.084L260.746 240.339Z" fill="url(#paint5_linear_938_13548)"/>
<path opacity="0.08" d="M516.366 331.302C516.366 331.302 585.436 311.057 699.312 201.246L637.097 165.328C606.915 220.675 574.217 286.47 516.366 331.302Z" fill="url(#paint6_linear_938_13548)"/>
<path opacity="0.1" d="M369.015 306.56C369.015 306.56 471.483 521.473 699.213 657.186C534.95 416.072 485.076 267.129 485.076 267.129L369.015 306.56Z" fill="url(#paint7_linear_938_13548)"/>
<path opacity="0.3" d="M463.476 149.523C463.476 149.523 431.375 263.677 527.07 398.427C527.07 398.427 557.859 258.648 581.572 170.583L463.476 149.523Z" fill="url(#paint8_linear_938_13548)"/>
<path opacity="0.08" d="M231.698 195.458C231.698 195.458 253.416 253.179 412.634 275.968C412.634 275.968 310.217 234.859 291.158 179.402L231.698 195.458Z" fill="url(#paint9_linear_938_13548)"/>
<path d="M202.795 581.577L433.517 563.756L461.774 531.911H204.287L202.795 581.577Z" fill="#45753C"/>
<path d="M764.042 581.577L533.32 563.756L505.062 531.911H762.548L764.042 581.577Z" fill="#45753C"/>
<path d="M81.6081 522.762V527.938H30.3799L31.5554 524.061L32.8201 522.762H81.6081Z" fill="#CCCCCC"/>
<path d="M936.374 527.108H884.362V522.201H933.632L935.445 524.061L936.374 527.108Z" fill="#CCCCCC"/>
<path d="M935.445 524.061H485.011C485 524.05 485 524.061 484.988 524.061H31.5554L32.8201 522.763L57.7738 497.22L61.8485 493.041L105.61 448.23L107.457 446.337L121.944 431.505L127.16 426.16L140.113 412.895L143.506 409.423H477.623C480.97 416.771 482.549 422.732 483.231 425.97C483.32 426.418 483.41 426.821 483.466 427.157C483.993 424.369 485.503 417.78 489.321 409.424H823.494L826.863 412.874L839.838 426.15L845.055 431.495L859.519 446.305L861.378 448.21L905.139 493.021L909.214 497.2L921.898 510.185L933.63 522.206L935.445 524.065V524.061Z" fill="#CCCCCC"/>
<g opacity="0.1">
<path d="M921.899 510.181C890.485 509.117 852.758 504.569 838.115 502.575C817.874 499.819 798.025 494.756 778.826 487.787C753.189 478.477 698.232 464.754 640.768 460.665C630.021 459.892 619.184 459.466 608.425 459.466C539.821 459.466 501.893 504.692 488.806 524.061C487.575 525.887 486.556 527.479 485.761 528.79C484.339 531.109 483.612 532.52 483.522 532.688C483.544 532.453 484.004 529.272 485.078 524.061C485.504 522.023 486.019 519.671 486.645 517.06C488.772 508.132 492.153 496.201 497.236 483.462C508.979 454.066 529.825 420.368 565.47 409.423C580.214 404.887 597.499 404.247 617.718 409.423C620.863 410.229 624.087 411.17 627.379 412.268C635.853 415.08 644.306 417.578 652.714 419.797C733.363 441.049 809.052 435.985 845.056 431.493L909.214 497.197L921.899 510.181Z" fill="black"/>
</g>
<path d="M924.126 479.116C908.251 500.827 869.527 500.871 838.115 496.603C817.874 493.847 798.025 488.783 778.826 481.816C753.188 472.506 698.232 458.783 640.768 454.694C630.021 453.92 619.184 453.495 608.425 453.495C533.363 453.495 495.031 507.638 485.761 522.818C484.25 525.295 483.51 526.728 483.51 526.728C483.51 526.728 484.36 520.622 486.645 511.088C488.772 502.16 492.153 490.229 497.236 477.49C514.599 434.023 551.834 381.19 627.379 406.297C635.853 409.108 644.305 411.607 652.714 413.825C764.653 443.322 867.032 422.127 867.032 422.127L876.873 431.94L924.127 479.115L924.126 479.116Z" fill="#E6E6E6"/>
<path d="M957.499 596.488L774.147 586.215C774.147 586.215 572.233 485.233 483.769 571.439V514.91C505.767 482.209 544.983 466.514 583.316 461.282C650.407 452.566 714.891 470.871 776.755 495.283C814.796 510.384 847.933 520.467 884.362 523.772C885.493 523.883 886.612 523.984 887.754 524.062C902.856 525.273 918.564 525.306 935.446 524.062L936.375 527.11L957.5 596.49L957.499 596.488Z" fill="#E6E6E6"/>
<g opacity="0.2">
<path d="M935.713 524.936C919.044 526.145 903.528 526.1 888.594 524.902C887.451 524.823 886.332 524.722 885.201 524.611C848.772 521.306 815.634 511.224 777.595 496.123C715.73 471.711 651.246 453.405 584.154 462.121C545.822 467.354 506.607 483.048 484.608 515.75V571.025C484.328 571.159 484.049 571.293 483.768 571.439V514.91C505.766 482.209 544.983 466.513 583.315 461.282C650.407 452.566 714.89 470.871 776.754 495.283C814.795 510.384 847.932 520.467 884.361 523.772C885.492 523.883 886.611 523.984 887.753 524.062C902.855 525.272 918.563 525.306 935.445 524.062L935.713 524.936Z" fill="white"/>
</g>
<path d="M957.499 596.488L774.147 586.216C774.147 586.216 582.879 521.44 483.769 571.439V570.184C571.672 486.913 773.306 585.375 773.306 585.375L956.66 595.648L957.499 596.488Z" fill="#204227"/>
<path d="M483.231 514.91V571.438C424.457 491.954 192.853 586.215 192.853 586.215L9.50092 596.487L30.3799 527.937L31.5554 524.061C48.4376 525.305 64.1443 525.27 79.2467 524.061C80.042 524.005 80.825 523.939 81.609 523.87C118.44 520.655 151.847 510.528 190.246 495.282C252.111 470.87 316.594 452.565 383.685 461.28C422.017 466.512 461.234 482.207 483.232 514.909L483.231 514.91Z" fill="#E6E6E6"/>
<g opacity="0.3">
<path d="M471.062 500.132C448.404 477.939 416.207 466.524 384.614 462.211C317.522 453.495 253.037 471.8 191.175 496.211C152.776 511.458 119.369 521.586 82.5375 524.801C81.7536 524.868 80.9697 524.935 80.1752 524.991C65.0729 526.201 49.3661 526.235 32.4839 524.991L31.3084 528.867L10.7316 596.42L9.50012 596.487L30.3791 527.937L31.5546 524.061C48.4368 525.305 64.1435 525.27 79.2459 524.061C80.0412 524.005 80.8242 523.939 81.6082 523.87C118.44 520.655 151.846 510.528 190.245 495.282C252.11 470.87 316.593 452.565 383.685 461.28C415.714 465.65 448.358 477.322 471.062 500.132Z" fill="white"/>
</g>
<path d="M483.231 514.91V571.438C426.695 491.768 192.853 586.215 192.853 586.215L9.50092 596.488L9.80311 595.49L191.924 585.284C191.924 585.284 383.192 520.51 482.302 570.508V513.978C478.865 508.87 475.013 504.176 470.804 499.874C475.372 504.433 479.548 509.43 483.231 514.908V514.91Z" fill="#204227"/>
<path opacity="0.1" d="M876.872 431.94C833.312 477.906 760.567 462.233 742.677 458.671C737.584 457.663 732.456 456.867 727.296 456.351C710.995 454.716 677.399 452.229 640.769 454.694C630.022 453.92 619.185 453.495 608.426 453.495C533.364 453.495 495.032 507.637 485.762 522.818C485.84 519.133 484.96 515.24 485.497 511.14C486.852 500.575 491.079 488.873 497.237 477.491C511.668 450.773 542.991 425.533 608.47 419.248C623.976 417.758 638.72 415.932 652.714 413.826C764.653 443.323 867.032 422.128 867.032 422.128L876.872 431.94Z" fill="black"/>
<path d="M900.807 412.974C855.466 482.645 766.107 454.19 746.192 448.208C741.222 446.706 736.195 445.428 731.112 444.42C723.197 442.852 711.129 440.678 696.52 438.752C661.568 434.136 612.131 430.932 570.586 440.858C497.46 458.313 484.463 515.525 484.463 515.525C484.463 515.525 463.606 396.147 616.363 396.147C727.787 396.147 802.693 374.593 835.069 362.93C847.07 358.617 853.228 355.649 853.228 355.649L900.807 412.974Z" fill="#F2F2F2"/>
<path opacity="0.1" d="M858.456 402.566C783.303 428.545 734.504 435.783 696.519 438.751C661.568 434.136 612.131 430.932 570.586 440.857C497.46 458.312 484.463 515.524 484.463 515.524C484.463 515.524 463.606 396.146 616.363 396.146C727.787 396.146 802.693 374.592 835.069 362.93L858.456 402.566Z" fill="black"/>
<path d="M864.424 386.883C860.102 388.373 855.881 389.806 851.728 391.173C828.006 399.026 807.038 404.93 788.275 409.422C751.197 418.295 722.694 421.623 698.535 423.37C689.836 423.998 681.709 424.423 673.94 424.826C650.687 426.025 630.682 427.045 608.616 432.814C604.9 433.789 601.194 434.933 597.487 436.242C570.083 445.877 543.214 463.958 522.425 480.426C520.276 482.107 518.204 483.787 516.201 485.435C504.098 495.394 494.561 504.323 488.93 509.812C488.918 509.824 488.918 509.835 488.907 509.845C488.706 510.036 488.516 510.227 488.325 510.417C487.585 511.134 486.925 511.794 486.344 512.378C486.254 512.467 486.164 512.558 486.074 512.635C485.94 512.781 485.806 512.916 485.671 513.039C485.548 513.161 485.437 513.273 485.324 513.397L484.294 514.428C484.093 514.641 483.913 514.82 483.768 514.977C483.745 514.999 483.735 515.01 483.712 515.032C483.612 515.134 483.533 515.213 483.466 515.279C483.309 515.447 483.232 515.525 483.232 515.525V428.614C483.232 428.614 483.299 428.11 483.466 427.168V427.157C483.993 424.368 485.503 417.78 489.321 409.423C498.837 388.518 522.695 356.49 581.188 344.871C746.876 311.957 793.894 267.337 793.894 267.337L847.484 358.169L864.424 386.883Z" fill="white"/>
<path d="M864.424 386.883C860.102 388.373 855.881 389.806 851.728 391.173C828.006 399.026 807.038 404.93 788.275 409.422C751.197 418.295 722.694 421.623 698.535 423.37C689.836 423.998 681.709 424.423 673.94 424.826C650.687 426.025 630.682 427.045 608.616 432.814C604.9 433.789 601.194 434.933 597.487 436.242C570.083 445.877 543.214 463.958 522.425 480.426C520.276 482.107 518.204 483.787 516.201 485.435C504.098 495.394 494.561 504.323 488.93 509.812C488.918 509.824 488.918 509.835 488.907 509.845C488.706 510.036 488.516 510.227 488.325 510.417C487.585 511.134 486.925 511.794 486.344 512.378C486.254 512.467 486.164 512.558 486.074 512.635C485.94 512.781 485.806 512.916 485.671 513.039C485.548 513.161 485.437 513.273 485.324 513.397L484.294 514.428C484.093 514.641 483.913 514.82 483.768 514.977C483.745 514.999 483.735 515.01 483.712 515.032C483.612 515.134 483.533 515.213 483.466 515.279C483.309 515.447 483.232 515.525 483.232 515.525V428.614C483.232 428.614 483.299 428.11 483.466 427.168V427.157C483.993 424.368 485.503 417.78 489.321 409.423C498.837 388.518 522.695 356.49 581.188 344.871C746.876 311.957 793.894 267.337 793.894 267.337L847.484 358.169L864.424 386.883Z" fill="url(#paint10_linear_938_13548)"/>
<g opacity="0.1">
<path d="M57.7308 497.197C76.8186 506.574 104.941 505.824 128.831 502.574C149.071 499.819 168.92 494.756 188.12 487.787C213.757 478.477 268.712 464.754 326.178 460.665C336.925 459.892 347.761 459.466 358.521 459.466C427.123 459.466 465.053 504.692 478.139 524.061C479.371 525.887 480.39 527.478 481.184 528.789C482.695 531.265 483.434 532.7 483.434 532.7C483.434 532.7 482.986 529.484 481.868 524.062C481.441 522.023 480.927 519.672 480.3 517.061C478.173 508.133 474.792 496.202 469.71 483.463C457.966 454.067 437.12 420.369 401.476 409.424C386.732 404.886 369.446 404.248 349.229 409.424C346.082 410.23 342.859 411.171 339.568 412.269C331.093 415.081 322.64 417.579 314.233 419.797C233.584 441.05 157.894 435.986 121.89 431.493L57.7308 497.197Z" fill="black"/>
</g>
<path d="M42.8186 479.116C58.6936 500.827 97.4173 500.871 128.83 496.603C149.071 493.847 168.919 488.783 188.119 481.816C213.756 472.506 268.712 458.783 326.177 454.694C336.924 453.92 347.761 453.495 358.52 453.495C433.582 453.495 471.914 507.638 481.184 522.818C482.695 525.295 483.435 526.728 483.435 526.728C483.435 526.728 482.584 520.622 480.299 511.088C478.172 502.16 474.792 490.229 469.709 477.49C452.346 434.023 415.11 381.19 339.566 406.297C331.092 409.108 322.639 411.607 314.231 413.825C202.291 443.322 99.9128 422.127 99.9128 422.127L90.072 431.94L42.8178 479.115L42.8186 479.116Z" fill="#E6E6E6"/>
<path opacity="0.1" d="M90.0737 431.94C133.633 477.906 206.379 462.233 224.269 458.671C229.362 457.663 234.489 456.867 239.65 456.351C255.95 454.716 289.547 452.229 326.177 454.694C336.924 453.92 347.761 453.495 358.52 453.495C433.582 453.495 471.914 507.637 481.184 522.818C481.106 519.133 481.722 515.263 481.184 511.162C479.829 500.598 475.867 488.873 469.709 477.49C455.278 450.772 423.955 425.532 358.475 419.247C342.969 417.757 328.225 415.931 314.232 413.825C202.292 443.322 99.9135 422.127 99.9135 422.127L90.0737 431.94Z" fill="black"/>
<path d="M66.1378 412.974C111.478 482.645 200.837 454.19 220.752 448.208C225.723 446.706 230.75 445.428 235.832 444.42C243.747 442.852 255.815 440.678 270.425 438.752C305.377 434.136 354.814 430.932 396.358 440.858C469.485 458.313 482.482 515.525 482.482 515.525C482.482 515.525 503.339 396.147 350.582 396.147C239.159 396.147 164.251 374.593 131.876 362.93C119.875 358.617 113.717 355.649 113.717 355.649L66.1378 412.974Z" fill="#F2F2F2"/>
<path opacity="0.1" d="M108.489 402.566C183.642 428.545 232.441 435.783 270.425 438.751C305.377 434.136 354.814 430.932 396.358 440.857C469.485 458.312 482.482 515.524 482.482 515.524C482.482 515.524 503.339 396.146 350.582 396.146C239.158 396.146 164.251 374.592 131.875 362.93L108.489 402.566Z" fill="black"/>
<path d="M483.713 428.614V515.525C483.713 515.525 483.635 515.447 483.467 515.279V515.268L483.232 515.031C483.075 514.875 482.885 514.673 482.65 514.427L482.303 514.08C482.213 513.99 482.113 513.89 482.011 513.778L481.363 513.128C481.34 513.106 481.318 513.072 481.285 513.05C481.161 512.916 481.027 512.781 480.881 512.646C480.792 512.558 480.704 512.468 480.613 512.378L480.601 512.367C480.019 511.783 479.359 511.134 478.62 510.405C474.646 506.53 468.5 500.693 460.73 493.904L460.496 493.701C456.186 489.937 451.373 485.893 446.155 481.726C445.584 481.255 445.002 480.796 444.408 480.325C444.408 480.325 444.397 480.314 444.386 480.314C423.63 463.879 396.829 445.877 369.502 436.253C365.785 434.943 362.057 433.788 358.329 432.813C336.274 427.044 316.258 426.024 293.005 424.826C285.236 424.423 277.109 423.997 268.41 423.369C244.251 421.622 215.749 418.294 178.67 409.421C159.907 404.929 138.938 399.025 115.217 391.172C111.063 389.806 106.842 388.372 102.521 386.882L119.46 358.168L173.05 267.336C173.05 267.336 220.07 311.956 385.756 344.87C422.902 352.243 446.086 367.859 460.494 383.633C460.573 383.722 460.662 383.812 460.729 383.902C468.868 392.876 474.186 401.872 477.623 409.422C480.97 416.771 482.549 422.731 483.231 425.969C483.32 426.417 483.41 426.82 483.466 427.157V427.168C483.645 428.11 483.713 428.614 483.713 428.614Z" fill="white"/>
<path d="M483.713 428.614V515.525C483.713 515.525 483.635 515.447 483.467 515.279V515.268L483.232 515.031C483.075 514.875 482.885 514.673 482.65 514.427L482.303 514.08C482.213 513.99 482.113 513.89 482.011 513.778L481.363 513.128C481.34 513.106 481.318 513.072 481.285 513.05C481.161 512.916 481.027 512.781 480.881 512.646C480.792 512.558 480.704 512.468 480.613 512.378L480.601 512.367C480.019 511.783 479.359 511.134 478.62 510.405C474.646 506.53 468.5 500.693 460.73 493.904L460.496 493.701C456.186 489.937 451.373 485.893 446.155 481.726C445.584 481.255 445.002 480.796 444.408 480.325C444.408 480.325 444.397 480.314 444.386 480.314C423.63 463.879 396.829 445.877 369.502 436.253C365.785 434.943 362.057 433.788 358.329 432.813C336.274 427.044 316.258 426.024 293.005 424.826C285.236 424.423 277.109 423.997 268.41 423.369C244.251 421.622 215.749 418.294 178.67 409.421C159.907 404.929 138.938 399.025 115.217 391.172C111.063 389.806 106.842 388.372 102.521 386.882L119.46 358.168L173.05 267.336C173.05 267.336 220.07 311.956 385.756 344.87C422.902 352.243 446.086 367.859 460.494 383.633C460.573 383.722 460.662 383.812 460.729 383.902C468.868 392.876 474.186 401.872 477.623 409.422C480.97 416.771 482.549 422.731 483.231 425.969C483.32 426.417 483.41 426.82 483.466 427.157V427.168C483.645 428.11 483.713 428.614 483.713 428.614Z" fill="url(#paint11_linear_938_13548)"/>
<path opacity="0.05" d="M483.467 427.157V515.279C483.31 515.448 483.232 515.525 483.232 515.525V515.032C483.075 514.875 482.885 514.674 482.65 514.428L482.303 514.081C482.213 513.991 482.113 513.891 482.012 513.778L481.363 513.129C481.34 513.107 481.318 513.073 481.285 513.051C481.161 512.917 481.027 512.782 480.883 512.647C480.793 512.559 480.704 512.469 480.613 512.379L480.602 512.368C480.019 511.784 479.359 511.135 478.621 510.406C474.646 506.531 468.5 500.694 460.731 493.905V383.903C468.869 392.877 474.188 401.873 477.625 409.423C480.972 416.772 482.551 422.732 483.233 425.97C483.322 426.418 483.412 426.821 483.468 427.158L483.467 427.157Z" fill="black"/>
<path d="M551.711 558.002V574.862L536.922 573.765C536.273 574.358 535.635 574.941 534.985 575.513C533.597 576.746 532.209 577.91 530.821 578.997C530.339 579.378 529.87 579.747 529.387 580.106C528.066 581.125 526.746 582.067 525.424 582.962C524.932 583.31 524.429 583.635 523.924 583.959C523.107 584.497 522.277 585.013 521.46 585.494C521.405 585.538 521.349 585.572 521.292 585.606C520.778 585.908 520.274 586.199 519.758 586.492C519.501 586.649 519.244 586.793 518.986 586.928C518.729 587.074 518.483 587.209 518.226 587.355C517.542 587.725 516.859 588.083 516.176 588.419C515.863 588.576 515.561 588.733 515.247 588.878C514.821 589.091 514.397 589.293 513.97 589.483C513.523 589.695 513.086 589.898 512.639 590.088C511.945 590.402 511.261 590.692 510.578 590.962C510.153 591.13 509.716 591.297 509.291 591.466C508.16 591.902 507.041 592.295 505.921 592.653C505.586 592.765 505.26 592.866 504.936 592.967C504.903 592.979 504.88 592.99 504.857 592.99C504.532 593.09 504.219 593.191 503.894 593.28C503.424 593.415 502.965 593.55 502.506 593.662C502.059 593.784 501.611 593.908 501.162 594.009C500.491 594.189 499.818 594.335 499.147 594.468C499.002 594.513 498.856 594.536 498.711 594.558C498.397 594.635 498.083 594.692 497.77 594.748C497.558 594.792 497.356 594.838 497.142 594.861C496.684 594.949 496.214 595.029 495.754 595.095C495.699 595.118 495.643 595.128 495.586 595.128C494.746 595.263 493.908 595.375 493.067 595.464C492.675 595.509 492.283 595.554 491.892 595.588C491.433 595.632 490.974 595.678 490.526 595.712C488.142 595.89 485.791 595.924 483.507 595.834C480.294 595.958 476.98 595.847 473.6 595.432C472.927 595.354 472.279 595.263 471.619 595.163C471.551 595.151 471.473 595.14 471.405 595.129C471.215 595.106 471.025 595.073 470.834 595.029C470.632 595.006 470.42 594.972 470.218 594.928C470.017 594.905 469.815 594.86 469.614 594.815C469.525 594.815 469.434 594.793 469.345 594.771C468.987 594.704 468.64 594.635 468.282 594.558C467.991 594.502 467.699 594.445 467.409 594.378C466.121 594.097 464.822 593.773 463.524 593.392C463.042 593.257 462.55 593.123 462.068 592.966C462.057 592.966 462.045 592.966 462.035 592.955C461.721 592.865 461.398 592.764 461.084 592.653C459.483 592.137 457.882 591.555 456.269 590.893C455.721 590.68 455.184 590.445 454.647 590.209C454.322 590.076 454.008 589.929 453.684 589.772C453.326 589.627 452.967 589.458 452.609 589.279C452.285 589.134 451.96 588.977 451.635 588.82C450.617 588.327 449.598 587.8 448.579 587.241C448.132 587.006 447.683 586.758 447.246 586.501C446.799 586.243 446.351 585.986 445.904 585.716C445.791 585.661 445.69 585.592 445.578 585.526C444.246 584.73 442.914 583.879 441.571 582.961C441.068 582.614 440.553 582.267 440.048 581.908C440.004 581.875 439.97 581.851 439.926 581.818C439.075 581.214 438.224 580.586 437.372 579.925C436.881 579.555 436.387 579.164 435.895 578.771C434.596 577.751 433.309 576.665 432.011 575.511C431.361 574.94 430.723 574.357 430.074 573.763L427.812 573.932V557.071L429.234 556.971L466.749 519.418C470.88 515.296 476.265 512.876 482.052 512.54C482.198 512.528 482.344 512.518 482.501 512.518C482.825 512.495 483.161 512.485 483.497 512.485C483.844 512.485 484.18 512.496 484.516 512.518C484.673 512.506 484.818 512.518 484.952 512.54C490.729 512.875 496.114 515.295 500.246 519.418L537.771 556.971L551.709 558.001L551.711 558.002Z" fill="#305730"/>
<path d="M512.495 543.573C508.365 539.451 502.979 537.031 497.203 536.694C497.068 536.67 496.922 536.66 496.766 536.67C496.43 536.648 496.082 536.637 495.735 536.637C495.411 536.637 495.075 536.649 494.75 536.67C494.593 536.67 494.448 536.682 494.303 536.694C488.514 537.03 483.129 539.45 478.999 543.573L441.484 581.124L440.05 581.225V581.909C440.006 581.875 439.972 581.852 439.927 581.819C439.076 581.215 438.225 580.587 437.375 579.926C436.882 579.556 436.389 579.165 435.897 578.771C434.598 577.752 433.312 576.665 432.013 575.512C431.363 574.941 430.725 574.357 430.076 573.764L427.814 573.933V568.521L428.821 568.454L466.336 530.903C470.468 526.78 475.852 524.36 481.64 524.023C481.786 524.012 481.931 524.002 482.088 524.002C482.412 523.979 482.748 523.968 483.073 523.968C483.421 523.968 483.767 523.98 484.103 524.002C484.26 523.99 484.406 524.002 484.539 524.023C490.316 524.359 495.701 526.779 499.832 530.903L512.494 543.573H512.495Z" fill="#1C3724"/>
<path d="M500.248 519.423C498.692 517.866 496.946 516.544 495.065 515.503C493.989 514.887 492.87 514.372 491.718 513.956C490.408 513.464 489.065 513.105 487.688 512.87C487.374 512.802 487.049 512.757 486.736 512.724C486.579 512.691 486.433 512.68 486.276 512.669C486.209 512.645 486.143 512.645 486.075 512.634C485.851 512.612 485.627 512.59 485.392 512.579C485.381 512.579 485.369 512.567 485.359 512.579C485.348 512.567 485.336 512.567 485.313 512.579C485.191 512.557 485.079 512.557 484.956 512.546C484.821 512.523 484.675 512.512 484.518 512.523C484.361 512.512 484.217 512.5 484.06 512.512C483.947 512.5 483.836 512.489 483.713 512.5C483.645 512.489 483.567 512.489 483.5 512.489H483.467C483.388 512.489 483.31 512.489 483.232 512.5C483.108 512.489 482.997 512.5 482.885 512.512C482.751 512.512 482.628 512.512 482.504 512.523C482.347 512.523 482.201 512.534 482.057 512.546C481.911 512.557 481.777 512.567 481.63 512.579H481.608C481.519 512.579 481.439 512.59 481.35 512.601H481.328C481.182 512.613 481.036 512.624 480.88 512.646C480.812 512.646 480.746 512.658 480.678 512.669C480.198 512.725 479.727 512.792 479.257 512.882C477.88 513.118 476.536 513.486 475.238 513.969C474.084 514.395 472.966 514.922 471.88 515.526C470.021 516.568 468.297 517.879 466.752 519.425L441.273 544.923L431.253 554.961L423.148 563.071L428.555 568.482L440.321 580.268C440.321 580.268 440.321 580.279 440.333 580.279L445.583 585.533C445.695 585.6 445.796 585.667 445.908 585.723C446.355 585.993 446.803 586.25 447.252 586.508C447.689 586.765 448.136 587.012 448.583 587.248C449.603 587.807 450.621 588.334 451.639 588.827C451.965 588.984 452.289 589.141 452.613 589.286C452.972 589.466 453.33 589.633 453.689 589.779C454.014 589.936 454.326 590.082 454.651 590.215C455.189 590.451 455.725 590.686 456.274 590.899C457.887 591.56 459.487 592.143 461.088 592.659C461.402 592.77 461.726 592.871 462.039 592.96C462.051 592.973 462.062 592.973 462.072 592.973C462.555 593.129 463.046 593.263 463.528 593.398C464.826 593.779 466.124 594.103 467.412 594.384C467.558 594.407 467.692 594.44 467.838 594.463C467.983 594.508 468.129 594.542 468.285 594.564C468.498 594.608 468.7 594.653 468.913 594.688C469.058 594.721 469.203 594.755 469.349 594.777C469.438 594.788 469.528 594.81 469.617 594.821C469.819 594.867 470.02 594.911 470.222 594.934C470.423 594.978 470.637 595.013 470.838 595.035C471.028 595.079 471.219 595.112 471.409 595.135L439.368 563.072L453.373 549.058L453.608 548.823L474.867 527.549C475.114 527.302 475.371 527.067 475.629 526.854C475.887 526.629 476.155 526.417 476.434 526.226C476.659 526.058 476.894 525.901 477.128 525.766C477.23 525.699 477.341 525.633 477.454 525.576C477.678 525.443 477.901 525.319 478.136 525.207C478.159 525.195 478.169 525.195 478.182 525.173C478.36 525.095 478.539 525.017 478.719 524.939C478.843 524.894 478.966 524.838 479.099 524.793C479.402 524.669 479.703 524.568 480.017 524.479C480.32 524.378 480.633 524.311 480.958 524.244C481.003 524.232 481.058 524.221 481.104 524.211C481.35 524.155 481.607 524.111 481.865 524.088C481.887 524.076 481.909 524.077 481.932 524.077C481.965 524.077 481.999 524.064 482.032 524.064H482.045C482.133 524.053 482.212 524.042 482.302 524.042C482.526 524.02 482.76 523.998 482.996 523.987C483.074 523.987 483.153 523.975 483.231 523.987C483.243 523.975 483.254 523.975 483.276 523.987C483.343 523.975 483.421 523.975 483.499 523.975C483.588 523.975 483.678 523.975 483.767 523.987C483.836 523.975 483.902 523.975 483.958 523.987C484.159 523.987 484.349 523.998 484.54 524.031C484.564 524.02 484.585 524.02 484.608 524.031C484.72 524.031 484.832 524.053 484.943 524.064H484.988C484.996 524.064 485.003 524.068 485.011 524.077H485.078C485.359 524.11 485.627 524.155 485.895 524.211C485.929 524.222 485.952 524.222 485.974 524.222C486.299 524.29 486.634 524.379 486.948 524.469C487.274 524.558 487.586 524.67 487.9 524.794C488.011 524.839 488.124 524.883 488.234 524.928C488.437 525.007 488.627 525.084 488.818 525.174C488.829 525.197 488.841 525.197 488.862 525.207C489.086 525.32 489.321 525.444 489.544 525.577C489.657 525.634 489.768 525.701 489.869 525.767C490.104 525.902 490.339 526.059 490.564 526.227C490.843 526.417 491.111 526.631 491.369 526.855C491.626 527.068 491.884 527.302 492.131 527.55L527.63 563.074L524.506 566.2L499.777 590.947L495.59 595.136C495.646 595.136 495.702 595.125 495.758 595.103C496.217 595.036 496.687 594.957 497.147 594.868C497.36 594.846 497.561 594.8 497.774 594.756C497.987 594.711 498.188 594.667 498.401 594.621C498.513 594.61 498.613 594.588 498.715 594.566C498.859 594.544 499.005 594.521 499.151 594.476C499.823 594.342 500.495 594.196 501.166 594.017C501.615 593.916 502.062 593.792 502.51 593.67C502.97 593.558 503.428 593.423 503.898 593.288C504.224 593.199 504.538 593.098 504.861 592.998C504.885 592.998 504.906 592.986 504.94 592.975C505.265 592.874 505.589 592.773 505.925 592.661C507.044 592.303 508.164 591.91 509.294 591.473C509.72 591.305 510.156 591.138 510.582 590.969C511.266 590.7 511.947 590.41 512.642 590.096C513.09 589.906 513.526 589.703 513.975 589.49C514.4 589.3 514.825 589.098 515.25 588.886C515.564 588.741 515.866 588.583 516.18 588.427C516.864 588.091 517.545 587.732 518.229 587.363C518.486 587.217 518.732 587.082 518.99 586.937C519.247 586.803 519.505 586.657 519.763 586.501C520.277 586.21 520.781 585.918 521.296 585.615C521.352 585.582 521.408 585.548 521.464 585.504L536.096 570.85L543.865 563.075L500.25 519.429L500.248 519.423Z" fill="#E3AA24"/>
<path d="M966.858 596.596C966.858 596.808 966.846 597.021 966.836 597.235C966.5 601.862 962.47 605.334 957.847 604.986L551.712 574.862L536.923 573.765C536.274 574.358 535.636 574.941 534.986 575.513C533.598 576.745 532.21 577.91 530.822 578.997C530.34 579.378 529.871 579.747 529.388 580.106C528.067 581.125 526.747 582.067 525.425 582.962C524.933 583.309 524.43 583.635 523.925 583.959C523.108 584.497 522.279 585.013 521.461 585.494C521.406 585.538 521.35 585.571 521.293 585.605C520.779 585.908 520.275 586.199 519.76 586.492C519.502 586.649 519.245 586.793 518.988 586.928C518.73 587.074 518.484 587.209 518.226 587.355C517.543 587.725 516.861 588.083 516.177 588.419C515.863 588.576 515.562 588.733 515.248 588.878C514.822 589.091 514.398 589.292 513.972 589.483C513.524 589.695 513.087 589.898 512.64 590.088C511.946 590.402 511.263 590.692 510.579 590.962C510.154 591.13 509.718 591.297 509.291 591.466C508.161 591.902 507.042 592.295 505.922 592.653C505.587 592.765 505.262 592.866 504.937 592.967C504.904 592.979 504.881 592.99 504.858 592.99C504.533 593.09 504.22 593.191 503.895 593.28C503.425 593.415 502.966 593.55 502.507 593.662C502.059 593.784 501.612 593.908 501.163 594.009C500.492 594.189 499.819 594.335 499.148 594.468C499.002 594.513 498.857 594.536 498.712 594.558C498.611 594.58 498.511 594.602 498.398 594.614C498.185 594.659 497.984 594.703 497.771 594.748C497.559 594.792 497.357 594.838 497.144 594.86C496.685 594.949 496.215 595.029 495.755 595.095C495.699 595.118 495.644 595.128 495.588 595.128C494.747 595.262 493.908 595.375 493.069 595.464C492.676 595.509 492.284 595.554 491.892 595.588C491.434 595.632 490.975 595.678 490.527 595.712C488.143 595.89 485.792 595.924 483.508 595.834C480.294 595.958 476.981 595.847 473.601 595.432C472.928 595.354 472.28 595.263 471.62 595.163C471.551 595.151 471.474 595.14 471.406 595.129C471.216 595.106 471.027 595.073 470.836 595.029C470.633 595.006 470.42 594.972 470.219 594.928C470.018 594.905 469.816 594.86 469.615 594.815C469.526 594.804 469.435 594.782 469.346 594.771C469.201 594.737 469.055 594.715 468.909 594.682C468.696 594.648 468.483 594.602 468.282 594.558C468.126 594.535 467.98 594.502 467.834 594.457C467.689 594.434 467.554 594.401 467.409 594.378C466.121 594.097 464.822 593.773 463.524 593.392C463.042 593.257 462.55 593.123 462.068 592.966C462.057 592.966 462.045 592.966 462.035 592.955C461.721 592.865 461.398 592.764 461.084 592.652C459.483 592.137 457.883 591.554 456.27 590.893C455.721 590.68 455.184 590.445 454.647 590.209C454.322 590.076 454.01 589.929 453.684 589.772C453.326 589.626 452.967 589.458 452.609 589.279C452.285 589.134 451.96 588.977 451.635 588.82C450.617 588.327 449.598 587.8 448.579 587.241C448.132 587.006 447.683 586.758 447.247 586.501C446.799 586.243 446.351 585.986 445.904 585.716C445.791 585.66 445.691 585.592 445.578 585.526C444.246 584.73 442.914 583.879 441.571 582.961C441.022 582.591 440.474 582.211 439.926 581.817C439.075 581.213 438.224 580.585 437.373 579.924C436.881 579.554 436.387 579.163 435.895 578.77C434.596 577.75 433.31 576.664 432.011 575.51C431.361 574.939 430.723 574.355 430.074 573.762L427.812 573.931L9.15396 604.986C8.94112 604.998 8.72827 605.009 8.51543 605.009C8.33674 605.009 8.16857 605.009 8.0004 604.986C7.86638 604.986 7.7315 604.975 7.59747 604.953C7.41791 604.942 7.23923 604.909 7.05967 604.875C6.93617 604.863 6.81354 604.83 6.70143 604.796C6.53325 604.763 6.36595 604.718 6.20916 604.672C6.02961 604.628 5.85092 604.572 5.68274 604.504C5.16772 604.325 4.68684 604.101 4.23837 603.821C4.00364 603.675 3.7794 603.53 3.55517 603.373C3.42116 603.272 3.29766 603.171 3.17415 603.059C3.08481 602.981 2.99547 602.902 2.91664 602.824C2.86058 602.791 2.79401 602.735 2.73796 602.668C2.56978 602.511 2.40248 602.332 2.2562 602.164C2.2343 602.152 2.22292 602.141 2.21153 602.118C2.20394 602.118 2.20394 602.115 2.21153 602.107C1.92073 601.782 1.65183 601.435 1.4276 601.054C1.36015 600.941 1.29359 600.841 1.22614 600.718C1.10351 600.505 0.991396 600.292 0.901177 600.057C0.833733 599.911 0.767163 599.766 0.711106 599.62C0.655048 599.474 0.59899 599.317 0.554318 599.16L0.542932 599.149C0.408043 598.758 0.3187 598.354 0.25213 597.94C0.207459 597.703 0.184686 597.457 0.162788 597.223C0.151402 597.009 0.140015 596.796 0.140015 596.584C0.140015 596.337 0.151402 596.102 0.1733 595.867C0.1733 595.81 0.1733 595.766 0.184686 595.71C0.207459 595.463 0.25213 595.228 0.296802 594.993C0.341473 594.769 0.386144 594.545 0.453589 594.332C0.532421 594.007 0.643661 593.704 0.767163 593.413C0.856505 593.2 0.945848 592.987 1.05797 592.786C1.17008 592.561 1.2927 592.338 1.43898 592.125C1.57299 591.889 1.74117 591.654 1.92073 591.441C2.05474 591.251 2.21153 591.071 2.36831 590.903C2.54701 590.712 2.72657 590.532 2.91664 590.365C3.10671 590.186 3.30904 590.029 3.50963 589.872C3.92393 589.571 4.37151 589.301 4.8305 589.067C5.30085 588.831 5.79311 588.64 6.30815 588.506C6.82318 588.372 7.36011 588.283 7.90929 588.237L427.813 557.071L429.234 556.97L432.37 556.735L436.031 556.467L438.706 558.919C438.774 558.975 438.896 559.098 439.075 559.245L439.143 559.177C439.345 559.379 439.558 559.58 439.759 559.771C439.893 559.894 440.016 560.028 440.151 560.151C440.486 560.432 440.879 560.745 441.326 561.104C442.12 561.731 443.094 562.47 444.225 563.276C444.808 563.703 445.434 564.14 446.106 564.587C449.767 567.074 454.625 569.976 460.368 572.44C460.883 572.676 461.42 572.9 461.958 573.113C463.032 573.551 464.13 573.964 465.25 574.356C465.954 574.603 466.671 574.838 467.399 575.074C470.657 576.105 474.093 576.944 477.699 577.46C478.493 577.583 479.31 577.684 480.118 577.761C480.935 577.84 481.752 577.907 482.59 577.964C483.005 577.997 483.42 578.008 483.834 578.031C485.692 577.93 487.584 577.728 489.487 577.426C492.655 576.934 495.868 576.182 499.126 575.163C499.664 574.995 500.2 574.816 500.727 574.636C502.317 574.099 503.85 573.517 505.328 572.911C506.124 572.586 506.895 572.25 507.657 571.903C508.407 571.567 509.158 571.22 509.884 570.872C510.601 570.514 511.318 570.167 512.001 569.809C512.695 569.439 513.366 569.081 514.027 568.721C514.352 568.541 514.676 568.363 514.99 568.183C515.627 567.825 516.244 567.455 516.836 567.108C517.363 566.794 517.867 566.491 518.359 566.178C519.837 565.27 521.158 564.374 522.333 563.545C522.659 563.31 522.971 563.085 523.285 562.872C524.202 562.223 524.997 561.629 525.669 561.103C526.139 560.722 526.554 560.398 526.9 560.106L527.235 559.771C527.437 559.569 527.65 559.378 527.851 559.177L527.919 559.245C528.031 559.144 528.121 559.065 528.188 559.009C528.255 558.942 528.278 558.92 528.289 558.92L530.964 556.467L534.636 556.736L537.771 556.97L551.709 558.002L566.419 559.099L959.085 588.238C959.366 588.261 959.634 588.294 959.902 588.338C960.015 588.351 960.126 588.373 960.238 588.406C960.35 588.429 960.451 588.451 960.563 588.484C960.642 588.495 960.731 588.518 960.809 588.552C961.01 588.608 961.2 588.675 961.391 588.742C961.649 588.831 961.907 588.944 962.164 589.067C962.332 589.145 962.5 589.236 962.668 589.336C962.724 589.37 962.791 589.404 962.848 589.449C963.049 589.572 963.25 589.706 963.452 589.851C963.475 589.863 963.496 589.885 963.519 589.908C963.608 589.975 963.698 590.041 963.788 590.121C964.079 590.356 964.359 590.614 964.617 590.893C964.673 590.962 964.728 591.017 964.785 591.085V591.096C964.793 591.103 964.796 591.111 964.796 591.119C964.83 591.141 964.841 591.163 964.852 591.174C964.897 591.219 964.93 591.264 964.964 591.309C964.998 591.331 965.021 591.364 965.043 591.397C965.076 591.443 965.121 591.487 965.143 591.532C965.2 591.6 965.256 591.677 965.3 591.745C965.334 591.79 965.368 591.823 965.39 591.868C965.446 591.936 965.479 592.003 965.524 592.07C965.558 592.104 965.58 592.148 965.592 592.182C965.636 592.238 965.67 592.306 965.714 592.372C965.726 592.395 965.738 592.417 965.749 592.441C965.804 592.519 965.849 592.609 965.882 592.698C965.983 592.888 966.072 593.079 966.163 593.269C966.196 593.337 966.23 593.415 966.252 593.483C966.296 593.583 966.342 593.684 966.364 593.796C966.409 593.885 966.431 593.964 966.453 594.054C966.577 594.412 966.666 594.771 966.723 595.152C966.756 595.32 966.79 595.487 966.801 595.667C966.834 595.97 966.857 596.284 966.857 596.597L966.858 596.596Z" fill="#81B64C"/>
<path opacity="0.2" d="M547.603 495.315C554.148 492.577 561.035 490.674 567.97 489.077C574.915 487.481 581.969 486.371 589.059 485.501C596.155 484.684 603.296 484.214 610.45 484.033C617.605 483.878 624.768 484.059 631.924 484.472C660.533 486.343 688.851 492.715 715.69 502.767L725.693 506.695L735.566 510.927L745.282 515.496L754.729 520.001C761.024 522.937 767.417 525.659 773.867 528.246C780.333 530.792 786.862 533.198 793.469 535.386C800.089 537.577 806.727 539.558 813.513 541.411C820.279 543.279 827.078 545.064 833.899 546.797C847.531 550.322 861.285 553.438 875.058 556.744C860.916 555.902 846.85 554.223 832.813 552.189C825.803 551.124 818.806 549.94 811.835 548.58C804.875 547.252 797.851 545.671 790.95 543.825C777.118 540.139 763.564 535.364 750.394 529.701C747.113 528.313 743.808 526.741 740.633 525.314L731.11 521.053L721.5 517.013L711.779 513.26C685.769 503.512 658.715 496.648 631.121 493.214C624.22 492.396 617.291 491.765 610.336 491.363C603.382 491.008 596.407 490.848 589.423 490.96C582.434 491.019 575.447 491.46 568.463 492.125C564.968 492.439 561.485 492.89 558.006 493.41C554.521 493.905 551.052 494.525 547.602 495.315H547.603Z" fill="black"/>
<path opacity="0.2" d="M412.702 510.009C409.203 509.374 405.714 508.87 402.207 508.515C398.707 508.128 395.211 507.817 391.714 507.595C384.724 507.145 377.748 506.945 370.791 507.023C363.835 507.077 356.901 507.403 349.998 507.888C343.093 508.431 336.222 509.175 329.384 510.093C302.043 513.919 275.306 520.905 249.502 530.578L239.853 534.287L230.307 538.279L220.833 542.462L215.964 544.66C214.319 545.407 212.658 546.117 210.993 546.82C197.679 552.434 183.972 557.121 169.984 560.629C166.491 561.521 162.977 562.325 159.449 563.053C155.918 563.795 152.394 564.478 148.887 565.066C141.866 566.301 134.817 567.33 127.762 568.234C113.639 569.971 99.473 571.176 85.2457 571.436C98.9326 567.549 112.588 563.961 126.133 560.138C132.908 558.244 139.656 556.304 146.371 554.311C149.734 553.292 153.067 552.314 156.357 551.257C159.662 550.218 162.93 549.075 166.204 547.968C169.468 546.83 172.718 545.655 175.94 544.409C179.172 543.2 182.382 541.928 185.575 540.624C191.944 537.974 198.27 535.236 204.489 532.268L213.86 527.734L223.623 523.088L233.562 518.807L243.637 514.834C270.683 504.707 299.317 498.457 328.179 496.978C331.79 496.836 335.395 496.693 339.007 496.715C342.614 496.663 346.223 496.764 349.825 496.892C357.03 497.205 364.212 497.841 371.337 498.824C378.458 499.832 385.522 501.183 392.461 502.995C399.389 504.793 406.242 506.996 412.701 510.007L412.702 510.009Z" fill="black"/>
<g opacity="0.15">
<path d="M795.043 293.871L789.497 284.47C776.594 292.774 763.904 299.874 751.237 306.062C753.156 309.066 755.074 312.073 756.962 315.098C757.092 315.042 757.222 314.985 757.352 314.928C770.099 308.236 782.588 301.089 795.043 293.871Z" fill="#204227"/>
<path d="M680.835 341.757C694.36 339.071 707.465 335.167 720.358 330.287C719.133 327.149 717.918 324.008 716.709 320.863C712.68 322.37 708.637 323.813 704.574 325.201C698.964 327.201 693.316 329.066 687.578 330.668C684.592 331.574 681.59 332.458 678.572 333.323C679.258 336.153 680.057 338.951 680.835 341.757Z" fill="#204227"/>
<path d="M796.895 394.514C794.933 390.162 792.989 385.803 791.072 381.432C790.948 381.472 790.823 381.51 790.697 381.55C805.998 375.896 821.204 370.008 836.267 363.746L829.116 351.624C814.592 357.595 800.006 363.405 785.415 369.212C783.609 365.321 781.817 361.424 780.016 357.531C779.85 357.588 779.684 357.645 779.519 357.704C793.842 352.027 808.026 346.032 822.042 339.637L815.449 328.46C801.908 334.622 788.245 340.494 774.489 346.156C772.697 342.567 770.906 338.978 769.091 335.4C768.898 335.472 768.705 335.542 768.512 335.613C782.126 329.855 795.603 323.803 808.931 317.41L802.931 307.241C789.918 313.424 776.764 319.291 763.534 324.991C761.638 321.562 759.724 318.143 757.775 314.745C757.633 314.807 757.493 314.867 757.352 314.929C757.227 314.995 757.104 315.062 756.98 315.126C756.973 315.117 756.968 315.108 756.962 315.098C744.599 320.519 732.076 325.552 719.565 330.619C720.86 333.805 722.162 336.986 723.471 340.167C710.474 344.384 697.3 347.804 683.877 350.364C683.127 347.468 682.398 344.565 681.645 341.668C667.424 343.951 653.409 347.011 639.578 351.039C640.315 353.671 641.032 356.31 641.732 358.952C628.825 362.379 615.84 365.345 602.661 367.516C602.287 364.943 601.937 362.368 601.618 359.787C588.224 361.476 575.383 365.05 562.734 369.683C562.368 367.297 561.997 364.911 561.605 362.528C561.367 362.596 561.134 362.672 560.898 362.743C546.57 367.73 534.316 374.366 524.214 382.604C524.873 384.299 525.489 386.01 526.074 387.732C526.252 387.631 526.431 387.533 526.609 387.433C519.074 392.199 512.065 397.318 505.546 403.227C501.409 409.589 498.84 415.456 497.279 419.943C507.101 411.17 517.182 402.831 527.577 394.748C527.522 397.253 527.339 399.742 527.172 402.241C527.391 402.132 527.61 402.026 527.829 401.916C515.625 409.441 505.375 419.339 495.069 429.215L495.042 438.933C495.203 440.389 495.425 441.849 495.72 443.331C504.287 430.26 515.55 420.263 528.032 411.079C528.359 414.082 528.666 417.088 528.939 420.098C528.954 420.089 528.968 420.081 528.983 420.072C516.132 428.543 504.261 437.591 495.011 450.022L494.977 461.823C506.964 450.968 519.448 440.706 531.835 430.313C531.061 426.758 530.382 423.192 529.806 419.6C541.896 412.53 554.543 406.734 567.591 401.671C568.134 404.747 568.659 407.827 569.178 410.907C569.21 410.898 569.242 410.888 569.275 410.878C555.454 415.714 542.707 421.937 531.083 430.956C531.85 434.849 532.671 438.729 533.478 442.613C545.233 433.522 557.572 426.02 571.495 420.744C571.029 417.377 570.538 414.012 570.012 410.653C582.75 406.752 595.511 402.924 608.272 399.1C608.98 402.161 609.723 405.211 610.524 408.249C610.551 408.244 610.578 408.239 610.605 408.233C597.295 412.514 584.014 416.882 570.688 421.111C571.039 425.35 571.403 429.589 571.723 433.83C586.13 426.404 600.067 421.718 614.557 418.619C613.458 415.117 612.376 411.614 611.365 408.085C625.066 405.392 638.933 404.474 652.847 403.558C652.228 400.101 651.611 396.644 650.965 393.194C650.785 393.205 650.605 393.221 650.426 393.233C665.212 391.744 679.964 390.065 694.834 389.796C695.685 393.411 696.498 397.033 697.273 400.665C682.033 400.093 667.008 401.027 651.977 403.718C652.381 406.963 652.866 410.194 653.402 413.418C663.088 412.669 673.281 412.128 684.215 411.551C689.371 411.278 694.628 410.999 700.066 410.689C699.483 407.356 698.879 404.027 698.265 400.7C698.007 400.69 697.748 400.683 697.489 400.673C713.577 400.758 729.312 398.44 744.943 394.728C743.455 390.862 741.993 386.985 740.549 383.103C740.489 383.117 740.427 383.131 740.367 383.145C755.431 379.038 770.31 374.354 785.095 369.338C784.902 369.415 784.709 369.492 784.516 369.568C786.388 373.62 788.256 377.673 790.104 381.735C774.835 386.55 759.499 391.115 743.964 395.005C745.369 398.529 746.77 402.055 748.145 405.591C762.556 403.079 777.191 399.779 790.916 396.288C792.913 395.709 794.906 395.117 796.896 394.511L796.895 394.514ZM774.235 346.262C774.032 346.344 773.831 346.431 773.629 346.513C775.462 350.287 777.29 354.063 779.106 357.846C764.959 362.773 750.709 367.366 736.322 371.546C734.977 367.805 733.626 364.068 732.266 360.333C732.133 360.367 732 360.399 731.866 360.433C746.138 356.149 760.24 351.375 774.235 346.262ZM763.266 325.109C763.082 325.187 762.899 325.267 762.715 325.347C764.562 328.798 766.403 332.253 768.227 335.719C755.003 340.651 741.697 345.34 728.286 349.738C726.976 346.455 725.652 343.179 724.311 339.907C737.321 335.043 750.338 330.192 763.266 325.109ZM526.739 387.361C538.162 380.911 549.79 374.913 561.964 370.005C562.338 372.492 562.722 374.978 563.127 377.462C563.275 377.417 563.423 377.374 563.572 377.33C551.242 382.078 539.441 387.808 528.004 394.416C528.086 394.353 528.167 394.288 528.248 394.225C527.807 391.923 527.303 389.636 526.739 387.361ZM528.599 410.66C528.673 410.608 528.743 410.554 528.816 410.501C528.503 407.616 528.23 404.731 527.988 401.839C539.998 395.893 552.066 390.141 564.481 385.085C565.011 387.805 565.525 390.529 566.018 393.256C566.182 393.21 566.344 393.167 566.506 393.119C553.468 398.104 540.892 404.058 528.599 410.66ZM567.715 401.623C567.94 401.537 568.163 401.446 568.388 401.359C567.851 398.585 567.334 395.809 566.819 393.032C579.385 389.439 592.025 386.13 604.726 383.046C605.282 385.711 605.848 388.372 606.418 391.032C606.47 391.019 606.523 391.007 606.576 390.993C593.585 394.401 580.614 397.88 567.715 401.623ZM608.793 398.946C608.886 398.917 608.981 398.89 609.073 398.862C608.451 396.188 607.842 393.513 607.238 390.835C620.671 387.496 634.217 385.176 648.016 384.051C648.708 387.119 649.387 390.19 650.06 393.262C636.159 394.209 622.418 396.001 608.792 398.947L608.793 398.946ZM695.751 389.698C694.795 386.236 693.81 382.782 692.807 379.334C678.153 380.675 663.542 382.425 648.906 383.945C648.186 381.035 647.467 378.123 646.747 375.213C632.925 377.278 619.222 379.95 605.551 382.839C605.04 380.314 604.54 377.786 604.048 375.258C590.855 377.934 577.811 381.189 564.879 384.923C565.008 384.871 565.137 384.816 565.268 384.763C564.809 382.253 564.363 379.741 563.916 377.229C576.42 373.494 589.004 370.134 601.835 367.726C602.285 370.288 602.742 372.85 603.212 375.408C617.065 372.705 630.874 369.786 644.678 366.849C643.995 364.157 643.301 361.466 642.595 358.779C655.951 355.406 669.46 352.837 683.039 350.548C683.91 353.566 684.796 356.582 685.696 359.592C699.995 357.059 714.098 353.759 728.072 349.811C727.861 349.88 727.653 349.952 727.444 350.021C728.764 353.528 730.072 357.042 731.373 360.557C717.575 364.048 703.679 366.971 689.61 369.12C688.588 365.906 687.583 362.687 686.586 359.466C672.285 361.738 658.014 364.162 643.821 367.039C644.515 369.804 645.201 372.568 645.877 375.336C660.152 373.281 674.425 371.196 688.722 369.287C689.767 372.654 690.825 376.019 691.887 379.382C706.782 377.837 721.442 375.154 735.994 371.645C735.799 371.701 735.605 371.76 735.41 371.816C736.796 375.656 738.188 379.496 739.589 383.33C725.135 386.704 710.598 389.113 695.751 389.701V389.698Z" fill="#204227"/>
<path d="M600.214 352.637C600.393 355.05 600.577 357.464 600.781 359.875C614.202 357.731 627.34 354.531 640.4 350.796C639.689 348.457 638.957 346.126 638.216 343.796C627.832 346.286 617.175 348.736 606.167 351.268C604.199 351.721 602.21 352.177 600.214 352.637Z" fill="#204227"/>
<path d="M537.519 454.242C536.405 450.202 535.34 446.149 534.302 442.089C521.407 452.088 508.288 461.777 494.951 471.177L494.909 486.765C496.188 485.851 497.456 484.923 498.717 483.984C509.21 474.932 522.352 464.48 537.519 454.242Z" fill="#204227"/>
</g>
<g opacity="0.15">
<path d="M458.703 399.99C454.081 393.572 448.588 387.773 442.25 382.604C441.59 384.299 440.975 386.01 440.389 387.733C440.212 387.631 440.033 387.534 439.855 387.434C447.389 392.199 454.398 397.319 460.917 403.228C460.223 402.16 459.489 401.081 458.703 399.99Z" fill="#204227"/>
<path d="M437.646 410.5C437.958 407.616 438.232 404.73 438.474 401.839C426.463 395.893 414.396 390.141 401.981 385.085C401.451 387.805 400.937 390.529 400.443 393.256C400.282 393.21 400.118 393.166 399.956 393.119C412.994 398.104 425.57 404.058 437.863 410.66C437.79 410.608 437.719 410.554 437.646 410.5Z" fill="#204227"/>
<path d="M238.177 349.738C239.487 346.455 240.811 343.179 242.152 339.907C229.141 335.043 216.125 330.192 203.198 325.108C203.382 325.187 203.564 325.267 203.747 325.346C201.901 328.798 200.06 332.253 198.236 335.718C211.46 340.651 224.766 345.34 238.177 349.738Z" fill="#204227"/>
<path d="M439.291 402.242C439.072 402.133 438.852 402.026 438.633 401.917C450.837 409.442 461.087 419.34 471.394 429.215L471.39 428.076C471.19 426.932 470.596 424.002 469.183 419.944C459.361 411.17 449.28 402.832 438.884 394.749C438.941 397.254 439.124 399.743 439.291 402.242Z" fill="#204227"/>
<path d="M230.141 371.546C231.485 367.805 232.837 364.067 234.197 360.332C234.33 360.366 234.463 360.399 234.596 360.433C220.325 356.148 206.223 351.375 192.228 346.262C192.43 346.345 192.632 346.431 192.834 346.513C191.002 350.287 189.173 354.063 187.356 357.846C201.504 362.773 215.754 367.366 230.141 371.546Z" fill="#204227"/>
<path d="M361.736 383.047C361.181 385.711 360.615 388.373 360.045 391.032C359.991 391.019 359.938 391.008 359.887 390.994C372.877 394.402 385.848 397.88 398.747 401.623C398.522 401.537 398.299 401.445 398.074 401.359C398.61 398.586 399.128 395.809 399.643 393.032C387.077 389.438 374.437 386.13 361.736 383.046V383.047Z" fill="#204227"/>
<path d="M318.447 384.05C317.754 387.118 317.075 390.189 316.402 393.261C330.303 394.208 344.043 396 357.669 398.946C357.576 398.917 357.482 398.889 357.39 398.862C358.011 396.188 358.621 393.512 359.224 390.834C345.792 387.495 332.246 385.176 318.448 384.051L318.447 384.05Z" fill="#204227"/>
<path d="M438.43 411.081C438.104 414.084 437.798 417.09 437.523 420.099C437.509 420.09 437.494 420.083 437.48 420.074C450.33 428.545 462.201 437.593 471.453 450.024L471.437 444.437C470.564 443.125 469.496 441.533 468.425 439.976C460.189 428.525 449.821 419.459 438.431 411.08L438.43 411.081Z" fill="#204227"/>
<path d="M401.195 384.761C401.654 382.251 402.099 379.739 402.546 377.227C390.043 373.492 377.459 370.132 364.628 367.724C364.178 370.287 363.722 372.848 363.251 375.406C349.398 372.703 335.589 369.784 321.784 366.847C322.468 364.155 323.162 361.464 323.868 358.777C310.512 355.405 297.004 352.836 283.424 350.547C282.552 353.565 281.667 356.58 280.766 359.59C266.467 357.057 252.365 353.757 238.392 349.81C238.601 349.879 238.81 349.95 239.019 350.019C237.699 353.526 236.391 357.04 235.091 360.555C248.888 364.046 262.783 366.969 276.853 369.118C277.874 365.904 278.879 362.685 279.877 359.464C294.178 361.736 308.448 364.16 322.641 367.037C321.949 369.802 321.262 372.566 320.587 375.334C306.31 373.279 292.037 371.195 277.741 369.285C276.696 372.652 275.637 376.017 274.576 379.38C259.682 377.835 245.021 375.152 230.469 371.643C230.665 371.699 230.858 371.758 231.054 371.814C229.666 375.654 228.275 379.493 226.873 383.328C241.328 386.702 255.865 389.111 270.712 389.699C271.668 386.237 272.653 382.783 273.656 379.335C288.31 380.675 302.92 382.425 317.557 383.945C318.278 381.035 318.995 378.124 319.716 375.214C333.539 377.278 347.241 379.951 360.911 382.84C361.422 380.314 361.923 377.787 362.415 375.259C375.607 377.934 388.653 381.19 401.584 384.924C401.455 384.871 401.326 384.817 401.195 384.763V384.761Z" fill="#204227"/>
<path d="M242.991 340.168C255.991 344.385 269.162 347.805 282.585 350.365C283.336 347.468 284.065 344.565 284.818 341.668C299.038 343.952 313.055 347.011 326.885 351.04C326.147 353.672 325.432 356.311 324.731 358.953C337.638 362.38 350.622 365.346 363.802 367.517C364.176 364.944 364.525 362.369 364.845 359.788C378.24 361.477 391.079 365.051 403.73 369.684C404.095 367.297 404.466 364.912 404.858 362.529C405.096 362.597 405.328 362.673 405.564 362.744C400.215 360.882 394.578 359.25 388.655 357.851C381.028 356.048 373.55 354.319 366.249 352.638C366.069 355.051 365.885 357.464 365.681 359.877C352.259 357.732 339.122 354.532 326.062 350.797C326.774 348.459 327.505 346.126 328.246 343.797C314.361 340.469 300.967 337.073 287.89 333.324C287.203 336.154 286.405 338.952 285.627 341.758C272.102 339.071 258.997 335.167 246.104 330.288C247.329 327.15 248.544 324.009 249.753 320.864C238.174 316.534 226.71 311.674 215.226 306.062C213.307 309.068 211.389 312.074 209.501 315.099C221.864 320.52 234.387 325.553 246.899 330.62C245.603 333.805 244.3 336.987 242.991 340.168Z" fill="#204227"/>
<path d="M120.477 380.218C131.93 383.974 149.505 389.459 169.465 394.714C171.427 390.363 173.473 385.802 175.39 381.431C175.515 381.471 175.639 381.509 175.765 381.549C160.464 375.895 145.258 370.007 130.195 363.745L120.477 380.218Z" fill="#204227"/>
<path d="M403.336 377.461C403.188 377.415 403.039 377.373 402.891 377.329C415.22 382.077 427.022 387.807 438.459 394.415C438.378 394.352 438.296 394.287 438.215 394.224C438.656 391.922 439.161 389.634 439.724 387.36C428.301 380.911 416.672 374.913 404.499 370.005C404.127 372.492 403.742 374.978 403.336 377.462V377.461Z" fill="#204227"/>
<path d="M186.447 357.531C186.613 357.588 186.779 357.645 186.945 357.703C172.621 352.027 158.437 346.032 144.42 339.637L137.346 351.624C151.869 357.595 166.457 363.405 181.047 369.212C182.853 365.32 184.645 361.422 186.446 357.531H186.447Z" fill="#204227"/>
<path d="M315.497 393.195C315.678 393.206 315.858 393.222 316.037 393.234C301.251 391.746 286.499 390.067 271.628 389.797C270.777 393.412 269.965 397.034 269.19 400.667C284.431 400.094 299.455 401.028 314.486 403.72C314.081 406.964 313.596 410.195 313.061 413.42C326.835 414.486 339.574 415.982 351.906 418.619C353.004 415.119 354.086 411.614 355.096 408.086C341.395 405.393 327.53 404.475 313.616 403.558C314.234 400.101 314.85 396.646 315.497 393.195Z" fill="#204227"/>
<path d="M225.913 383.105C225.974 383.119 226.035 383.133 226.096 383.147C211.032 379.039 196.152 374.356 181.368 369.34C181.561 369.416 181.754 369.493 181.947 369.57C180.075 373.621 178.207 377.675 176.358 381.737C191.628 386.552 206.964 391.117 222.499 395.007C221.093 398.531 219.693 402.057 218.318 405.593C229.748 407.584 241.037 409.083 251.616 409.786C256.732 410.126 261.634 410.421 266.396 410.693C266.979 407.36 267.584 404.03 268.197 400.703C268.456 400.693 268.714 400.686 268.974 400.676C252.887 400.761 237.15 398.443 221.52 394.732C223.008 390.865 224.471 386.989 225.913 383.107V383.105Z" fill="#204227"/>
<path d="M209.501 315.099C209.372 315.041 209.241 314.986 209.111 314.929C209.236 314.994 209.359 315.062 209.484 315.126C209.49 315.117 209.495 315.109 209.501 315.099Z" fill="#204227"/>
<path d="M197.373 335.4C197.565 335.472 197.759 335.541 197.952 335.613C184.337 329.855 170.86 323.803 157.533 317.41L151.014 328.459C164.555 334.62 178.218 340.493 191.974 346.155C193.765 342.566 195.557 338.977 197.373 335.399V335.4Z" fill="#204227"/>
<path d="M434.627 430.315C435.402 426.76 436.08 423.194 436.656 419.601C424.567 412.532 411.92 406.735 398.871 401.673C398.33 404.749 397.804 407.829 397.285 410.909C397.253 410.899 397.22 410.89 397.188 410.879C411.009 415.716 423.756 421.939 435.379 430.958C434.613 434.851 433.791 438.731 432.985 442.615C421.23 433.524 408.891 426.022 394.967 420.746C395.435 417.379 395.925 414.013 396.451 410.654C383.712 406.754 370.952 402.925 358.191 399.102C357.483 402.163 356.741 405.213 355.939 408.251C355.911 408.246 355.884 408.24 355.857 408.235C369.167 412.516 382.45 416.884 395.775 421.113C395.424 425.352 395.061 429.59 394.74 433.832C395.061 433.998 395.379 434.154 395.7 434.322C407.571 440.535 418.717 447.339 428.943 454.242C430.058 450.202 431.122 446.15 432.161 442.089C445.054 452.088 458.174 461.777 471.51 471.177L471.484 461.826C459.497 450.97 447.014 440.708 434.627 430.316V430.315Z" fill="#204227"/>
<path d="M208.688 314.745C208.829 314.807 208.969 314.868 209.111 314.929C196.364 308.237 183.876 301.089 171.42 293.871L163.532 307.242C176.545 313.425 189.698 319.292 202.928 324.992C204.823 321.563 206.737 318.144 208.688 314.746V314.745Z" fill="#204227"/>
</g>
<path d="M447.887 206.588C441.397 203.525 438.692 196.356 428.298 199.825C420.288 202.505 410.717 197.626 405.31 194.801L399.806 191.57C398.901 193.947 396.652 201.295 400.756 207.237C404.55 212.704 410.881 215.437 416.925 217.649C426.646 221.243 443.623 227.39 450.031 241.537L454.078 251.741L381.655 276.348C379.531 270.087 376.953 266.365 376.953 266.365C373.53 260.526 359.08 241.816 355.183 230.329C340.507 187.073 363.238 158.155 388.73 147.531L397.544 129.676C399.435 129.033 402.063 130.377 403.338 132.41L407.321 139.167C410.135 142.412 413.547 144.096 418.586 146.02C423.625 147.944 425.679 150.675 427.317 152.606C433.115 159.477 434.783 163.592 442.842 169.614L460.688 182.508C465.101 185.295 466.476 190.701 464.096 194.643C460.947 199.894 449.33 207.331 447.857 206.619L447.888 206.587L447.887 206.588Z" fill="#E7E6E5"/>
<path d="M388.07 267.669L446.296 247.888C475.344 238.019 481.786 257.442 481.786 257.442L485.073 267.131L369.014 306.562L365.727 296.872C365.727 296.872 359.021 277.538 388.07 267.669Z" fill="#E7E6E5"/>
<path d="M379.594 271.299C378.161 268.226 376.953 266.365 376.953 266.365C375.998 264.735 374.184 262.103 371.98 258.905C366.287 250.646 357.991 238.609 355.183 230.329C340.71 187.672 362.615 158.959 387.67 147.983C380.153 152.301 349.003 172.826 361.731 210.343C367.691 227.907 378.681 236.83 388.932 245.152C395.228 250.262 401.246 255.148 405.651 261.671C400.581 262.896 379.594 271.299 379.594 271.299Z" fill="#BEBDB9"/>
<path d="M388.819 147.345C389.105 147.194 389.259 147.119 389.259 147.119C389.129 147.158 389 147.2 388.872 147.241L388.819 147.345Z" fill="#BEBDB9"/>
<path d="M460.694 182.462L442.847 169.566C434.788 163.546 433.122 159.431 427.322 152.56C425.704 150.622 423.65 147.891 418.591 145.974C413.552 144.05 410.14 142.366 407.327 139.121L403.344 132.364C402.391 130.848 400.689 129.713 399.113 129.495C398.794 129.541 398.486 129.562 398.17 129.67C398.17 129.67 397.078 144.923 407.123 147.258C426.425 151.759 427.642 164.889 434.36 169.483C437.68 171.762 460.591 186.218 465.028 189.015C464.625 186.477 463.23 184.025 460.707 182.437L460.694 182.462Z" fill="#F1F1F1"/>
<path d="M425.317 200.459C426.323 200.347 427.316 200.135 428.291 199.804C438.684 196.335 441.389 203.505 447.879 206.567C448.225 206.722 449.129 206.435 450.314 205.865C448.717 204.485 444.784 202.309 440.423 196.539C433.315 187.165 432.623 192.938 425.322 200.478L425.315 200.459H425.317Z" fill="#BEBDB9"/>
<path d="M389.858 182.868C386.765 179.906 388.679 186.78 389.692 189.948C390.633 192.846 395.202 200.281 400.41 206.58C396.869 200.761 398.933 193.852 399.808 191.569L400.273 191.83C400.152 191.662 400.07 191.542 400.07 191.542C400.07 191.542 392.952 185.83 389.858 182.868Z" fill="#BEBDB9"/>
<path d="M476.19 249.938C471.158 245.815 462.082 242.524 446.295 247.888L388.048 267.676C372.729 272.88 367.399 280.689 365.739 286.939C369.02 284.299 380.434 277.306 418.921 264.231C462.802 249.323 473.943 249.594 476.189 249.938H476.19Z" fill="#F1F1F1"/>
<path d="M260.745 240.339L258.777 229.054L270.054 227.085L272.023 238.37L260.745 240.339Z" fill="white"/>
<path d="M182.385 102.434L184.694 95.2544L191.868 97.5649L189.559 104.744L182.385 102.434Z" fill="white"/>
<path d="M370.316 89.4132L375.067 75.7955L388.676 80.5502L383.923 94.1681L370.316 89.4132Z" fill="#B2E068"/>
<path d="M617.7 113.983L629.194 109.17L634.003 120.673L622.509 125.486L617.7 113.983Z" fill="white"/>
<path d="M756.041 191.986L765.499 192.642L764.844 202.106L755.386 201.45L756.041 191.986Z" fill="#B2E068"/>
<path d="M589.069 44.0624L604.053 34.8353L613.272 49.8326L598.287 59.0571L589.069 44.0624Z" fill="#B2E068"/>
<path fill-rule="evenodd" clip-rule="evenodd" d="M567.377 41.2149L567.387 41.202L567.368 41.1985C567.371 41.2039 567.374 41.2093 567.377 41.2149ZM554.436 134.737C560.469 129.377 573.658 114.691 577.52 92.7729C581.528 70.0251 573.391 51.8645 567.377 41.2149L557.936 52.8246C553.412 58.763 548.924 65.2982 545.695 72.3197C542.328 78.7275 537.38 93.7697 537.38 93.7697L525.846 91.8163C528.884 81.5038 533.011 70.0818 539.378 59.6857L559.877 31.3083C561.93 28.6947 563.569 25.2447 564.15 21.947C565.809 12.5316 559.363 3.51779 549.816 1.83321C540.27 0.148627 531.132 6.41287 529.473 15.8283C528.701 20.2103 529.462 26.5114 529.462 26.5114C529.462 26.5114 499.654 44.4741 493.765 77.8916C489.882 99.9268 497.372 118.351 501.19 125.342L498.189 124.812C468.66 119.601 465.276 139.5 465.276 139.5L463.527 149.428L581.522 170.248L583.272 160.32C583.272 160.32 586.912 140.468 557.364 135.253L554.436 134.737Z" fill="#E7E6E5"/>
<path d="M550.838 2.04389C550.501 1.96433 550.161 1.89392 549.816 1.83306C540.27 0.148579 531.132 6.41272 529.473 15.8281C529.165 17.5753 529.101 19.6275 529.135 21.4638C532.932 10.0742 543.84 2.84258 550.838 2.04389Z" fill="#F1F1F1"/>
<path d="M529.462 26.5114C529.462 26.5114 499.654 44.474 493.765 77.8916C492.443 85.3926 492.513 92.3856 493.223 98.7389C496.586 79.4276 505.747 52.0214 532.642 28.314C532.642 28.314 531.253 27.5398 529.462 26.5114Z" fill="#F1F1F1"/>
<path d="M469.584 131.325C473.84 126.56 482.132 121.979 498.169 124.809L557.364 135.253C572.927 137.999 579.235 144.791 581.765 150.631C578.206 148.558 566.144 143.478 527.03 136.577C482.431 128.708 471.695 130.659 469.581 131.345L469.584 131.325Z" fill="#F1F1F1"/>
<path d="M572.702 52.0745C577.041 62.5812 580.387 76.5037 577.52 92.7729C573.658 114.691 560.469 129.377 554.436 134.737L523.25 129.234C532.169 126.823 582.594 110.51 572.702 52.0745Z" fill="#BEBDB9"/>
<path d="M525.846 91.8163C520.404 72.2685 533.647 55.4347 545.381 40.5197C554.782 28.5693 563.214 17.8507 560.29 7.9554C560.301 7.93066 560.313 7.90601 560.325 7.88147C563.51 11.6694 565.066 16.747 564.15 21.9472C563.899 23.3683 563.445 24.6722 562.884 25.8961C562.172 27.7447 561.266 29.5387 559.877 31.3084L559.857 31.3049L539.378 59.6858C533.011 70.0819 528.884 81.5038 525.846 91.8163Z" fill="#BEBDB9"/>
<path d="M712.969 298.913L773.007 315.011L773.381 313.616C778.985 292.685 757.498 293.072 761.84 270.473L769.793 272.606C771.421 270.881 772.178 268.676 772.78 266.427L765.761 259.061C770.377 257.058 773.606 252.772 774.768 248.432C776.968 240.214 772.074 231.756 763.784 229.45C755.376 227.279 746.911 232.154 744.711 240.372C743.548 244.713 744.203 250.04 747.2 254.084L737.441 256.952C736.839 259.2 736.393 261.489 736.939 263.797L744.894 265.929C737.363 287.673 718.947 276.587 713.342 297.518L712.969 298.913Z" fill="#4B4847"/>
<path d="M665.935 340.817C663.225 336.547 664.317 331.26 656.823 329.403C651.046 327.977 647.187 321.463 645.032 317.742L642.975 313.745C641.539 314.818 637.434 318.343 637.639 323.428C637.838 328.112 640.576 332.128 643.342 335.724C647.773 341.53 655.563 351.59 654.049 362.427L652.614 370.028L600.243 357.359C601.335 352.832 601.204 349.644 601.204 349.644C601.365 344.877 599.81 328.292 601.817 319.984C609.374 288.705 633.794 280.067 652.967 283.357L664.938 276.054C666.306 276.385 667.365 278.176 667.358 279.866L667.185 285.391C667.637 288.383 669.033 290.673 671.308 293.718C673.583 296.764 673.777 299.164 674.023 300.931C674.887 307.208 674.329 310.287 676.858 316.908L682.624 331.314C684.201 334.635 682.984 338.372 680.082 339.822C676.23 341.759 666.514 341.804 665.905 340.826L665.936 340.819L665.935 340.817Z" fill="#4B4847"/>
<path d="M607.327 354.612L649.433 364.797C670.44 369.879 666.959 383.87 666.959 383.87L665.266 390.876L581.339 370.574L583.031 363.567C583.031 363.567 586.323 349.531 607.327 354.612Z" fill="#4B4847"/>
<path opacity="0.5" fill-rule="evenodd" clip-rule="evenodd" d="M653.092 283.279C653.317 283.296 653.437 283.309 653.437 283.309C653.346 283.284 653.252 283.261 653.161 283.237L653.092 283.279ZM600.917 353.575C601.221 351.207 601.204 349.642 601.204 349.642C601.248 348.313 601.159 346.062 601.054 343.327C600.775 336.265 600.371 325.972 601.818 319.982C609.269 289.135 633.122 280.308 652.169 283.224C646.068 282.958 619.798 283.427 613.244 310.557C610.175 323.259 613.355 332.714 616.323 341.533C618.145 346.95 619.887 352.127 620.051 357.67C616.573 356.488 600.918 353.573 600.918 353.573L600.917 353.575ZM654.811 328.656L654.829 328.665L654.808 328.67L654.812 328.657L654.811 328.656ZM654.829 328.665C656.362 328.294 657.686 327.858 658.827 327.48C663.016 326.1 664.729 325.535 665.278 332.021C665.606 335.98 666.605 338.543 667.232 340.154C667.41 340.609 667.558 340.988 667.652 341.302C666.732 341.195 666.085 341.024 665.938 340.803C665.129 339.528 664.66 338.165 664.198 336.828C663.115 333.682 662.084 330.69 656.826 329.389C656.129 329.22 655.462 328.973 654.827 328.665H654.829ZM637.564 308.964C638.155 306.696 639.604 301.883 640.33 304.813C641.056 307.744 643.14 313.827 643.14 313.827C643.14 313.827 643.146 313.929 643.153 314.075L642.975 313.744C641.593 314.773 637.764 318.106 637.679 322.907C636.952 317.193 637.033 311.044 637.564 308.965V308.964Z" fill="#312E2B"/>
<path fill-rule="evenodd" clip-rule="evenodd" d="M717.59 125.883L717.599 125.878L717.588 125.872C717.589 125.875 717.59 125.879 717.59 125.883ZM691.27 175.661C695.745 173.889 706.132 168.35 712.766 156.853C719.649 144.921 718.791 133.08 717.59 125.883L709.932 130.463C706.185 132.868 702.339 135.615 699.096 138.891C695.903 141.795 690.063 149.217 690.063 149.217L683.997 145.767C687.801 140.606 692.443 135.048 698.132 130.52L715.406 118.799C717.09 117.753 718.712 116.154 719.71 114.424C722.559 109.486 720.784 103.118 715.776 100.224C710.769 97.3306 704.37 98.9763 701.52 103.915C700.195 106.214 699.336 109.901 699.336 109.901C699.336 109.901 678.967 113.884 668.853 131.413C662.185 142.971 662.626 154.827 663.342 159.525L661.767 158.615C646.278 149.667 640.325 160.129 640.325 160.129L637.32 165.336L699.213 201.096L702.218 195.888C702.218 195.888 708.306 185.504 692.807 176.549L691.27 175.661Z" fill="#4B4847"/>
<path opacity="0.2" d="M755.486 319.889C765.04 319.889 772.785 318.26 772.785 316.251C772.785 314.241 765.04 312.612 755.486 312.612C745.933 312.612 738.188 314.241 738.188 316.251C738.188 318.26 745.933 319.889 755.486 319.889Z" fill="black"/>
<path fill-rule="evenodd" clip-rule="evenodd" d="M258.209 352.638C246.807 356.311 247.891 362.41 249.129 369.382C249.209 369.825 249.287 370.272 249.364 370.721L249.775 373.126L323.994 360.426L323.583 358.021C323.507 357.571 323.432 357.123 323.36 356.68C322.215 349.701 321.227 343.673 309.228 343.906C309.211 343.906 309.193 343.906 309.173 343.907L296.367 300.993C301.739 297.813 303.623 294.37 303.22 289.489L302.11 274.183C300.523 273.701 298.325 273.431 296.251 273.247C293.635 273.05 292.119 272.987 290.204 273.099L288.309 286.552L283.711 287.34L278.946 273.304C276.262 273.333 273.493 273.485 270.881 273.931C268.268 274.379 265.605 275.157 263.065 276.022L263.336 290.827L258.634 291.632L252.38 279.573C249.246 280.11 245.194 282.202 241.682 284.308L245.545 299.36C246.732 303.783 248.921 306.53 255.932 307.914L258.207 352.638H258.209Z" fill="#4B4847"/>
<path opacity="0.5" d="M296.367 300.992L309.196 343.983L309.198 343.993H309.196C306.635 344.109 304.092 344.329 301.568 344.653C300.635 342.322 299.753 340.044 298.897 337.829C290.798 316.892 284.999 301.903 260.212 306.535C268.581 303.272 281.396 300.865 288.889 300.658C297.063 297.45 297.236 282.796 297.132 273.333C298.905 273.51 300.692 273.762 302.048 274.166C302.068 274.172 302.088 274.178 302.108 274.184L303.218 289.491C303.219 289.505 303.22 289.519 303.221 289.533C303.611 294.391 301.72 297.822 296.365 300.993L296.367 300.992Z" fill="#312E2B"/>
</g>
<defs>
<linearGradient id="paint0_linear_938_13548" x1="612.998" y1="6.6423" x2="571.677" y2="147.248" gradientUnits="userSpaceOnUse">
<stop stop-color="#B2E068"/>
<stop offset="0.033" stop-color="#B2E068" stop-opacity="0.938"/>
<stop offset="0.177" stop-color="#B2E068" stop-opacity="0.692"/>
<stop offset="0.322" stop-color="#B2E068" stop-opacity="0.48"/>
<stop offset="0.465" stop-color="#B2E068" stop-opacity="0.307"/>
<stop offset="0.605" stop-color="#B2E068" stop-opacity="0.173"/>
<stop offset="0.743" stop-color="#B2E068" stop-opacity="0.077"/>
<stop offset="0.876" stop-color="#B2E068" stop-opacity="0.019"/>
<stop offset="1" stop-color="#B2E068" stop-opacity="0"/>
</linearGradient>
<linearGradient id="paint1_linear_938_13548" x1="171.034" y1="78.5646" x2="250.403" y2="184.138" gradientUnits="userSpaceOnUse">
<stop stop-color="white"/>
<stop offset="0.097" stop-color="white" stop-opacity="0.824"/>
<stop offset="0.231" stop-color="white" stop-opacity="0.608"/>
<stop offset="0.367" stop-color="white" stop-opacity="0.422"/>
<stop offset="0.5" stop-color="white" stop-opacity="0.27"/>
<stop offset="0.631" stop-color="white" stop-opacity="0.152"/>
<stop offset="0.76" stop-color="white" stop-opacity="0.068"/>
<stop offset="0.884" stop-color="white" stop-opacity="0.017"/>
<stop offset="1" stop-color="white" stop-opacity="0"/>
</linearGradient>
<linearGradient id="paint2_linear_938_13548" x1="351.89" y1="76.2355" x2="418.1" y2="164.307" gradientUnits="userSpaceOnUse">
<stop stop-color="#B2E068"/>
<stop offset="0.033" stop-color="#B2E068" stop-opacity="0.938"/>
<stop offset="0.177" stop-color="#B2E068" stop-opacity="0.692"/>
<stop offset="0.322" stop-color="#B2E068" stop-opacity="0.48"/>
<stop offset="0.465" stop-color="#B2E068" stop-opacity="0.307"/>
<stop offset="0.605" stop-color="#B2E068" stop-opacity="0.173"/>
<stop offset="0.743" stop-color="#B2E068" stop-opacity="0.077"/>
<stop offset="0.876" stop-color="#B2E068" stop-opacity="0.019"/>
<stop offset="1" stop-color="#B2E068" stop-opacity="0"/>
</linearGradient>
<linearGradient id="paint3_linear_938_13548" x1="655.297" y1="56.7043" x2="566.628" y2="239.004" gradientUnits="userSpaceOnUse">
<stop stop-color="white"/>
<stop offset="0.097" stop-color="white" stop-opacity="0.824"/>
<stop offset="0.231" stop-color="white" stop-opacity="0.608"/>
<stop offset="0.367" stop-color="white" stop-opacity="0.422"/>
<stop offset="0.5" stop-color="white" stop-opacity="0.27"/>
<stop offset="0.631" stop-color="white" stop-opacity="0.152"/>
<stop offset="0.76" stop-color="white" stop-opacity="0.068"/>
<stop offset="0.884" stop-color="white" stop-opacity="0.017"/>
<stop offset="1" stop-color="white" stop-opacity="0"/>
</linearGradient>
<linearGradient id="paint4_linear_938_13548" x1="771.586" y1="188.93" x2="667.079" y2="264.949" gradientUnits="userSpaceOnUse">
<stop stop-color="#B2E068"/>
<stop offset="0.033" stop-color="#B2E068" stop-opacity="0.938"/>
<stop offset="0.177" stop-color="#B2E068" stop-opacity="0.692"/>
<stop offset="0.322" stop-color="#B2E068" stop-opacity="0.48"/>
<stop offset="0.465" stop-color="#B2E068" stop-opacity="0.307"/>
<stop offset="0.605" stop-color="#B2E068" stop-opacity="0.173"/>
<stop offset="0.743" stop-color="#B2E068" stop-opacity="0.077"/>
<stop offset="0.876" stop-color="#B2E068" stop-opacity="0.019"/>
<stop offset="1" stop-color="#B2E068" stop-opacity="0"/>
</linearGradient>
<linearGradient id="paint5_linear_938_13548" x1="246.333" y1="227.582" x2="318.34" y2="274.289" gradientUnits="userSpaceOnUse">
<stop stop-color="white"/>
<stop offset="0.097" stop-color="white" stop-opacity="0.824"/>
<stop offset="0.231" stop-color="white" stop-opacity="0.608"/>
<stop offset="0.367" stop-color="white" stop-opacity="0.422"/>
<stop offset="0.5" stop-color="white" stop-opacity="0.27"/>
<stop offset="0.631" stop-color="white" stop-opacity="0.152"/>
<stop offset="0.76" stop-color="white" stop-opacity="0.068"/>
<stop offset="0.884" stop-color="white" stop-opacity="0.017"/>
<stop offset="1" stop-color="white" stop-opacity="0"/>
</linearGradient>
<linearGradient id="paint6_linear_938_13548" x1="686.536" y1="161.945" x2="405.727" y2="447.607" gradientUnits="userSpaceOnUse">
<stop stop-color="white"/>
<stop offset="0.097" stop-color="white" stop-opacity="0.824"/>
<stop offset="0.231" stop-color="white" stop-opacity="0.608"/>
<stop offset="0.367" stop-color="white" stop-opacity="0.422"/>
<stop offset="0.5" stop-color="white" stop-opacity="0.27"/>
<stop offset="0.631" stop-color="white" stop-opacity="0.152"/>
<stop offset="0.76" stop-color="white" stop-opacity="0.068"/>
<stop offset="0.884" stop-color="white" stop-opacity="0.017"/>
<stop offset="1" stop-color="white" stop-opacity="0"/>
</linearGradient>
<linearGradient id="paint7_linear_938_13548" x1="359.203" y1="219.151" x2="854.642" y2="834.948" gradientUnits="userSpaceOnUse">
<stop stop-color="white"/>
<stop offset="0.097" stop-color="white" stop-opacity="0.824"/>
<stop offset="0.231" stop-color="white" stop-opacity="0.608"/>
<stop offset="0.367" stop-color="white" stop-opacity="0.422"/>
<stop offset="0.5" stop-color="white" stop-opacity="0.27"/>
<stop offset="0.631" stop-color="white" stop-opacity="0.152"/>
<stop offset="0.76" stop-color="white" stop-opacity="0.068"/>
<stop offset="0.884" stop-color="white" stop-opacity="0.017"/>
<stop offset="1" stop-color="white" stop-opacity="0"/>
</linearGradient>
<linearGradient id="paint8_linear_938_13548" x1="534.002" y1="-78.0893" x2="510.629" y2="379.153" gradientUnits="userSpaceOnUse">
<stop stop-color="white"/>
<stop offset="0.097" stop-color="white" stop-opacity="0.824"/>
<stop offset="0.231" stop-color="white" stop-opacity="0.608"/>
<stop offset="0.367" stop-color="white" stop-opacity="0.422"/>
<stop offset="0.5" stop-color="white" stop-opacity="0.27"/>
<stop offset="0.631" stop-color="white" stop-opacity="0.152"/>
<stop offset="0.76" stop-color="white" stop-opacity="0.068"/>
<stop offset="0.884" stop-color="white" stop-opacity="0.017"/>
<stop offset="1" stop-color="white" stop-opacity="0"/>
</linearGradient>
<linearGradient id="paint9_linear_938_13548" x1="215.81" y1="141.257" x2="465.352" y2="317.456" gradientUnits="userSpaceOnUse">
<stop stop-color="white"/>
<stop offset="0.097" stop-color="white" stop-opacity="0.824"/>
<stop offset="0.231" stop-color="white" stop-opacity="0.608"/>
<stop offset="0.367" stop-color="white" stop-opacity="0.422"/>
<stop offset="0.5" stop-color="white" stop-opacity="0.27"/>
<stop offset="0.631" stop-color="white" stop-opacity="0.152"/>
<stop offset="0.76" stop-color="white" stop-opacity="0.068"/>
<stop offset="0.884" stop-color="white" stop-opacity="0.017"/>
<stop offset="1" stop-color="white" stop-opacity="0"/>
</linearGradient>
<linearGradient id="paint10_linear_938_13548" x1="608.36" y1="300.09" x2="666.369" y2="433.804" gradientUnits="userSpaceOnUse">
<stop stop-color="#B2E068"/>
<stop offset="0.033" stop-color="#B6E068" stop-opacity="0.938"/>
<stop offset="0.177" stop-color="#C8E068" stop-opacity="0.692"/>
<stop offset="0.322" stop-color="#D8E169" stop-opacity="0.48"/>
<stop offset="0.465" stop-color="#E5E169" stop-opacity="0.307"/>
<stop offset="0.605" stop-color="#EFE169" stop-opacity="0.173"/>
<stop offset="0.743" stop-color="#F6E169" stop-opacity="0.077"/>
<stop offset="0.876" stop-color="#FAE169" stop-opacity="0.019"/>
<stop offset="1" stop-color="#FCE26A" stop-opacity="0"/>
</linearGradient>
<linearGradient id="paint11_linear_938_13548" x1="373.807" y1="308.546" x2="303.978" y2="431.828" gradientUnits="userSpaceOnUse">
<stop stop-color="#B2E068"/>
<stop offset="0.033" stop-color="#B6E068" stop-opacity="0.938"/>
<stop offset="0.177" stop-color="#C8E068" stop-opacity="0.692"/>
<stop offset="0.322" stop-color="#D8E169" stop-opacity="0.48"/>
<stop offset="0.465" stop-color="#E5E169" stop-opacity="0.307"/>
<stop offset="0.605" stop-color="#EFE169" stop-opacity="0.173"/>
<stop offset="0.743" stop-color="#F6E169" stop-opacity="0.077"/>
<stop offset="0.876" stop-color="#FAE169" stop-opacity="0.019"/>
<stop offset="1" stop-color="#FCE26A" stop-opacity="0"/>
</linearGradient>
<clipPath id="clip0_938_13548">
<rect width="967" height="563" fill="white"/>
</clipPath>
</defs>
</svg>
