<svg width="40" height="40" viewBox="0 0 40 40" fill="none" xmlns="http://www.w3.org/2000/svg">
<rect width="40" height="40" rx="5" fill="#2BABEE"/>
<path fill-rule="evenodd" clip-rule="evenodd" d="M10.5124 18.7489C16.418 16.2087 20.3559 14.534 22.3263 13.7249C27.9521 11.4147 29.1211 11.0134 29.883 11.0001C30.0506 10.9972 30.4253 11.0382 30.668 11.2327C30.873 11.3968 30.9294 11.6186 30.9563 11.7743C30.9833 11.93 31.0169 12.2846 30.9902 12.5616C30.6854 15.7241 29.3662 23.3986 28.6951 26.9406C28.4111 28.4394 27.852 28.9419 27.3107 28.9911C26.1343 29.098 25.2409 28.2235 24.1015 27.4861C22.3186 26.3323 21.3113 25.614 19.5807 24.488C17.5806 23.1868 18.8772 22.4716 20.017 21.3027C20.3153 20.9969 25.4986 16.3423 25.5989 15.92C25.6115 15.8672 25.6231 15.6704 25.5047 15.5664C25.3862 15.4625 25.2114 15.498 25.0852 15.5263C24.9064 15.5664 22.0581 17.425 16.5404 21.1022C15.7319 21.6503 14.9996 21.9174 14.3435 21.9034C13.6202 21.888 12.2288 21.4996 11.1945 21.1677C9.92583 20.7606 8.91753 20.5453 9.00533 19.8539C9.05106 19.4937 9.55341 19.1254 10.5124 18.7489Z" fill="white" fill-opacity="0.9"/>
</svg>
