<svg width="40" height="40" viewBox="0 0 40 40" fill="none" xmlns="http://www.w3.org/2000/svg">
<rect width="40" height="40" rx="5" fill="url(#paint0_linear_984_14568)"/>
<path d="M9.776 30.043L11.2059 24.8324C10.3225 23.3039 9.85852 21.5699 9.86065 19.8053C9.86298 14.2608 14.3837 9.75012 19.9389 9.75012C22.6347 9.75149 25.165 10.7986 27.068 12.6993C28.971 14.6 30.018 17.1264 30.017 19.8133C30.0146 25.3574 25.4932 29.8689 19.9388 29.8689H19.9344C18.2478 29.8682 16.5906 29.4459 15.1185 28.6448L9.776 30.043Z" fill="white" fill-opacity="0.9"/>
<path d="M19.9419 11.4489C15.3214 11.4489 11.5638 15.1979 11.5621 19.8061C11.5599 21.3796 12.0038 22.9217 12.8427 24.254L13.042 24.5702L12.1956 27.6541L15.366 26.8244L15.6722 27.0054C16.958 27.767 18.4322 28.1698 19.9356 28.1706H19.9388C24.5557 28.1706 28.3134 24.4212 28.3151 19.8128C28.3186 18.7144 28.1038 17.6262 27.683 16.6112C27.2623 15.5963 26.644 14.6747 25.864 13.8998C25.0883 13.1208 24.1655 12.503 23.1489 12.0823C22.1324 11.6616 21.0424 11.4463 19.9419 11.4489Z" fill="url(#paint1_linear_984_14568)"/>
<path fill-rule="evenodd" clip-rule="evenodd" d="M17.42 15.6016C17.2312 15.1831 17.0326 15.1746 16.8533 15.1674L16.3706 15.1615C16.2027 15.1615 15.9298 15.2244 15.6992 15.4759C15.4685 15.7275 14.8177 16.3354 14.8177 17.572C14.8177 18.8086 15.7201 20.0034 15.8459 20.1713C15.9716 20.3392 17.5879 22.9576 20.1475 23.965C22.2746 24.8023 22.7074 24.6358 23.1693 24.5939C23.6312 24.5521 24.6592 23.986 24.8689 23.3991C25.0786 22.8122 25.0787 22.3093 25.0159 22.2042C24.953 22.0991 24.7851 22.0366 24.533 21.9108C24.281 21.785 23.0432 21.1771 22.8124 21.0931C22.5816 21.0092 22.4138 20.9675 22.2457 21.2191C22.0776 21.4706 21.5956 22.0365 21.4486 22.2042C21.3017 22.3719 21.155 22.393 20.9029 22.2674C20.6509 22.1417 19.84 21.8762 18.8779 21.02C18.1294 20.3538 17.6241 19.5311 17.477 19.2797C17.3298 19.0283 17.4613 18.8921 17.5876 18.7669C17.7006 18.6542 17.8394 18.4733 17.9655 18.3266C18.0917 18.18 18.1332 18.0751 18.217 17.9076C18.3009 17.7402 18.2591 17.5931 18.1961 17.4674C18.1331 17.3418 17.6438 16.0987 17.42 15.6016Z" fill="white" fill-opacity="0.9"/>
<defs>
<linearGradient id="paint0_linear_984_14568" x1="20" y1="0" x2="20" y2="40" gradientUnits="userSpaceOnUse">
<stop stop-color="#57D163"/>
<stop offset="1" stop-color="#23B33A"/>
</linearGradient>
<linearGradient id="paint1_linear_984_14568" x1="19.7681" y1="12.4523" x2="19.8527" y2="26.7421" gradientUnits="userSpaceOnUse">
<stop stop-color="#57D163"/>
<stop offset="1" stop-color="#23B33A"/>
</linearGradient>
</defs>
</svg>
